<svg t="1699276428798" class="icon" viewBox="0 0 1024 1024" version="1.1" xmlns="http://www.w3.org/2000/svg" p-id="26344" width="48" height="48"><path d="M673.5 198.1l-323 2.3 159-95.4 164 93.1z" fill="#D81E06" p-id="26345"></path><path d="M486.2 86.4c0 25.8 11.5 46.7 25.8 46.7 14.2 0 25.8-20.9 25.8-46.7S526.2 39.7 512 39.7c-14.2 0-25.8 20.9-25.8 46.7zM354 208.3V331h139.8v-52.2c0-5 4.1-9.1 9.1-9.1H521c5 0 9.1 4.1 9.1 9.1V331H670V208.3H354zM326.7 339v122.7h167.1v-52.2c0-5 4.1-9.1 9.1-9.1H521c5 0 9.1 4.1 9.1 9.1v52.2h167.1V339H326.7zM297.5 469.6v122.7h196.3v-52.2c0-5 4.1-9.1 9.1-9.1H521c5 0 9.1 4.1 9.1 9.1v52.2h196.3V469.6H297.5zM271.2 600.3V723h222.6v-52.2c0-5 4.1-9.1 9.1-9.1H521c5 0 9.1 4.1 9.1 9.1V723h222.6V600.3H271.2zM246.8 731v122.7h247v-52.2c0-5 4.1-9.1 9.1-9.1H521c5 0 9.1 4.1 9.1 9.1v52.2h247V731H246.8zM217.5 861.6v122.7h276.3v-52.2c0-5 4.1-9.1 9.1-9.1H521c5 0 9.1 4.1 9.1 9.1v52.2h276.3V861.6H217.5z" fill="#D81E06" p-id="26346"></path></svg>