<svg t="1699253097124" class="icon" viewBox="0 0 1024 1024" version="1.1" xmlns="http://www.w3.org/2000/svg" p-id="1677" width="48" height="48"><path d="M459.462939 516.532903h218.109589s-33.560093 134.228365-33.560093 218.11059c0 83.889227 16.782047 134.227365 16.782047 251.669681H459.462939s33.55309-67.111181 33.553089-251.669681c-16.778045-67.106179-33.55309-218.110589-33.553089-218.11059M459.462939 37.688826h234.884633s-33.55309 59.409948-33.55309 126.516127c0 67.114183 0 184.556499 16.778046 301.999817H459.462939s16.776045-167.779454 16.776044-301.999817c-0.001-67.106179-16.776045-126.516127-16.776044-126.516127" fill="#88BE6E" p-id="1678"></path><path d="M534.556472 568.738826s-16.777045-151.007411-117.443317-218.11059C299.668838 283.514054 182.226521 199.623826 182.226521 199.623826s16.778045 134.227365 134.221362 268.444726C450.667245 602.291916 534.556472 568.738826 534.556472 568.738826m-50.331135 50.329134s-83.889227-33.555091-151.001409-16.776044c-67.106179 0-234.887634 83.888227-251.662679 100.666272 0 0 167.779454 67.110181 301.999817 0 134.219362-67.118184 100.664271-83.890227 100.664271-83.890228M663.425587 284.470455s41.083252 16.433901 106.818855-49.299702c57.518153-65.735604 65.734603-131.472208 65.734604-131.472208s-57.517153 41.084252-115.035306 73.956056c-49.301703 32.8628-57.518153 106.815854-57.518153 106.815854m24.651352 24.648351s-16.434901 8.21545 49.298701 41.085252c65.734603 32.866801 147.904108 0 147.904108 0-8.21645-8.219452-90.385955-49.300702-123.252756-49.300702-32.865801-8.21645-73.950053 8.21545-73.950053 8.21545" fill="#88BE6E" p-id="1679"></path></svg>