<svg t="1699277108904" class="icon" viewBox="0 0 1024 1024" version="1.1" xmlns="http://www.w3.org/2000/svg" p-id="63881" width="48" height="48"><path d="M507.02 953.53c-59.81 0-117.84-11.72-172.47-34.82-52.76-22.32-100.15-54.26-140.83-94.95-40.69-40.69-72.63-88.07-94.95-140.83-23.11-54.63-34.83-112.66-34.83-172.47s11.72-117.84 34.83-172.47c22.32-52.76 54.26-100.15 94.95-140.83 40.69-40.69 88.07-72.63 140.83-94.95 54.63-23.11 112.66-34.83 172.47-34.83s117.84 11.72 172.47 34.83c52.76 22.32 100.15 54.26 140.83 94.95 40.69 40.69 72.63 88.07 94.95 140.83 23.11 54.63 34.82 112.66 34.82 172.47s-11.72 117.84-34.82 172.47c-22.32 52.76-54.26 100.15-94.95 140.83-40.69 40.69-88.07 72.63-140.83 94.95-54.63 23.1-112.66 34.82-172.47 34.82z m0-858.43C278 95.1 91.67 281.42 91.67 510.45S278 925.8 507.02 925.8s415.35-186.33 415.35-415.35S736.05 95.1 507.02 95.1z" fill="#FF0000" p-id="63882"></path><path d="M507.02 724.12c-57.07 0-110.73-22.23-151.09-62.58s-62.58-94.01-62.58-151.09c0-117.82 95.85-213.67 213.67-213.67 57.07 0 110.73 22.23 151.09 62.58 40.36 40.36 62.58 94.01 62.58 151.09s-22.23 110.73-62.58 151.09-94.02 62.58-151.09 62.58z m0-413.48c-110.17 0-199.8 89.63-199.8 199.8 0 110.17 89.63 199.8 199.8 199.8 110.17 0 199.8-89.63 199.8-199.8 0.01-110.16-89.63-199.8-199.8-199.8z" fill="#FF0000" p-id="63883"></path><path d="M507.02 684.05c-95.73 0-173.61-77.88-173.61-173.61 0-95.73 77.88-173.61 173.61-173.61 95.73 0 173.61 77.88 173.61 173.61 0 95.73-77.88 173.61-173.61 173.61z m0-333.34c-88.08 0-159.74 71.66-159.74 159.74s71.66 159.74 159.74 159.74 159.74-71.66 159.74-159.74-71.66-159.74-159.74-159.74zM561.37 298c-15.98 0-35.13-4.33-51.76-15.19-22.37-14.6-37.1-38.89-42.61-70.24-4.99-28.36-46.34-46.66-61.53-52.47-6.45 17.64 1.84 36.57 1.93 36.79l0.14 0.32c0.68 1.45 8.23 15.87 39.87 12.49l14.6-1.56-8.31 12.11c-1.24 1.8-30.84 44.25-75.08 49.51-24.06 2.86-47.52-5.83-69.73-25.81l-10.69-9.62 14.23-2.09c0.91-0.15 23.34-3.97 31.77-29.05l0.62-1.85c10.25-30.51 24.28-72.29 56.6-87.44 16.41-7.69 35.6-7.38 57.02 0.94l-0.34 0.87c7.64-0.89 15.89-1.33 24.76-1.33 29.22 0 52.77 10 70 29.71 43.23 49.46 31.25 142.44 30.72 146.37l-0.62 4.56-4.47 1.1c-4.98 1.2-10.8 1.88-17.12 1.88zM412.56 148.32c18.72 7.4 61.76 27.9 67.74 61.91 4.92 27.97 17.26 48.58 36.69 61.26 17.73 11.58 39.2 14.44 53.7 12.36 1.79-19.28 5.94-92.07-28.03-130.9-14.55-16.63-34.67-25.07-59.8-25.07-34.52 0-58.12 6.87-70.3 20.44z m-85.37 93.11c16.27 11.87 32.97 16.88 49.76 14.9 25.08-2.95 45.44-20.79 56.51-32.76-29.02-1.72-37.34-18.69-38.43-21.23-0.86-1.96-13.55-31.77 2.66-56.78 6.84-10.56 17.65-18.46 32.3-23.67-8.28-0.46-15.86 0.95-22.85 4.23-27.08 12.69-40.05 51.31-49.52 79.5l-0.62 1.86c-6.58 19.58-19.82 29.26-29.81 33.95z" fill="#FF0000" p-id="63884"></path><path d="M481.9 252.41c-0.1-1.49-2.09-36.75 21.78-55.17 16.37-12.64 40.22-13.9 70.88-3.72l-4.26 12.83c-26.12-8.67-45.76-8.13-58.36 1.59-18.24 14.08-16.57 43.31-16.55 43.6l-13.49 0.87z" fill="#FF0000" p-id="63885"></path><path d="M546.79 241.3m-4.47 0a4.47 4.47 0 1 0 8.94 0 4.47 4.47 0 1 0-8.94 0Z" fill="#19FF00" p-id="63886"></path><path d="M546.79 250.18c-4.9 0-8.88-3.98-8.88-8.88s3.98-8.88 8.88-8.88 8.88 3.98 8.88 8.88-3.99 8.88-8.88 8.88z m0-8.95v0.13l0.07-0.07c-0.01-0.03-0.04-0.06-0.07-0.06zM511.91 249.8c-3.48 0-6.43-2.67-6.73-6.2-1.93-23.11 18.09-32.31 18.94-32.69 3.41-1.52 7.41 0.01 8.93 3.42a6.77 6.77 0 0 1-3.38 8.91c-0.57 0.27-12.14 5.86-11.02 19.24a6.758 6.758 0 0 1-6.17 7.3c-0.2 0.01-0.39 0.02-0.57 0.02zM571.71 185.34l-10.26-8.8c0.5-0.58 10.66-12.39 20.15-20.53-7.47-12.41-33.84-45.16-97.01-28.35l-3.48-13.06c45.19-12.02 74.05-0.57 90.31 11.16 17.84 12.87 24.7 28.75 24.99 29.42l2.09 4.94-4.34 3.16c-9.18 6.66-22.31 21.91-22.45 22.06z" fill="#FF0000" p-id="63887"></path><path d="M472.288 210.113l68.525-73.24 4.936 4.62-68.525 73.238zM486.048 223.871l68.525-73.239 4.937 4.619-68.525 73.239zM464.332 192.363l63.681-68.062 4.936 4.618-63.68 68.062zM450.965 180.371l64.235-68.653 4.936 4.618L455.9 184.99zM433.84 172.443l46.308-51.014 5.005 4.543-46.308 51.014zM421.002 159.906l34.504-39.21 5.074 4.466-34.503 39.21z" fill="#FF0000" p-id="63888"></path><path d="M406.878 147.136l1.35-6.623 156.955 32.006-1.35 6.623zM430.199 170.2l1.35-6.623 133.635 27.251-1.35 6.624zM460.602 195.547l1.475-6.597 48.746 10.9-1.475 6.596zM424.98 134.791l1.411-6.611 129.272 27.6-1.411 6.61zM378.38 217.88c-3.66 0-7.46-0.54-11.38-1.63-10.95-3.05-18.95-9.51-19.29-9.79l8.53-10.49c0.06 0.05 6.42 5.12 14.73 7.34 10.1 2.7 18.3 0.08 25.08-8.01l10.36 8.69c-7.71 9.19-17.26 13.89-28.03 13.89z" fill="#FF0000" p-id="63889"></path><path d="M344.483 253.047L362.2 207.35l6.303 2.444-17.717 45.697zM371.33 210.86h6.76v49.62h-6.76zM383.07 211.615l6.585-1.527 10.075 43.425-6.585 1.528zM415.87 243.37c-26.66-34.34-26.51-35.2-26.16-37.07l1.59-2.31 3.49 5.79c1.67-1.01 1.88-3.02 1.38-4.03 1.1 2.22 13.72 18.9 25.03 33.47l-5.33 4.15z" fill="#FF0000" p-id="63890"></path><path d="M164.1 462.86l8.58-11.54c0.54-0.75 13.7-19.31 1.93-43.01l-0.87-1.75c-14.33-28.82-33.95-68.29-21.81-101.85 6.17-17.04 19.96-30.39 40.99-39.66l0.38 0.86c4.77-6.03 10.3-12.18 16.57-18.45 20.66-20.66 44.38-30.25 70.51-28.49 65.54 4.4 122.82 78.62 125.22 81.78l2.79 3.66-2.39 3.94c-9.38 15.46-30.98 33.61-58.1 39.31-26.14 5.49-53.73-1.26-79.8-19.54-23.58-16.53-65.76-0.22-80.61 6.4 7.91 17.03 27.16 24.56 27.38 24.65l0.32 0.13c1.51 0.55 17.05 5.4 37.03-19.36l9.22-11.43 2.68 14.44c0.4 2.15 9.48 53.1-18.08 88.1-14.99 19.03-37.72 29.48-67.56 31.05l-14.38 0.76z m13.71-172.7c-6.19 5.54-10.54 11.89-13.17 19.14-10.17 28.12 7.96 64.6 21.2 91.23l0.87 1.76c9.19 18.5 6.67 34.71 2.92 45.09 19.93-3.12 35.29-11.4 45.77-24.7 15.67-19.89 17.43-46.84 16.78-63.09-21.75 19.32-39.63 13.21-42.21 12.18-1.98-0.77-32.04-12.87-38.27-42.03-2.62-12.3-0.57-25.53 6.11-39.58z m63.72 17.35c12.25 0 24.32 2.54 34.32 9.54 23.26 16.3 46.56 22.15 69.26 17.38 20.72-4.35 37.92-17.5 46.71-29.23-12.37-14.9-60.9-69.3-112.39-72.74-22.04-1.48-42.24 6.79-60.01 24.56-24.4 24.4-36.23 45.95-35.25 64.16 11.93-5.18 34.94-13.67 57.36-13.67z" fill="#FF0000" p-id="63891"></path><path d="M306.79 345.75c-1.12-0.99-27.46-24.51-23.62-54.41 2.64-20.52 18.61-38.27 47.48-52.75l6.06 12.08c-24.6 12.34-38.11 26.6-40.14 42.39-2.94 22.85 18.91 42.34 19.13 42.53l-8.91 10.16z" fill="#FF0000" p-id="63892"></path><path d="M344.82 292.01m-4.47 0a4.47 4.47 0 1 0 8.94 0 4.47 4.47 0 1 0-8.94 0Z" fill="#19FF00" p-id="63893"></path><path d="M344.82 300.89c-2.27 0-4.55-0.87-6.28-2.6-3.46-3.46-3.46-9.1 0-12.56 3.46-3.46 9.1-3.46 12.56 0 3.46 3.46 3.46 9.1 0 12.56a8.85 8.85 0 0 1-6.28 2.6z m0-8.94c-0.02 0-0.04 0.01-0.05 0.02l0.09 0.09 3.12-3.21-3.12 3.12c0-0.02-0.02-0.02-0.04-0.02zM321.39 324.66a6.7 6.7 0 0 1-4.36-1.6c-17.71-14.98-10.06-35.64-9.72-36.51a6.75 6.75 0 0 1 8.73-3.89c3.47 1.33 5.21 5.21 3.91 8.69-0.22 0.6-4.43 12.73 5.82 21.4a6.756 6.756 0 0 1 0.79 9.53 6.782 6.782 0 0 1-5.17 2.38zM220.48 255.63l-11.7-6.78c23.45-40.46 51.96-52.76 71.74-55.97 21.72-3.51 37.8 2.86 38.47 3.14l4.97 2.02-0.84 5.3c-1.77 11.21-0.27 31.28-0.26 31.48l-13.48 1.03c-0.06-0.76-1.22-16.3-0.27-28.77-14.04-3.49-55.84-8.01-88.63 48.55z" fill="#FF0000" p-id="63894"></path><path d="M266.775 222.378l6.756-0.225 3.33 100.24-6.756 0.225zM286.234 222.378l6.756-0.225 3.33 100.24-6.756 0.224zM248.824 222.535l6.756-0.224 3.095 93.154-6.756 0.224zM230.87 222.696l6.757-0.224 3.121 93.964-6.756 0.224zM212.916 254.351l6.752-0.326 3.328 68.817-6.752 0.327zM195.002 271.258l6.747-0.431 3.332 52.125-6.747 0.432z" fill="#FF0000" p-id="63895"></path><path d="M175.569 318.721l133.614-88.36 3.73 5.638-133.615 88.36zM208.363 318.54l113.763-75.233 3.729 5.638-113.763 75.233zM247.935 314.882l42.178-26.763 3.622 5.708-42.178 26.763zM179.706 297.18l110.912-71.907 3.678 5.673-110.913 71.905zM179.42 408.15l-1.36-13.45 0.68 6.72-0.7-6.72c0.08-0.01 8.16-0.92 15.61-5.22 9.05-5.23 13-12.88 12.07-23.4l13.47-1.18c1.41 16.02-5.23 28.65-19.21 36.54-9.91 5.58-20.13 6.66-20.56 6.71z" fill="#FF0000" p-id="63896"></path><path d="M190.276 398.542l6.185-2.728 19.78 44.84-6.184 2.728zM199.22 394.55l4.78-4.78 35.086 35.086-4.78 4.78zM208.074 386.788l3.576-5.737 37.83 23.583-3.576 5.736zM253.71 386.05c-43.14-5.43-43.63-6.14-44.71-7.72l-0.5-2.76 6.56 1.62c0.47-1.9-0.81-3.46-1.88-3.82 2.34 0.79 23.06 3.66 41.37 5.97l-0.84 6.71z" fill="#FF0000" p-id="63897"></path><path d="M230.89 719.28l-2.09-14.23c-0.15-0.91-3.97-23.34-29.05-31.77l-1.85-0.62c-30.51-10.25-72.29-24.28-87.44-56.59-7.69-16.41-7.38-35.6 0.94-57.02l0.87 0.34c-0.89-7.64-1.33-15.89-1.33-24.76 0-29.22 10-52.77 29.71-70 49.46-43.23 142.44-31.25 146.37-30.72l4.57 0.62 1.1 4.47c4.3 17.56 1.86 45.67-13.29 68.88-14.6 22.37-38.89 37.1-70.24 42.61-28.37 4.99-46.66 46.34-52.47 61.53 17.64 6.45 36.57-1.84 36.79-1.93l0.32-0.14c1.45-0.68 15.87-8.23 12.49-39.87l-1.56-14.6 12.11 8.31c1.8 1.24 44.25 30.84 49.51 75.08 2.86 24.06-5.83 47.52-25.81 69.73l-9.65 10.68zM118.47 587.47c-0.46 8.29 0.95 15.86 4.23 22.85 12.69 27.08 51.31 40.05 79.5 49.52l1.86 0.62c19.58 6.58 29.26 19.82 33.94 29.82 11.87-16.27 16.88-32.97 14.9-49.76-2.95-25.08-20.79-45.44-32.76-56.51-1.73 29.01-18.68 37.34-21.23 38.43-1.95 0.86-31.76 13.55-56.78-2.66-10.55-6.85-18.45-17.65-23.66-32.31zM254 445.61c-30.52 0-76.39 4.62-104.48 29.2-16.63 14.55-25.07 34.67-25.07 59.8 0 34.51 6.87 58.11 20.44 70.29 7.4-18.72 27.9-61.76 61.91-67.74 27.97-4.92 48.58-17.26 61.26-36.69 11.57-17.73 14.44-39.19 12.36-53.7-5.33-0.49-14.75-1.16-26.42-1.16z" fill="#FF0000" p-id="63898"></path><path d="M245.92 535.65c-9.2 0-36.61-1.77-52.12-21.85-12.64-16.37-13.9-40.22-3.72-70.88l12.83 4.26c-8.66 26.09-8.14 45.7 1.55 58.3 13.98 18.18 43.36 16.62 43.65 16.6l0.86 13.49c-0.23 0.02-1.31 0.08-3.05 0.08z" fill="#FF0000" p-id="63899"></path><path d="M237.87 470.68m-4.47 0a4.47 4.47 0 1 0 8.94 0 4.47 4.47 0 1 0-8.94 0Z" fill="#19FF00" p-id="63900"></path><path d="M237.87 479.57c-4.9 0-8.88-3.98-8.88-8.88s3.98-8.88 8.88-8.88 8.88 3.98 8.88 8.88-3.98 8.88-8.88 8.88z m0-8.95c-0.04 0-0.07 0.03-0.07 0.07h0.13l-0.06-0.07zM237.08 512.42c-20.85 0-29.24-18.26-29.6-19.07a6.763 6.763 0 0 1 3.42-8.93c3.4-1.51 7.37 0 8.91 3.38 0.28 0.59 5.89 12.14 19.24 11.02a6.758 6.758 0 1 1 1.13 13.47c-1.06 0.09-2.09 0.13-3.1 0.13zM111.16 536.35c-12.02-45.19-0.57-74.05 11.16-90.3 12.87-17.84 28.75-24.7 29.42-24.99l4.94-2.09 3.16 4.34c6.68 9.18 21.92 22.31 22.08 22.44l-8.8 10.26c-0.58-0.5-12.39-10.66-20.53-20.15-12.41 7.48-45.16 33.84-28.35 97.01l-13.08 3.48z" fill="#FF0000" p-id="63901"></path><path d="M133.46 476.608l4.618-4.936 73.24 68.525-4.62 4.936zM147.218 462.848l4.618-4.936 73.24 68.525-4.62 4.936zM120.879 489.417l4.618-4.936 68.062 63.68-4.618 4.937zM108.305 502.22l4.618-4.937 68.654 64.235-4.619 4.936zM118.008 537.308l4.543-5.006 51.02 46.308-4.543 5.006zM117.23 561.964l4.465-5.075 39.21 34.503-4.467 5.075z" fill="#FF0000" p-id="63902"></path><path d="M137.1 609.25l31.99-156.97 6.624 1.35-31.99 156.97zM160.16 585.936l27.238-133.649 6.624 1.35-27.237 133.649zM185.526 555.417l10.9-48.746 6.597 1.475-10.9 48.746zM124.775 591.09l27.573-129.272 6.611 1.41L131.387 592.5zM203.03 669.76l-10.49-8.53c0.05-0.06 5.12-6.42 7.34-14.73 2.7-10.09 0.08-18.3-8.01-25.08l8.69-10.36c12.32 10.33 16.56 23.96 12.26 39.42-3.05 10.95-9.51 18.95-9.79 19.28z" fill="#FF0000" p-id="63903"></path><path d="M203.945 655.247l2.444-6.303 45.697 17.717-2.444 6.303zM207.43 639.38h49.62v6.76h-49.62zM206.67 627.78l43.426-10.075 1.528 6.585-43.426 10.075z" fill="#FF0000" p-id="63904"></path><path d="M203.49 627.83c-0.22 0-0.41-0.04-0.61-0.07l-2.31-1.59 5.79-3.49c-1.01-1.67-3.02-1.88-4.03-1.38 2.22-1.1 18.9-13.72 33.47-25.03l4.15 5.34c-30.65 23.79-34.63 26.22-36.46 26.22z" fill="#FF0000" p-id="63905"></path><path d="M324.02 869.34c-7.75 0-15.38-1.14-22.74-3.79-17.04-6.17-30.39-19.96-39.66-40.99l0.86-0.38c-6.03-4.77-12.18-10.3-18.45-16.57-20.66-20.66-30.25-44.38-28.49-70.51 4.4-65.54 78.62-122.82 81.78-125.22l3.66-2.79 3.94 2.39c15.46 9.38 33.61 30.98 39.31 58.1 5.49 26.14-1.26 53.73-19.54 79.8-16.53 23.58-0.22 65.76 6.4 80.61 17.03-7.91 24.56-27.16 24.65-27.38l0.13-0.32c0.55-1.51 5.4-17.05-19.36-37.03l-11.43-9.22 14.44-2.68c2.15-0.4 53.1-9.48 88.1 18.08 19.03 14.99 29.48 37.72 31.05 67.56l0.76 14.36-11.54-8.58c-0.75-0.54-19.31-13.7-43.01-1.93l-1.75 0.87c-22.5 11.2-51.5 25.62-79.11 25.62z m-37.28-29.67c5.53 6.18 11.89 10.54 19.14 13.17 28.12 10.17 64.6-7.96 91.23-21.2l1.76-0.87c18.5-9.19 34.71-6.67 45.09-2.92-3.11-19.9-11.37-35.25-24.65-45.72-19.82-15.65-46.83-17.43-63.12-16.8 19.3 21.74 13.19 39.62 12.16 42.19-0.77 1.99-12.88 32.04-42.03 38.27-12.31 2.6-25.53 0.55-39.58-6.12z m15.03-214.01c-14.9 12.37-69.3 60.9-72.74 112.39-1.47 22.05 6.79 42.24 24.56 60.01 24.4 24.4 45.94 36.24 64.16 35.25-8-18.47-23.94-63.4-4.13-91.68 16.3-23.26 22.15-46.56 17.38-69.26-4.35-20.73-17.5-37.93-29.23-46.71z" fill="#FF0000" p-id="63906"></path><path d="M293.92 734.68c-1.97 0-3.97-0.12-6-0.38-20.52-2.64-38.27-18.62-52.75-47.48l12.08-6.06c12.33 24.57 26.57 38.07 42.32 40.13 22.74 2.98 42.41-18.91 42.61-19.13l10.15 8.93c-0.92 1.03-21.42 23.99-48.41 23.99z" fill="#FF0000" p-id="63907"></path><path d="M288.59 672.65m-4.47 0a4.47 4.47 0 1 0 8.94 0 4.47 4.47 0 1 0-8.94 0Z" fill="#19FF00" p-id="63908"></path><path d="M288.59 681.53c-2.37 0-4.6-0.92-6.28-2.6a8.82 8.82 0 0 1-2.6-6.28c0-2.37 0.92-4.6 2.6-6.28 3.46-3.46 9.1-3.46 12.56 0 3.46 3.46 3.46 9.1 0 12.56a8.82 8.82 0 0 1-6.28 2.6z m-3.17-12.05l3.12 3.12c-0.02 0.02-0.02 0.07 0 0.09l0.09-0.09-3.21-3.12zM294.8 712.09c-6.5 0-11.27-1.77-11.68-1.93a6.75 6.75 0 0 1-3.89-8.73 6.758 6.758 0 0 1 8.69-3.91c0.61 0.22 12.73 4.43 21.4-5.82a6.756 6.756 0 0 1 9.53-0.79 6.756 6.756 0 0 1 0.79 9.53c-7.95 9.39-17.5 11.65-24.84 11.65zM245.42 808.68c-40.46-23.45-52.76-51.96-55.97-71.74-3.52-21.72 2.86-37.8 3.14-38.47l2.02-4.97 5.3 0.84c11.21 1.77 31.28 0.27 31.48 0.26l1.03 13.48c-0.76 0.06-16.3 1.22-28.77 0.27-3.49 14.06-8.01 55.86 48.55 88.65l-6.78 11.68z" fill="#FF0000" p-id="63909"></path><path d="M218.704 743.899l100.24-3.33 0.224 6.756-100.24 3.33zM218.704 724.44l100.24-3.33 0.225 6.756-100.24 3.33zM218.861 761.85l93.155-3.094 0.224 6.756-93.154 3.094zM219.031 779.803l93.964-3.122 0.224 6.756-93.963 3.122zM250.627 797.746l68.817-3.328 0.327 6.752-68.817 3.328zM267.409 815.769l52.125-3.328 0.43 6.747-52.125 3.327z" fill="#FF0000" p-id="63910"></path><path d="M226.934 708.256l5.639-3.729 88.36 133.615-5.638 3.729zM239.882 695.3l5.638-3.728 75.233 113.763-5.639 3.728zM284.743 727.383l5.708-3.622 26.763 42.177-5.708 3.622zM221.848 726.83l5.672-3.677 71.893 110.912-5.672 3.677zM391.27 839.44c-0.01-0.08-0.92-8.17-5.22-15.61-5.23-9.05-12.88-13-23.4-12.07l-1.18-13.47c16.02-1.41 28.65 5.23 36.54 19.21 5.59 9.9 6.67 20.13 6.72 20.56l-13.46 1.38z" fill="#FF0000" p-id="63911"></path><path d="M392.388 820.996l44.839-19.785 2.729 6.185-44.84 19.785zM386.342 813.458l35.086-35.086 4.78 4.78-35.086 35.086zM377.608 805.784l23.583-37.83 5.736 3.575-23.582 37.83z" fill="#FF0000" p-id="63912"></path><path d="M372.15 808.97l1.62-6.56c-1.89-0.47-3.46 0.81-3.82 1.88 0.79-2.34 3.67-23.06 5.97-41.37l6.71 0.84c-0.01 0.1-1.33 10.55-2.75 20.94-3.08 22.47-3.41 22.7-4.96 23.77l-2.77 0.5z" fill="#FF0000" p-id="63913"></path><path d="M587.12 912.56c-9.85 0-20.38-2.16-31.51-6.48l0.34-0.87c-7.64 0.89-15.89 1.33-24.76 1.33-29.22 0-52.77-10-70-29.71-43.23-49.46-31.25-142.44-30.72-146.37l0.62-4.57 4.47-1.1c17.56-4.3 45.67-1.86 68.88 13.29 22.37 14.6 37.1 38.89 42.62 70.24 4.99 28.36 46.32 46.65 61.52 52.47 6.37-17.56-1.83-36.58-1.93-36.8l-0.13-0.3c-0.66-1.43-8.2-15.88-39.87-12.5l-14.6 1.56 8.31-12.11c1.24-1.8 30.84-44.25 75.08-49.51 24.06-2.86 47.52 5.83 69.73 25.81l10.69 9.62-14.23 2.09c-0.91 0.14-23.34 3.97-31.77 29.05l-0.62 1.85c-10.25 30.51-24.28 72.3-56.6 87.44-7.89 3.72-16.42 5.57-25.52 5.57zM584.05 899c8.3 0.45 15.86-0.95 22.85-4.23 27.08-12.69 40.05-51.31 49.52-79.51l0.62-1.86c6.58-19.58 19.82-29.26 29.82-33.95-16.29-11.89-33.02-16.9-49.83-14.9-25.14 2.99-45.44 20.79-56.47 32.75 29.05 1.71 37.37 18.69 38.46 21.23 0.87 1.97 13.55 31.77-2.66 56.78-6.85 10.58-17.65 18.48-32.31 23.69z m-140.7-161.95c-1.79 19.28-5.94 92.07 28.03 130.91 14.55 16.63 34.67 25.07 59.8 25.07 34.51 0 58.11-6.87 70.29-20.44-18.72-7.4-61.76-27.9-67.74-61.91-4.92-27.97-17.26-48.58-36.69-61.26-17.73-11.59-39.18-14.46-53.69-12.37z" fill="#FF0000" p-id="63914"></path><path d="M476.35 834.18c-10.9 0-23.2-2.26-36.86-6.8l4.26-12.83c26.09 8.66 45.7 8.13 58.3-1.55 18.18-13.98 16.62-43.36 16.6-43.66l13.49-0.86c0.1 1.49 2.09 36.75-21.78 55.17-9.07 7.02-20.45 10.53-34.01 10.53z" fill="#FF0000" p-id="63915"></path><path d="M467.26 779.6m-4.47 0a4.47 4.47 0 1 0 8.94 0 4.47 4.47 0 1 0-8.94 0Z" fill="#19FF00" p-id="63916"></path><path d="M467.26 788.48c-4.9 0-8.88-3.98-8.88-8.88s3.98-8.88 8.88-8.88 8.88 3.98 8.88 8.88-3.99 8.88-8.88 8.88z m0-8.95l-0.07 0.07c0 0.04 0.03 0.07 0.07 0.07v-0.14zM487.17 810.58c-2.59 0-5.06-1.49-6.18-4.01-1.51-3.4 0-7.37 3.38-8.91 0.59-0.28 12.13-5.87 11.02-19.24a6.758 6.758 0 0 1 6.17-7.3c3.71-0.32 6.99 2.45 7.3 6.17 1.93 23.11-18.09 32.31-18.94 32.69-0.89 0.41-1.83 0.6-2.75 0.6zM496.48 911.42c-24.97 0-42.5-8.07-53.86-16.26-17.84-12.87-24.7-28.75-24.99-29.42l-2.09-4.94 4.34-3.16c9.18-6.68 22.31-21.92 22.44-22.08l10.26 8.8c-0.5 0.58-10.66 12.39-20.15 20.53 7.48 12.41 33.83 45.17 97.01 28.35l3.47 13.06c-13.57 3.62-25.69 5.12-36.43 5.12z" fill="#FF0000" p-id="63917"></path><path d="M468.253 879.356l68.525-73.239 4.936 4.619-68.525 73.239zM454.554 865.653l68.525-73.249 4.936 4.619-68.525 73.249zM481.123 891.993l63.681-68.071 4.937 4.618-63.68 68.071zM493.931 904.57l64.235-68.663 4.936 4.619-64.234 68.662zM528.904 894.947l46.315-51.013 5.005 4.544-46.315 51.013zM553.419 895.793l34.503-39.21 5.074 4.466-34.503 39.21z" fill="#FF0000" p-id="63918"></path><path d="M448.824 848.414l1.351-6.624 156.954 32.006-1.35 6.624zM448.825 830.112l1.35-6.624 133.635 27.25-1.35 6.624zM503.193 821.02l1.475-6.597 48.747 10.9-1.475 6.597zM458.457 865.125l1.411-6.611 129.272 27.6-1.411 6.61zM618 825.59l-10.36-8.69c10.33-12.32 23.96-16.56 39.42-12.26 10.95 3.05 18.95 9.51 19.29 9.79l-8.55 10.47 4.27-5.24-4.26 5.25c-0.06-0.05-6.42-5.12-14.73-7.34-10.09-2.69-18.3-0.07-25.08 8.02z" fill="#FF0000" p-id="63919"></path><path d="M645.585 811.122l17.717-45.697 6.303 2.444-17.717 45.697zM635.95 760.42h6.76v49.62h-6.76zM614.283 767.36l6.585-1.528 10.075 43.426-6.585 1.527z" fill="#FF0000" p-id="63920"></path><path d="M622.74 816.9l-3.49-5.79c-1.67 1.01-1.87 3.02-1.38 4.03-1.1-2.22-13.72-18.9-25.03-33.47l5.34-4.14c0.06 0.08 6.52 8.4 12.86 16.75 13.71 18.07 13.64 18.46 13.3 20.32l-1.6 2.3z" fill="#FF0000" p-id="63921"></path><path d="M739.71 802.13c-1.99 0-4-0.07-6.03-0.2-65.54-4.4-122.82-78.62-125.22-81.78l-2.79-3.66 2.39-3.94c9.38-15.46 30.98-33.61 58.1-39.31 26.14-5.5 53.73 1.26 79.8 19.53 23.58 16.53 65.76 0.23 80.61-6.4-7.91-17.03-27.16-24.56-27.38-24.65l-0.32-0.13c-1.51-0.55-17.05-5.4-37.02 19.36l-9.22 11.43-2.69-14.44c-0.4-2.15-9.48-53.1 18.08-88.1 14.99-19.03 37.72-29.48 67.56-31.05l14.36-0.76-8.58 11.54c-0.54 0.75-13.7 19.31-1.93 43.01l0.87 1.75c14.33 28.82 33.95 68.29 21.81 101.85-6.17 17.04-19.96 30.39-40.99 39.66l-0.38-0.86c-4.77 6.03-10.3 12.18-16.57 18.45-19.04 19.07-40.71 28.7-64.46 28.7zM622.23 715.7c12.37 14.9 60.9 69.3 112.39 72.74 22.04 1.47 42.24-6.79 60.01-24.56 24.4-24.4 36.23-45.95 35.25-64.16-18.47 8.01-63.41 23.94-91.68 4.13-23.26-16.3-46.56-22.14-69.26-17.38-20.73 4.35-37.93 17.5-46.71 29.23z m181.84-66.58c1.98 0.77 32.04 12.87 38.27 42.03 2.63 12.3 0.58 25.53-6.1 39.58 6.19-5.54 10.54-11.89 13.17-19.14 10.17-28.12-7.96-64.6-21.21-91.23l-0.87-1.75c-9.19-18.5-6.67-34.71-2.92-45.09-19.9 3.11-35.25 11.38-45.73 24.65-15.65 19.82-17.43 46.83-16.8 63.12 21.74-19.3 39.61-13.2 42.19-12.17z" fill="#FF0000" p-id="63922"></path><path d="M683.38 782.3l-6.06-12.08c24.57-12.33 38.07-26.56 40.13-42.32 2.97-22.74-18.91-42.41-19.13-42.61l8.93-10.15c1.12 0.99 27.46 24.51 23.62 54.41-2.64 20.52-18.62 38.27-47.49 52.75z" fill="#FF0000" p-id="63923"></path><path d="M669.22 728.88m-4.47 0a4.47 4.47 0 1 0 8.94 0 4.47 4.47 0 1 0-8.94 0Z" fill="#19FF00" p-id="63924"></path><path d="M669.22 737.76c-2.27 0-4.55-0.87-6.28-2.6-1.68-1.68-2.6-3.91-2.6-6.28s0.92-4.6 2.6-6.28c3.46-3.46 9.1-3.46 12.56 0 3.46 3.46 3.46 9.1 0 12.56-1.73 1.74-4 2.6-6.28 2.6z m-0.05-8.92v0.09c0.02 0.02 0.07 0.03 0.09 0l-0.09-0.09zM700.42 738.69c-0.8 0-1.62-0.14-2.42-0.45-3.47-1.33-5.21-5.21-3.91-8.69 0.22-0.62 4.43-12.73-5.82-21.4a6.756 6.756 0 0 1-0.79-9.53c2.41-2.85 6.68-3.2 9.53-0.79 17.71 14.98 10.06 35.64 9.72 36.51-1.02 2.7-3.59 4.35-6.31 4.35zM720.38 829.07c-14.79 0-24.81-3.98-25.34-4.19l-4.97-2.02 0.84-5.3c1.77-11.21 0.27-31.28 0.26-31.48l13.48-1.03c0.06 0.76 1.22 16.3 0.27 28.77 14.06 3.49 55.86 8.01 88.65-48.55l11.7 6.78c-23.45 40.46-51.96 52.77-71.74 55.97-4.69 0.75-9.1 1.05-13.15 1.05z" fill="#FF0000" p-id="63925"></path><path d="M737.148 698.449l6.756-0.225 3.33 100.24-6.756 0.224zM717.689 698.449l6.756-0.225 3.33 100.24-6.756 0.225zM755.324 705.377l6.755-0.224 3.095 93.154-6.756 0.225zM773.246 704.4l6.756-0.224 3.122 93.964-6.756 0.224zM790.99 698.047l6.753-0.327 3.327 68.817-6.752 0.327zM809.038 697.93l6.747-0.432 3.332 52.126-6.746 0.431z" fill="#FF0000" p-id="63926"></path><path d="M701.127 784.858l133.615-88.36 3.729 5.638-133.615 88.36zM688.18 771.905l113.762-75.232 3.729 5.638-113.763 75.233zM720.381 727.052l42.178-26.763 3.622 5.708-42.178 26.764zM719.81 789.902l110.925-71.892 3.677 5.673-110.926 71.892zM794.87 656c-1.41-16.02 5.23-28.65 19.21-36.54 9.9-5.59 20.13-6.67 20.56-6.72l1.36 13.45-0.68-6.72 0.7 6.72c-0.08 0.01-8.17 0.92-15.61 5.22-9.05 5.23-13 12.88-12.07 23.4L794.87 656z" fill="#FF0000" p-id="63927"></path><path d="M797.738 580.255l6.185-2.728 19.78 44.84-6.185 2.728zM774.937 596.037l4.78-4.78 35.086 35.087-4.78 4.78zM764.54 616.28l3.576-5.737 37.83 23.583-3.576 5.736z" fill="#FF0000" p-id="63928"></path><path d="M800.86 647.52c-2.34-0.79-23.06-3.67-41.37-5.97l0.84-6.71c0.1 0.01 10.55 1.33 20.94 2.75 22.47 3.08 22.7 3.41 23.77 4.96l0.5 2.76-6.56-1.62c-0.47 1.9 0.81 3.47 1.88 3.83z" fill="#FF0000" p-id="63929"></path><path d="M760.52 588.92c-18.74 0-32.05-1.72-33.49-1.92l-4.57-0.62-1.1-4.47c-4.3-17.56-1.86-45.67 13.29-68.88 14.6-22.37 38.89-37.1 70.24-42.62 28.36-4.99 46.65-46.32 52.47-61.52-17.57-6.37-36.59 1.83-36.8 1.93l-0.3 0.13c-1.43 0.66-15.88 8.21-12.5 39.87l1.56 14.6-12.11-8.31c-1.8-1.24-44.25-30.84-49.51-75.08-2.86-24.06 5.83-47.52 25.81-69.73l9.62-10.69 2.09 14.23c0.14 0.91 3.97 23.34 29.05 31.77l1.85 0.62c30.51 10.25 72.29 24.28 87.44 56.6 7.69 16.41 7.38 35.6-0.94 57.02l-0.87-0.34c0.89 7.64 1.33 15.89 1.33 24.76 0 29.22-10 52.77-29.71 70-31.36 27.45-80.29 32.65-112.85 32.65z m-26.9-14.8c19.28 1.79 92.07 5.94 130.91-28.03 16.63-14.55 25.07-34.67 25.07-59.8 0-34.51-6.87-58.11-20.44-70.29-7.4 18.72-27.9 61.76-61.91 67.74-27.97 4.92-48.58 17.26-61.26 36.69-11.59 17.72-14.45 39.18-12.37 53.69z m42.42-243.51c-11.89 16.29-16.89 33.01-14.9 49.83 2.99 25.14 20.79 45.44 32.75 56.47 1.72-29.02 18.67-37.36 21.23-38.46 1.91-0.84 31.75-13.57 56.78 2.66 10.56 6.84 18.46 17.64 23.67 32.3 0.46-8.29-0.95-15.86-4.23-22.85-12.69-27.08-51.31-40.05-79.5-49.52l-1.86-0.62c-19.57-6.57-29.25-19.81-33.94-29.81z" fill="#FF0000" p-id="63930"></path><path d="M823.96 577.97l-12.83-4.26c8.67-26.12 8.13-45.76-1.59-58.36-14.08-18.23-43.3-16.56-43.6-16.55l-0.87-13.49c1.49-0.09 36.75-2.09 55.17 21.77 12.64 16.39 13.89 40.24 3.72 70.89z" fill="#FF0000" p-id="63931"></path><path d="M776.17 550.21m-4.47 0a4.47 4.47 0 1 0 8.94 0 4.47 4.47 0 1 0-8.94 0Z" fill="#19FF00" p-id="63932"></path><path d="M776.17 559.1c-4.9 0-8.88-3.98-8.88-8.88s3.98-8.88 8.88-8.88 8.88 3.98 8.88 8.88-3.98 8.88-8.88 8.88z m-0.06-8.89l0.07 0.07c0.04 0 0.07-0.03 0.07-0.07h-0.14zM800.39 537.06c-2.57 0-5.03-1.48-6.16-3.97-0.28-0.59-5.88-12.12-19.25-11.02-3.72 0.32-6.99-2.45-7.3-6.17a6.758 6.758 0 0 1 6.17-7.3c23.12-1.92 32.32 18.09 32.7 18.94a6.763 6.763 0 0 1-3.42 8.93c-0.88 0.4-1.82 0.59-2.74 0.59zM857.36 601.92l-3.16-4.34c-6.68-9.18-21.93-22.31-22.08-22.44l8.8-10.26c0.58 0.5 12.39 10.66 20.54 20.15 12.41-7.47 45.16-33.84 28.35-97.01l13.06-3.48c12.02 45.19 0.57 74.05-11.16 90.31-12.87 17.84-28.75 24.7-29.42 24.99l-4.93 2.08z" fill="#FF0000" p-id="63933"></path><path d="M802.7 480.645l4.619-4.936 73.24 68.525-4.62 4.936zM788.942 494.403l4.618-4.937 73.24 68.525-4.62 4.937zM820.456 472.676l4.618-4.936 68.062 63.68-4.618 4.937zM832.443 459.322l4.618-4.936 68.654 64.235-4.619 4.936zM840.513 442.241l4.544-5.005 51.02 46.307-4.543 5.006zM853.113 429.555l4.466-5.075 39.209 34.503-4.466 5.075z" fill="#FF0000" p-id="63934"></path><path d="M838.39 567.26l31.99-156.971 6.624 1.35-31.99 156.97zM820.08 567.262l27.236-133.649 6.625 1.35-27.237 133.649zM811.034 512.795l10.9-48.746 6.596 1.475-10.899 48.746zM855.121 557.653l27.586-129.272 6.611 1.411-27.586 129.272zM813.48 409.83c-12.32-10.33-16.56-23.96-12.26-39.42 3.05-10.95 9.51-18.95 9.79-19.29l10.47 8.55-5.24-4.27 5.25 4.26c-0.05 0.06-5.12 6.42-7.34 14.73-2.7 10.09-0.08 18.3 8.01 25.08l-8.68 10.36z" fill="#FF0000" p-id="63935"></path><path d="M761.962 354.168l2.444-6.303 45.697 17.717-2.444 6.303zM756.99 374.76h49.62v6.76h-49.62zM762.407 396.556l43.425-10.076 1.528 6.585-43.425 10.075z" fill="#FF0000" p-id="63936"></path><path d="M778.24 424.63l-4.14-5.34c34.35-26.67 35.2-26.51 37.07-26.16l2.31 1.6-5.79 3.49c1.01 1.67 3.02 1.88 4.03 1.38-2.22 1.1-18.9 13.72-33.48 25.03z" fill="#FF0000" p-id="63937"></path><path d="M713.06 411.81l-3.94-2.39c-15.46-9.38-33.61-30.98-39.31-58.1-5.49-26.14 1.26-53.73 19.54-79.8 16.53-23.58 0.23-65.74-6.4-80.6-16.92 7.91-24.57 27.17-24.66 27.39l-0.12 0.3c-0.54 1.48-5.43 17.03 19.36 37.03l11.43 9.22-14.44 2.68c-2.15 0.4-53.1 9.48-88.1-18.08-19.03-14.99-29.48-37.72-31.05-67.56l-0.76-14.36 11.54 8.58c0.75 0.54 19.31 13.7 43.01 1.93l1.75-0.87c28.82-14.33 68.29-33.95 101.85-21.81 17.04 6.17 30.39 19.96 39.66 40.99l-0.86 0.38c6.03 4.77 12.18 10.3 18.45 16.57 20.66 20.66 30.25 44.38 28.49 70.51-4.4 65.54-78.62 122.82-81.78 125.22l-3.66 2.77z m-16.77-224.22c8 18.47 23.94 63.4 4.13 91.68-16.3 23.26-22.15 46.56-17.38 69.26 4.35 20.72 17.5 37.92 29.23 46.7 14.9-12.37 69.3-60.9 72.74-112.39 1.47-22.05-6.79-42.24-24.56-60.01-24.4-24.39-45.94-36.22-64.16-35.24z m-126.2 5.47c3.11 19.9 11.38 35.25 24.65 45.73 19.82 15.65 46.82 17.44 63.12 16.8-19.28-21.72-13.2-39.6-12.16-42.18 0.76-1.95 12.86-32.04 42.03-38.27 12.3-2.63 25.53-0.58 39.58 6.1-5.54-6.18-11.89-10.54-19.14-13.17-28.13-10.18-64.6 7.96-91.23 21.2l-1.76 0.87c-18.51 9.19-34.71 6.67-45.09 2.92z" fill="#FF0000" p-id="63938"></path><path d="M766.79 340.15c-12.33-24.57-26.56-38.07-42.32-40.13-22.74-2.96-42.41 18.91-42.61 19.13l-10.15-8.93c0.99-1.12 24.52-27.45 54.41-23.62 20.52 2.64 38.27 18.61 52.75 47.48l-12.08 6.07z" fill="#FF0000" p-id="63939"></path><path d="M725.46 348.25m-4.47 0a4.47 4.47 0 1 0 8.94 0 4.47 4.47 0 1 0-8.94 0Z" fill="#19FF00" p-id="63940"></path><path d="M725.46 357.13c-2.37 0-4.6-0.92-6.28-2.6-3.46-3.46-3.46-9.1 0-12.56a8.82 8.82 0 0 1 6.28-2.6c2.37 0 4.6 0.92 6.28 2.6a8.82 8.82 0 0 1 2.6 6.28c0 2.37-0.92 4.6-2.6 6.28a8.82 8.82 0 0 1-6.28 2.6z m-0.05-8.84h0.09c0.02-0.02 0.02-0.07 0-0.09l-0.09 0.09zM699.56 331.58a6.7 6.7 0 0 1-4.36-1.6 6.756 6.756 0 0 1-0.79-9.53c14.98-17.71 35.64-10.06 36.51-9.72a6.75 6.75 0 0 1 3.89 8.73c-1.33 3.47-5.21 5.21-8.69 3.91-0.62-0.22-12.73-4.43-21.4 5.82a6.724 6.724 0 0 1-5.16 2.39zM819.43 327.4l-5.3-0.84c-11.24-1.77-31.28-0.27-31.48-0.26l-1.03-13.48c0.76-0.06 16.29-1.22 28.77-0.27 3.49-14.06 8.01-55.86-48.55-88.65l6.78-11.7c40.46 23.45 52.76 51.96 55.97 71.74 3.52 21.72-2.86 37.8-3.14 38.47l-2.02 4.99z" fill="#FF0000" p-id="63941"></path><path d="M694.794 273.545l100.24-3.33 0.225 6.756-100.24 3.33zM694.794 293.004l100.24-3.33 0.224 6.756-100.24 3.33zM701.723 255.368l93.154-3.094 0.224 6.756-93.154 3.094zM700.754 237.442l93.963-3.121 0.225 6.756-93.964 3.121zM694.282 219.65l68.817-3.328 0.327 6.752-68.818 3.328zM694.124 201.727l52.125-3.338 0.432 6.747-52.125 3.337z" fill="#FF0000" p-id="63942"></path><path d="M693.11 182.709l5.638-3.73 88.361 133.615-5.638 3.73zM693.292 215.5l5.639-3.729 75.233 113.763-5.639 3.729zM696.905 254.945l5.708-3.622 26.763 42.177-5.708 3.622zM714.576 186.801l5.672-3.677 71.893 110.913-5.672 3.676zM648.44 222.79c-14.06 0-25.21-6.64-32.4-19.39-5.59-9.9-6.67-20.13-6.72-20.56l13.45-1.38c0.01 0.08 0.92 8.16 5.22 15.61 5.23 9.05 12.88 13 23.41 12.07l1.18 13.47c-1.41 0.12-2.79 0.18-4.14 0.18z" fill="#FF0000" p-id="63943"></path><path d="M574.095 213.492l44.839-19.786 2.729 6.185-44.84 19.785zM587.822 237.749l35.086-35.086 4.78 4.78-35.086 35.086zM607.1 249.304l23.578-37.835 5.737 3.575-23.578 37.835z" fill="#FF0000" p-id="63944"></path><path d="M638.12 257.98l-6.71-0.84c5.43-43.14 6.15-43.63 7.72-44.71l2.76-0.5-1.62 6.56c1.89 0.46 3.46-0.81 3.82-1.88-0.79 2.35-3.66 23.07-5.97 41.37z" fill="#FF0000" p-id="63945"></path><path d="M447.34 459.02h0.66c12.79 5.76 19.19 12.44 19.19 20.05-3.31 9.45-4.96 18.09-4.96 25.92l1.32 0.69c7.94-11.29 12.24-16.94 12.9-16.94h1.98c0.66 0 1.32 0.69 1.99 2.07-13.68 28.58-20.51 43.9-20.51 45.97v33.18c0 2.07-0.22 4.84-0.66 8.3 0 0.46 0.22 0.69 0.66 0.69l-0.66 7.26v15.55c0 0.46-0.22 0.69-0.66 0.69 0 0.46 0.22 0.69 0.66 0.69l-1.32 23.85c0.44 0.92 0.66 1.62 0.66 2.07-0.44 5.99-1.88 8.99-4.3 8.99-11.25-5.53-16.87-13.71-16.87-24.54 0.44-4.15 0.66-7.6 0.66-10.37v-19.01c0-2.07 0.22-4.84 0.66-8.3-0.44-0.69-0.66-2.19-0.66-4.49h-0.66c-7.06 10.83-16.32 23.97-27.79 39.41-1.77 2.54-3.86 3.8-6.29 3.8h-1.32c-8.38-3.46-14.34-8.64-17.87-15.56 0-0.69-0.22-1.5-0.66-2.42 2.2-14.52 10.7-33.3 25.47-56.34 9.7-17.28 16.76-31.57 21.17-42.86h-0.66c-0.88 0-18.31 11.87-52.27 35.6-5.29 2.54-9.26 3.8-11.91 3.8-4.85 0-10.59-4.72-17.2-14.17-0.44-0.92-0.66-1.61-0.66-2.07 2.65-6.91 6.17-12.1 10.59-15.55h0.66c0.88 0 1.87 0.92 2.98 2.77v0.69c0 1.85-0.22 4.15-0.66 6.91 0.44 0.92 0.66 1.62 0.66 2.07 1.98 0 15-9.33 39.04-28l22.5-14.86c12.56-7.12 20.61-12.31 24.14-15.54z m-28.46 97.83l-1.32 5.88h0.66c13.67-14.75 20.51-24.2 20.51-28.34v-12.44h-0.66c-2.2 2.06-8.6 13.7-19.19 34.9z m23.49-187.35h0.66c7.28 0 17.87 8.18 31.76 24.54 4.85 6.22 7.28 11.06 7.28 14.52 0 5.76-5.52 11.75-16.54 17.97-3.97 1.85-12.46 4.03-25.47 6.57-9.92 3.92-15.77 5.88-17.53 5.88h-1.32c-1.11 0-1.65-0.46-1.65-1.38v-0.69c8.16-17.74 12.24-30.3 12.24-37.68l5.62-10.37c1.54-2.53 3.42-5.07 5.62-7.6l-6.29-6.57c0-0.7 1.87-2.43 5.62-5.19z m156.49 142.76c9.26 1.38 18.2 5.65 26.8 12.79 8.6 8.76 12.9 15.1 12.9 19.01 0 9.45-4.08 25.23-12.24 47.36-9.05 22.81-19.85 37.11-32.42 42.86-6.18 2.07-9.92 3.11-11.25 3.11H581c-12.57 0-23.16-4.96-31.76-14.86l-4.96 0.69h-0.66c-0.44 0-0.66-0.23-0.66-0.69l-1.65 0.69h-0.66c-5.29 0-9.71-3.92-13.23-11.75 2.65-2.07 4.52-3.11 5.62-3.11v-1.38c-3.75-1.38-6.4-2.07-7.94-2.07-1.32 0-4.08 0.69-8.27 2.07-3.75-1.84-5.96-3.11-6.62-3.8h-0.66c0 0.69 1.87 8.87 5.62 24.54 0.44 0.69 0.66 2.19 0.66 4.49-1.11 0.92-1.99 1.38-2.65 1.38-14.34-5.3-25.92-17.16-34.74-35.6-3.75-9.91-5.62-18.2-5.62-24.89h0.66l-0.66-1.73v-0.69c0-11.98 4.52-20.05 13.56-24.2l12.57-3.8c2.2 0.92 3.42 1.85 3.64 2.77v1.04c-6.62 4.84-9.93 9.68-9.93 14.52 0.44 1.16 0.66 1.96 0.66 2.42h0.66c1.1 0 11.69-4.95 31.76-14.86 17.2-6.45 36.39-14.29 57.57-23.5 7.28-4.17 12.46-8.43 15.55-12.81z m-103.55 66.71h-0.66c2.65 18.21 5.29 27.31 7.94 27.31 0.88-1.61 1.32-3.11 1.32-4.49 0-8.99-2.87-16.6-8.6-22.82z m64.51-190.12h0.66c6.83 0 14.23 5.88 22.17 17.63 0.44 0.92 0.66 1.61 0.66 2.07 0 2.77-7.61 7.49-22.83 14.17 0 0.69-4.96 4.61-14.89 11.75-21.17 20.05-31.76 31.92-31.76 35.6v2.42h1.32c14.77-13.36 35.4-23.04 61.87-29.04 8.38 2.54 15.88 8.76 22.5 18.67l0.66 3.46v1.73c0 6.22-5.85 12.56-17.53 19.01-1.11 0.46-1.88 0.69-2.32 0.69v1.73c9.48 7.6 14.23 13.48 14.23 17.63l-1.32 0.69h-4.3c-24.7 1.85-41.25 5.07-49.62 9.68-4.85 2.77-7.94 4.96-9.26 6.57v3.11c1.54 6.91 2.32 11.06 2.32 12.44l-1.65 0.69h-0.66c-7.28-1.38-15.99-8.75-26.14-22.12-4.19-9.68-6.29-22-6.29-36.99 0.22-6.91 0.66-10.37 1.32-10.37l-0.66-1.38c0-2.77 7.28-10.14 21.84-22.12 16.98-17.05 25.47-26.96 25.47-29.73-0.88-0.46-1.55-0.69-1.99-0.69-4.19 1.38-9.82 2.07-16.87 2.07-9.92 0-18.53-6.34-25.8-19.01v-1.04c0-0.69 0.77-1.38 2.32-2.07h2.65c1.1 0 4.74 1.04 10.92 3.11 25.78-5.52 40.11-8.97 42.98-10.36z m-19.19 168l-41.69 19.01c1.98 3.23 5.29 9.68 9.92 19.36 21.17-8.52 31.76-14.17 31.76-16.94l2.98-20.74-1.32-0.69h-1.65z m-16.87-70.52v1.38c1.76 11.06 3.42 16.59 4.96 16.59 1.99-2.53 8.6-7.26 19.85-14.17 9.92-8.99 15.55-16.36 16.87-22.12 0.66 0 1.65-1.26 2.98-3.8v-1.38h-0.66c-12.79 1.16-25.14 5.53-37.05 13.14-4.63 3.91-6.95 7.37-6.95 10.36z m5.62 116.15v0.69c3.53 1.62 5.4 2.42 5.62 2.42l0.66-1.38v-1.73l-0.66-1.38c-2.86 0.92-4.74 1.38-5.62 1.38z m29.78-53.24c1.32 9.68 2.32 15.33 2.98 16.94 0.66 2.54 1.76 3.8 3.31 3.8 4.41-1.38 7.28-2.07 8.6-2.07h0.66c9.92 3.92 14.89 8.53 14.89 13.83-1.11 1.85-11.69 6.11-31.76 12.79-1.11 1.16-2.32 5.07-3.64 11.75 4.19 0.92 9.81 4.84 16.87 11.75 6.83-2.76 15.11-11.17 24.81-25.23 8.82-19.82 13.56-35.6 14.23-47.36 0-0.46-0.22-0.69-0.66-0.69l0.66-3.46v-1.73c0-0.92-0.44-1.38-1.32-1.38-9.93 0-26.47 3.69-49.63 11.06z m2.98 22.13v-0.69h-1.65v0.69h1.65z" fill="#FF0000" p-id="63946"></path><path d="M503.95 327.01m-10.75 0a10.75 10.75 0 1 0 21.5 0 10.75 10.75 0 1 0-21.5 0Z" fill="#FF0000" p-id="63947"></path><path d="M472.14 330.33m-10.75 0a10.75 10.75 0 1 0 21.5 0 10.75 10.75 0 1 0-21.5 0Z" fill="#FF0000" p-id="63948"></path><path d="M441.39 339.12m-10.75 0a10.75 10.75 0 1 0 21.5 0 10.75 10.75 0 1 0-21.5 0Z" fill="#FF0000" p-id="63949"></path><path d="M412.64 353.12m-10.75 0a10.75 10.75 0 1 0 21.5 0 10.75 10.75 0 1 0-21.5 0Z" fill="#FF0000" p-id="63950"></path><path d="M386.75 371.9m-10.75 0a10.75 10.75 0 1 0 21.5 0 10.75 10.75 0 1 0-21.5 0Z" fill="#FF0000" p-id="63951"></path><path d="M364.52 394.89m-10.75 0a10.75 10.75 0 1 0 21.5 0 10.75 10.75 0 1 0-21.5 0Z" fill="#FF0000" p-id="63952"></path><path d="M346.62 421.39m-10.75 0a10.75 10.75 0 1 0 21.5 0 10.75 10.75 0 1 0-21.5 0Z" fill="#FF0000" p-id="63953"></path><path d="M333.59 450.6m-10.75 0a10.75 10.75 0 1 0 21.5 0 10.75 10.75 0 1 0-21.5 0Z" fill="#FF0000" p-id="63954"></path><path d="M325.83 481.62m-10.75 0a10.75 10.75 0 1 0 21.5 0 10.75 10.75 0 1 0-21.5 0Z" fill="#FF0000" p-id="63955"></path><path d="M323.58 513.52m-10.75 0a10.75 10.75 0 1 0 21.5 0 10.75 10.75 0 1 0-21.5 0Z" fill="#FF0000" p-id="63956"></path><path d="M326.9 545.33m-10.75 0a10.75 10.75 0 1 0 21.5 0 10.75 10.75 0 1 0-21.5 0Z" fill="#FF0000" p-id="63957"></path><path d="M335.7 576.08m-10.75 0a10.75 10.75 0 1 0 21.5 0 10.75 10.75 0 1 0-21.5 0Z" fill="#FF0000" p-id="63958"></path><path d="M349.7 604.83m-10.75 0a10.75 10.75 0 1 0 21.5 0 10.75 10.75 0 1 0-21.5 0Z" fill="#FF0000" p-id="63959"></path><path d="M368.48 630.72m-10.75 0a10.75 10.75 0 1 0 21.5 0 10.75 10.75 0 1 0-21.5 0Z" fill="#FF0000" p-id="63960"></path><path d="M391.47 652.95m-10.75 0a10.75 10.75 0 1 0 21.5 0 10.75 10.75 0 1 0-21.5 0Z" fill="#FF0000" p-id="63961"></path><path d="M417.97 670.85m-10.75 0a10.75 10.75 0 1 0 21.5 0 10.75 10.75 0 1 0-21.5 0Z" fill="#FF0000" p-id="63962"></path><path d="M447.17 683.88m-10.75 0a10.75 10.75 0 1 0 21.5 0 10.75 10.75 0 1 0-21.5 0Z" fill="#FF0000" p-id="63963"></path><path d="M478.2 691.63m-10.75 0a10.75 10.75 0 1 0 21.5 0 10.75 10.75 0 1 0-21.5 0Z" fill="#FF0000" p-id="63964"></path><path d="M510.1 693.89m-10.75 0a10.75 10.75 0 1 0 21.5 0 10.75 10.75 0 1 0-21.5 0Z" fill="#FF0000" p-id="63965"></path><path d="M541.9 690.57m-10.75 0a10.75 10.75 0 1 0 21.5 0 10.75 10.75 0 1 0-21.5 0Z" fill="#FF0000" p-id="63966"></path><path d="M572.65 681.77m-10.75 0a10.75 10.75 0 1 0 21.5 0 10.75 10.75 0 1 0-21.5 0Z" fill="#FF0000" p-id="63967"></path><path d="M601.41 667.77m-10.75 0a10.75 10.75 0 1 0 21.5 0 10.75 10.75 0 1 0-21.5 0Z" fill="#FF0000" p-id="63968"></path><path d="M627.29 648.99m-10.75 0a10.75 10.75 0 1 0 21.5 0 10.75 10.75 0 1 0-21.5 0Z" fill="#FF0000" p-id="63969"></path><path d="M649.52 626m-10.75 0a10.75 10.75 0 1 0 21.5 0 10.75 10.75 0 1 0-21.5 0Z" fill="#FF0000" p-id="63970"></path><path d="M667.42 599.5m-10.75 0a10.75 10.75 0 1 0 21.5 0 10.75 10.75 0 1 0-21.5 0Z" fill="#FF0000" p-id="63971"></path><path d="M680.45 570.3m-10.75 0a10.75 10.75 0 1 0 21.5 0 10.75 10.75 0 1 0-21.5 0Z" fill="#FF0000" p-id="63972"></path><path d="M688.21 539.27m-10.75 0a10.75 10.75 0 1 0 21.5 0 10.75 10.75 0 1 0-21.5 0Z" fill="#FF0000" p-id="63973"></path><path d="M690.46 507.37m-10.75 0a10.75 10.75 0 1 0 21.5 0 10.75 10.75 0 1 0-21.5 0Z" fill="#FF0000" p-id="63974"></path><path d="M687.14 475.56m-10.75 0a10.75 10.75 0 1 0 21.5 0 10.75 10.75 0 1 0-21.5 0Z" fill="#FF0000" p-id="63975"></path><path d="M678.35 444.82m-10.75 0a10.75 10.75 0 1 0 21.5 0 10.75 10.75 0 1 0-21.5 0Z" fill="#FF0000" p-id="63976"></path><path d="M664.35 416.06m-10.75 0a10.75 10.75 0 1 0 21.5 0 10.75 10.75 0 1 0-21.5 0Z" fill="#FF0000" p-id="63977"></path><path d="M645.57 390.18m-10.75 0a10.75 10.75 0 1 0 21.5 0 10.75 10.75 0 1 0-21.5 0Z" fill="#FF0000" p-id="63978"></path><path d="M622.58 367.95m-10.75 0a10.75 10.75 0 1 0 21.5 0 10.75 10.75 0 1 0-21.5 0Z" fill="#FF0000" p-id="63979"></path><path d="M596.08 350.05m-10.75 0a10.75 10.75 0 1 0 21.5 0 10.75 10.75 0 1 0-21.5 0Z" fill="#FF0000" p-id="63980"></path><path d="M566.87 337.02m-10.75 0a10.75 10.75 0 1 0 21.5 0 10.75 10.75 0 1 0-21.5 0Z" fill="#FF0000" p-id="63981"></path><path d="M535.85 329.26m-10.75 0a10.75 10.75 0 1 0 21.5 0 10.75 10.75 0 1 0-21.5 0Z" fill="#FF0000" p-id="63982"></path></svg>