<svg t="1699252116587" class="icon" viewBox="0 0 1024 1024" version="1.1" xmlns="http://www.w3.org/2000/svg" p-id="1108" width="48" height="48"><path d="M966.3858 74.269679m-37.11884 0a37.11884 37.11884 0 1 0 74.23768 0 37.11884 37.11884 0 1 0-74.23768 0Z" fill="#FFA500" p-id="1109"></path><path d="M815.9905 258.455923c-209.401456 209.401456-523.503641 224.376988-688.106496 388.851849-164.602856 164.602856-62.71804 286.583044-32.894972 316.406112 29.951064 29.951064 181.498328 113.532452 327.925752-32.894972C587.51764 766.344052 606.589044 467.857379 815.9905 258.455923zM217.481204 888.708228c-5.631824 0-11.135652-2.175932-15.35952-6.3998l-49.91844-49.91844c-8.447736-8.447736-8.447736-22.271304 0-30.71904 4.223868-4.223868 9.855692-6.3998 15.35952-6.3998 5.631824 0 11.135652 2.175932 15.35952 6.3998l49.91844 49.91844c8.447736 8.447736 8.447736 22.271304 0 30.71904-4.223868 4.351864-9.855692 6.3998-15.35952 6.3998z" fill="#FFA500" p-id="1110"></path><path d="M638.844036 563.726384c48.894472-119.420268 108.412612-208.505484 152.187244-264.567733 4.095872 1.663948 8.95972 0.767976 12.287616-2.55992l32.894972-32.894972c4.47986-4.47986 4.47986-11.647636 0-16.127496l-0.895972-0.895972c8.575732-9.343708 15.743508-16.63948 21.11934-22.015312l50.174432 50.174432c4.095872 4.095872 10.751664 4.095872 14.975532 0 4.095872-4.095872 4.095872-10.751664 0-14.975532l-49.91844-49.91844 29.695072-29.695072 49.91844 49.91844c4.095872 4.095872 10.751664 4.095872 14.975532 0 4.095872-4.095872 4.095872-10.751664 0-14.975532l-49.91844-49.91844 45.182588-45.182588c16.127496 0.63998 32.510984-5.247836 44.7986-17.535452 23.423268-23.423268 23.423268-61.566076 0-84.989344s-61.566076-23.423268-84.989344 0c-12.031624 12.031624-17.91944 28.031124-17.535452 43.902628l-23.423268 23.295272L831.99 36.638855c-4.095872-4.095872-10.751664-4.095872-14.975532 0s-4.095872 10.751664 0 14.975532L865.26896 99.868879l-29.695072 29.695072-48.254492-48.254492c-4.095872-4.095872-10.751664-4.095872-14.975532 0-4.095872 4.095872-4.095872 10.751664 0 14.975532l48.254492 48.254492-10.751664 10.751664c-0.127996 0.127996-0.255992 0.383988-0.511984 0.511984-0.127996 0.127996-11.263648 12.671604-32.894972 32.382988l-0.767976-0.767976c-4.47986-4.47986-11.647636-4.47986-16.127496 0L726.777288 220.185119c-3.1999 3.1999-4.095872 7.935752-2.687916 11.903628-56.062248 43.646636-145.147464 103.164776-264.439736 152.571232-94.71704 39.166776-193.785944 81.533452-273.143464 132.731853-85.373332 54.910284-139.771632 115.1964-166.266804 184.442236C-3.951877 764.680104-6.383801 822.278304 12.8156 872.96472c14.207556 37.374832 36.862848 61.822068 50.046436 75.133652l3.711884 3.711884 4.863848 4.863848c12.15962 12.415612 37.630824 38.142808 78.845536 53.886316 50.814412 19.327396 108.412612 16.895472 171.130652-7.295772 150.779288-57.982188 232.95272-233.336708 317.43008-439.538264zM200.201744 851.589388c1.023968 1.023968 2.687916 1.023968 3.711884 0l10.495672-10.495672 14.591544 14.591544c3.711884 3.711884 3.711884 9.855692 0 13.695572l-7.423768 7.423768c-3.711884 3.711884-9.855692 3.711884-13.695572 0l-61.310084-61.310084c-3.711884-3.711884-3.711884-9.855692 0-13.695572l7.423768-7.423768c3.711884-3.711884 9.855692-3.711884 13.695572 0l14.591544 14.591544-10.495672 10.495672c-1.023968 1.023968-1.023968 2.687916 0 3.711884 1.023968 1.023968 2.687916 1.023968 3.711884 0l10.495672-10.495672 5.75982 5.75982-10.495672 10.495672c-1.023968 1.023968-1.023968 2.687916 0 3.711884 1.023968 1.023968 2.687916 1.023968 3.711884 0l10.495672-10.495672 5.75982 5.75982-10.495672 10.495672c-1.023968 1.023968-1.023968 2.687916 0 3.711884 1.023968 1.023968 2.687916 1.023968 3.711884 0l10.495672-10.495672 5.75982 5.75982-10.495672 10.495672c-1.023968 1.023968-1.023968 2.687916 0 3.711884z m244.728352-436.082373c0.255992 0.767976 0.511984 1.407956 1.151964 1.91994l63.998 63.998-12.543608 12.543608-68.861848-68.989844c-0.895972-0.895972-2.047936-1.27996-3.327896-1.27996 6.527796-2.815912 13.055592-5.503828 19.583388-8.191744z m23.423268-9.727696c0.767976-0.383988 1.535952-0.63998 2.431924-1.023968l57.982188 57.982188-12.543608 12.543608-63.102028-63.230024c5.11984-2.175932 10.23968-4.223868 15.231524-6.271804z m35.1989-15.231524l48.63848 48.63848-17.27946 17.27946-55.422268-55.422268c8.191744-3.455892 16.255492-6.911784 24.063248-10.495672z m31.999-14.975532l40.190744 40.190744-17.27946 17.27946-46.334552-46.462548c7.935752-3.583888 15.743508-7.295772 23.423268-11.007656z m34.686916-17.535452l31.615012 31.615012-19.83938 19.83938-38.014812-38.014812c8.95972-4.47986 17.663448-8.95972 26.23918-13.43958zM321.669948 696.074248l4.863848-4.863848 5.75982 5.75982-4.863848 4.863848-5.75982-5.75982z m-0.383988 11.903628l-103.804756 103.804756-5.75982-5.75982 103.804756-103.804756 5.75982 5.75982z m11.51964-23.03928l4.863848-4.863848 5.75982 5.75982-4.863848 4.863848-5.75982-5.75982z m11.007656-11.007656l4.863848-4.863848 5.75982 5.75982-4.863848 4.863848-5.75982-5.75982z m11.135652-11.135652l4.863848-4.863848 5.75982 5.75982-4.863848 4.863848-5.75982-5.75982z m11.007656-11.007656l4.863848-4.863848 5.75982 5.75982-4.863848 4.863848-5.75982-5.75982z m11.135652-11.135652l4.991844-4.991844 5.75982 5.75982-5.11984 4.991844-5.631824-5.75982z m11.135652-11.135652l6.143808-6.143808 5.75982 5.75982-6.143808 6.143808-5.75982-5.75982z m12.415612-12.415612l6.143808-6.143808 5.75982 5.75982-6.143808 6.143808-5.75982-5.75982z m12.415612-12.415612l8.831724-8.831724 5.75982 5.75982-8.831724 8.831724-5.75982-5.75982z m15.103528-15.103528l8.831724-8.831724 5.75982 5.75982-8.831724 8.831724-5.75982-5.75982z m14.975532-14.975532l8.831724-8.831724 5.75982 5.75982-8.831724 8.831724-5.75982-5.75982z m15.103528-15.103528l8.831724-8.831724 5.75982 5.75982-8.831724 8.831724-5.75982-5.75982z m15.103528-15.103528l12.543608-12.543608 5.75982 5.75982-12.543608 12.543608-5.75982-5.75982z m18.687416-18.687416l12.543608-12.543608 5.75982 5.75982-12.543608 12.543608-5.75982-5.75982z m18.687416-18.687417l12.543608-12.543608 5.75982 5.75982-12.543608 12.543609-5.75982-5.759821z m18.687416-18.687416l12.543608-12.543608 5.75982 5.75982-12.543608 12.543608-5.75982-5.75982z m182.906284-218.745164l4.735852 4.735852-26.23918 26.23918-9.343708-9.343708c11.007656-7.423768 21.247336-14.591544 30.847036-21.631324z m8.447736 8.447736l5.75982 5.75982-26.23918 26.23918-5.75982-5.75982 26.23918-26.23918z m-58.23818 107.51664l-5.75982-5.75982 19.83938-19.83938 5.75982 5.75982-19.83938 19.83938z m23.551264-16.127496l16.895472 16.895472c-4.863848 8.063748-9.855692 16.383488-14.847536 24.95922l-22.015312-22.015312 19.967376-19.83938z m17.407456-43.774632l-24.31924 24.31924-5.75982-5.75982 24.31924-24.31924 5.75982 5.75982z m0.511984-11.903628l26.23918-26.23918 5.75982 5.75982-26.23918 26.23918-5.75982-5.75982z m-31.103028 42.494672l-19.83938 19.83938-5.75982-5.75982 19.83938-19.83938 5.75982 5.75982z m-26.111184 26.111184l-19.83938 19.83938-5.75982-5.75982 19.83938-19.83938 5.75982 5.75982z m-26.111184 26.111184l-19.83938 19.83938-5.75982-5.75982 19.83938-19.83938 5.75982 5.75982z m-25.983188 26.111184L577.405956 451.857879l-5.75982-5.75982 17.27946-17.27946 5.75982 5.75982z m-23.551264 23.551264l-17.27946 17.27946-5.75982-5.75982 17.27946-17.27946 5.75982 5.75982z m3.711884 3.711884l5.75982 5.75982-17.27946 17.27946-5.75982-5.75982 17.27946-17.27946z m6.271804-6.271804l17.27946-17.27946 5.75982 5.75982-17.27946 17.27946-5.75982-5.75982z m23.423268-23.423268l19.83938-19.83938 5.75982 5.75982-19.83938 19.711384-5.75982-5.631824z m26.111184-26.111184l19.83938-19.83938 5.75982 5.75982-19.83938 19.83938-5.75982-5.75982z m52.222368-52.222368l24.31924-24.31924 5.75982 5.75982-24.31924 24.31924-5.75982-5.75982z m30.591044-30.591044l26.23918-26.23918 5.75982 5.75982-26.23918 26.23918-5.75982-5.75982z m32.510984-32.510984l17.663448-17.663448 5.75982 5.75982-17.663448 17.663448-5.75982-5.75982z m-3.83988-3.711884l-5.75982-5.75982 17.663448-17.663448 5.75982 5.75982-17.663448 17.663448z m-9.471704-9.471704l-5.75982-5.75982 17.663448-17.663448 5.75982 5.75982-17.663448 17.663448zM694.138308 316.182119l-24.31924 24.31924-5.75982-5.75982 24.31924-24.31924 5.75982 5.75982z m-30.71904 30.591044l-19.83938 19.83938-5.75982-5.75982 19.83938-19.83938 5.75982 5.75982zM637.43608 372.884347l-19.83938 19.83938-5.75982-5.75982 19.83938-19.83938 5.75982 5.75982z m-26.111184 26.111184L591.35752 418.834911l-5.75982-5.75982 19.83938-19.83938 5.887816 5.75982z m-26.111184 26.111184l-17.27946 17.27946-5.75982-5.75982 17.27946-17.27946 5.75982 5.75982z m-23.551264 23.551264L544.382988 465.937439l-5.75982-5.75982 17.27946-17.27946 5.75982 5.75982z m-23.551264 23.423268l-12.543608 12.543608-5.75982-5.75982 12.543608-12.543608 5.75982 5.75982z m13.183588 13.183588l5.75982 5.75982-12.543608 12.543608-5.75982-5.75982 12.543608-12.543608z m9.471704 9.471704l57.854192 57.854193c-0.383988 0.767976-0.63998 1.663948-1.023968 2.431924-2.047936 5.11984-4.223868 10.23968-6.271804 15.231524l-63.102028-63.102029 12.543608-12.415612z m6.271804-6.143808l17.27946-17.27946 48.510484 48.510485c-3.583888 7.935752-7.03978 15.871504-10.495672 24.063248L567.03828 488.592731z m23.551264-23.551264l17.27946-17.27946L647.67576 487.696759c-3.711884 7.67976-7.423768 15.487516-11.007656 23.551264l-46.07856-46.206556z m23.423268-23.551264l19.83938-19.83938 31.35902 31.35902c-4.47986 8.575732-8.95972 17.407456-13.43958 26.367176l-37.75882-37.886816z m26.111184-26.111184l19.83938-19.83938 23.67926 23.67926c-4.735852 8.31974-9.471704 16.895472-14.07956 25.5992l-29.43908-29.43908z m52.222368-52.094372l24.31924-24.31924 10.111684 10.111684c-6.271804 9.471704-12.671604 19.327396-19.071404 29.695072l-15.35952-15.487516z m30.591044-30.71904l26.23918-26.23918 4.351864 4.351864c-7.03978 9.5997-14.207556 19.83938-21.631324 30.71904l-8.95972-8.831724z m32.382988-32.382988l17.663448-17.663448 1.023968 1.023968c-4.863848 6.271804-9.983688 12.927596-15.231524 19.967376l-3.455892-3.327896z m56.574232-44.542608l-16.63948 16.63948-6.015812-6.015812 16.63948-16.63948 6.015812 6.015812z m-26.367176 7.03978l-5.75982-5.75982 16.63948-16.63948 5.75982 5.75982-16.63948 16.63948z m-9.471704-9.471704l-5.75982-5.75982 16.63948-16.63948 5.75982 5.75982-16.63948 16.63948z m-9.471704-9.471704l-5.75982-5.75982 16.63948-16.63948 5.75982 5.75982-16.63948 16.63948z m7.167776-26.111184l-16.63948 16.63948-6.015812-6.015812 16.63948-16.63948 6.015812 6.015812z m-32.894972 32.766976L723.1934 268.055623l-3.83988-3.83988c7.03978-5.247836 13.823568-10.367676 20.095372-15.231524l1.407956 1.407956z m-66.685916 45.822568l10.495672 10.495672-24.31924 24.31924-15.743508-15.743508c10.23968-6.3998 20.095372-12.7996 29.567076-19.071404zM654.07556 337.301459L634.23618 357.140839 611.83688 334.997531c8.575732-4.991844 16.895472-9.983688 24.95922-14.847536l17.27946 17.151464z m-50.046436 2.175932l23.935252 23.935252-19.967376 19.967376-29.695072-29.695072c8.831724-4.735852 17.407456-9.471704 25.727196-14.207556zM513.791944 485.136839l5.75982 5.75982-12.543608 12.543608-5.75982-5.75982 12.543608-12.543608z m-13.055592 24.447236l-12.543608 12.543609-5.75982-5.75982 12.543608-12.543609 5.75982 5.75982z m-18.687416 18.687417l-12.543608 12.543608-5.75982-5.75982 12.543608-12.543608 5.75982 5.75982zM463.36152 546.958908l-8.831724 8.831724-5.75982-5.75982 8.831724-8.831724 5.75982 5.75982zM448.257992 561.93444l-8.831724 8.831724-5.75982-5.75982 8.831724-8.831724 5.75982 5.75982z m-14.975532 15.103528l-8.831724 8.831724-5.75982-5.75982 8.831724-8.831724 5.75982 5.75982z m-15.103528 15.103528l-8.831724 8.831724-5.75982-5.75982 8.831724-8.831724 5.75982 5.75982z m-15.103528 14.975532l-6.143808 6.143808-5.75982-5.75982 6.143808-6.143808 5.75982 5.75982z m-12.415612 12.415612l-6.143808 6.143808-5.75982-5.75982 6.143808-6.143808 5.75982 5.75982z m-12.415612 12.415612l-4.991844 4.991844-5.75982-5.75982 4.991844-4.991844 5.75982 5.75982z m-11.135652 11.263648l-4.863848 4.863848-5.75982-5.75982 4.863848-4.863848 5.75982 5.75982z m-11.135652 11.007656l-4.863848 4.863848-5.75982-5.75982 4.863848-4.863848 5.75982 5.75982z m-11.007656 11.135652l-4.863848 4.863848-5.75982-5.75982 4.863848-4.863848 5.75982 5.75982z m-11.007656 11.007656l-4.863848 4.863848-5.75982-5.75982 4.863848-4.863848 5.75982 5.75982z m-11.135652 11.135652l-4.863848 4.863848-5.75982-5.75982 4.863848-4.863848 5.75982 5.75982z m-11.007656 11.007656l-103.804756 103.804756-5.75982-5.75982 103.804756-103.804756 5.75982 5.75982z m-90.621168 116.988344l103.804756-103.804756 5.75982 5.75982-103.804756 103.804756-5.75982-5.75982z m109.948564-110.07656l4.863848-4.863848 5.75982 5.75982-4.863848 4.863848-5.75982-5.75982z m11.135652-11.007656l4.863848-4.863848 5.75982 5.75982-4.863848 4.863848-5.75982-5.75982z m11.007656-11.007656l4.863848-4.863848 5.75982 5.75982-4.863848 4.863848-5.75982-5.75982z m11.135652-11.135652l4.863848-4.863848 5.75982 5.75982-4.863848 4.863848-5.75982-5.75982z m11.007656-11.007656l4.863848-4.863848 5.75982 5.75982-4.863848 4.863848-5.75982-5.75982z m11.135652-11.135652l4.991844-4.991844 5.75982 5.75982-4.991844 4.991844-5.75982-5.75982z m11.135652-11.135652l6.143808-6.143808 5.75982 5.75982-6.143808 6.143808-5.75982-5.75982z m12.415612-12.415612l6.143808-6.143808 5.75982 5.75982-6.143808 6.143808-5.75982-5.75982z m12.415612-12.415612l8.831724-8.831724 5.75982 5.75982-8.831724 8.831724-5.75982-5.75982z m15.103528-15.103528l8.831724-8.831724 5.75982 5.75982-8.831724 8.831724-5.75982-5.75982z m14.975532-14.975532l8.831724-8.831724 5.75982 5.75982-8.831724 8.831724-5.75982-5.75982z m15.103528-15.103528l8.831724-8.831724 5.75982 5.75982-8.831724 8.831724-5.75982-5.75982z m15.103528-15.103528l12.543608-12.543608 5.75982 5.75982-12.543608 12.543608-5.75982-5.75982z m18.687416-18.687416l12.543608-12.543608 5.75982 5.75982-12.543608 12.543608-5.75982-5.75982z m18.687416-18.687416l12.543608-12.543609 5.75982 5.75982-12.543608 12.543609-5.75982-5.75982z m21.887316-3.071904l65.661948 65.661948c-2.55992 6.271804-5.247836 12.543608-7.807756 18.815412 0-1.023968-0.511984-2.047936-1.27996-2.943908l-68.989844-68.989844 12.415612-12.543608z m447.986-479.601013c14.463548 14.463548 14.463548 38.142808 0 52.734352s-38.142808 14.463548-52.734352 0-14.463548-38.142808 0-52.734352c14.591544-14.591544 38.142808-14.591544 52.734352 0zM910.06756 87.453267c2.815912 5.503828 6.527796 10.623668 11.007656 15.231524 4.47986 4.47986 9.343708 8.063748 14.71954 10.751664l-13.567576 13.567576L896.371988 101.148839 910.06756 87.453267z m-2.687916 54.3983l-7.295772 7.295772-25.087216-25.087216-0.767976-0.767976 7.423768-7.423768 25.727196 25.983188z m-48.126496-3.583888l0.767976 0.767976 25.087216 25.087216-7.295772 7.295772-25.855192-25.855192 7.295772-7.295772z m3.583888 48.254492l-7.295772 7.295772-25.087216-25.087216-0.767976-0.767976 7.423768-7.423768 25.727196 25.983188z m-47.9985-3.455892c0.127996 0.127996 0.255992 0.383988 0.511984 0.511984l24.831224 24.831224c-5.503828 5.503828-12.671604 12.7996-21.11934 22.015312l-26.367176-26.367176c9.343708-8.31974 16.767476-15.487516 22.143308-20.991344zM313.350208 981.889316c-134.011812 51.582388-202.87366-18.303428-225.528952-41.214712-1.791944-1.91994-3.1999-3.1999-5.11984-5.11984-22.911284-22.655292-92.7971-91.389144-41.214712-225.528952 25.087216-65.405956 75.133652-120.572232 157.307084-173.43458 65.149964-41.982688 144.507484-78.333552 223.609012-111.740509h-0.127996c-1.663948 1.663948-1.663948 4.47986 0 6.271804l68.861848 68.861848-12.543608 12.543609-75.51764-75.517641c-1.663948-1.663948-4.47986-1.663948-6.271804 0-1.663948 1.663948-1.663948 4.47986 0 6.271804l75.51764 75.517641-12.543608 12.543608-75.51764-75.517641c-1.663948-1.663948-4.47986-1.663948-6.271804 0-1.663948 1.663948-1.663948 4.47986 0 6.271804l75.51764 75.517641-8.831724 8.831724-75.51764-75.517641c-1.663948-1.663948-4.47986-1.663948-6.271804 0-1.663948 1.663948-1.663948 4.47986 0 6.271804l75.51764 75.517641-8.831724 8.831724-75.51764-75.517641c-1.663948-1.663948-4.47986-1.663948-6.271804 0-1.663948 1.663948-1.663948 4.47986 0 6.271804l75.51764 75.517641-8.831724 8.831724-75.51764-75.517641c-1.663948-1.663948-4.47986-1.663948-6.271804 0-1.663948 1.663948-1.663948 4.47986 0 6.271804l75.51764 75.517641-8.831724 8.831724-52.862348-52.862348c-1.663948-1.663948-4.47986-1.663948-6.271804 0-1.663948 1.663948-1.663948 4.47986 0 6.271804l52.862348 52.862348-6.143808 6.143808-54.270304-55.03828c-1.663948-1.663948-4.47986-1.663948-6.271804 0-1.663948 1.663948-1.663948 4.47986 0 6.271804l54.782288 54.782288-6.143808 6.143808-54.782288-54.782288c-1.663948-1.663948-4.47986-1.663948-6.271804 0-1.663948 1.663948-1.663948 4.47986 0 6.271804l54.782288 54.782288-4.991844 4.991844-18.943408-18.943408c-1.663948-1.663948-4.47986-1.663948-6.271804 0-1.663948 1.663948-1.663948 4.47986 0 6.271804l18.943408 18.943408-4.863848 4.863848-18.943408-18.943408c-1.663948-1.663948-4.47986-1.663948-6.271804 0-1.663948 1.663948-1.663948 4.47986 0 6.271804l18.943408 18.943408-4.863848 4.863848-18.943408-18.943408c-1.663948-1.663948-4.47986-1.663948-6.271804 0s-1.663948 4.47986 0 6.271804l18.943408 18.943408-4.863848 4.863848-18.943408-18.943408c-1.663948-1.663948-4.47986-1.663948-6.271804 0-1.663948 1.663948-1.663948 4.47986 0 6.271804l18.943408 18.943408-4.863848 4.863848-18.55942-19.327396c-1.663948-1.663948-4.47986-1.663948-6.271804 0s-1.663948 4.47986 0 6.271804l18.943408 18.943408-4.863848 4.863848-18.943408-18.943408c-1.663948-1.663948-4.47986-1.663948-6.271804 0s-1.663948 4.47986 0 6.271804l18.943408 18.943408-103.804756 103.804756-14.463548-14.71954c-12.671604-12.671604-33.406956-12.671604-46.07856 0l-7.423768 7.423768c-12.671604 12.671604-12.671604 33.406956 0 46.07856l61.310084 61.310084c12.671604 12.671604 33.406956 12.671604 46.07856 0l7.423768-7.423768c12.671604-12.671604 12.671604-33.406956 0-46.07856l-14.591544-14.591544 103.804756-103.804756 51.070404 51.070404c1.663948 1.663948 4.47986 1.663948 6.271804 0 1.663948-1.663948 1.663948-4.47986 0-6.271804l-51.070404-51.070404 4.863848-4.863848 51.070404 51.070404c1.663948 1.663948 4.47986 1.663948 6.271804 0 1.663948-1.663948 1.663948-4.47986 0-6.271804l-51.070404-51.070404 4.863848-4.863848 51.070404 51.070404c1.663948 1.663948 4.47986 1.663948 6.271804 0 1.663948-1.663948 1.663948-4.47986 0-6.271804l-51.070404-51.070404 4.863848-4.863848 51.070404 51.070404c1.663948 1.663948 4.47986 1.663948 6.271804 0 1.663948-1.663948 1.663948-4.47986 0-6.271804l-51.070404-51.070404 4.863848-4.863848 51.070404 51.070404c1.663948 1.663948 4.47986 1.663948 6.271804 0 1.663948-1.663948 1.663948-4.47986 0-6.271804L384.899972 670.73104l4.863848-4.863848 51.070404 51.070404c1.663948 1.663948 4.47986 1.663948 6.271804 0s1.663948-4.47986 0-6.271804l-51.070404-51.070404 4.991844-4.991844 51.070404 51.070404c1.663948 1.663948 4.47986 1.663948 6.271804 0 1.663948-1.663948 1.663948-4.47986 0-6.271804l-51.070404-51.070404 6.143808-6.143808 51.070404 51.070404c1.663948 1.663948 4.47986 1.663948 6.271804 0s1.663948-4.47986 0-6.271804l-51.070404-51.070404 6.143808-6.143808 52.990344 52.990344c1.663948 1.663948 4.47986 1.663948 6.271804 0 1.663948-1.663948 1.663948-4.47986 0-6.271804l-52.990344-52.990344 8.831724-8.831724 75.645636 75.645636c1.663948 1.663948 4.47986 1.663948 6.271804 0 1.663948-1.663948 1.663948-4.47986 0-6.271804l-75.645636-75.645636 8.831724-8.831724 75.645636 75.645636c1.663948 1.663948 4.47986 1.663948 6.271804 0 1.663948-1.663948 1.663948-4.47986 0-6.271804l-75.901628-75.51764 8.831724-8.831724 75.645636 75.645636c1.663948 1.663948 4.47986 1.663948 6.271804 0 1.663948-1.663948 1.663948-4.47986 0-6.271804l-75.645636-75.645636 8.831724-8.831724 75.645636 75.645636c1.663948 1.663948 4.47986 1.663948 6.271804 0 1.663948-1.663948 1.663948-4.47986 0-6.271804L492.288616 563.2144l12.543608-12.543608 75.645636 75.645636c1.663948 1.663948 4.47986 1.663948 6.271804 0 1.663948-1.663948 1.663948-4.47986 0-6.271804l-75.645636-75.645636 12.543608-12.543608 68.989844 68.989844c1.663948 1.663948 4.351864 1.663948 6.015812 0.127996C522.495672 782.08756 444.418112 931.458892 313.350208 981.889316z" fill="#9B5F4F" p-id="1111"></path></svg>