<svg t="1699281637600" class="icon" viewBox="0 0 1024 1024" version="1.1" xmlns="http://www.w3.org/2000/svg" p-id="157978" width="48" height="48"><path d="M398.222222 398.222222a227.555556 227.555556 0 1 0 455.139556 0A227.555556 227.555556 0 0 0 398.222222 398.222222z" fill="#3AAB4F" p-id="157979"></path><path d="M993.422222 716.686222L776.248889 358.968889a15.644444 15.644444 0 0 0-5.859556-5.603556 16.668444 16.668444 0 0 0-16.042666 0 15.672889 15.672889 0 0 0-5.859556 5.603556l-146.033778 240.497778-219.648-361.841778a20.650667 20.650667 0 0 0-7.736889-7.395556 21.987556 21.987556 0 0 0-21.162666 0 20.650667 20.650667 0 0 0-7.736889 7.395556L59.733333 709.404444a19.342222 19.342222 0 0 0 0 20.110223c1.848889 3.072 4.551111 5.603556 7.736889 7.367111a21.987556 21.987556 0 0 0 10.581334 2.673778h901.489777a16.64 16.64 0 0 0 8.021334-2.048 15.644444 15.644444 0 0 0 5.859555-5.575112 14.705778 14.705778 0 0 0 0-15.246222z" fill="#59C36B" p-id="157980"></path><path d="M955.648 813.226667H121.884444a10.24 10.24 0 0 1-5.802666-2.901334 7.793778 7.793778 0 0 1-2.304-5.404444c0-1.991111 0.824889-3.925333 2.275555-5.461333a10.211556 10.211556 0 0 1 5.831111-2.901334h833.763556a11.235556 11.235556 0 0 1 7.964444 1.877334c1.109333 0.768 1.991111 1.763556 2.56 2.901333a7.509333 7.509333 0 0 1 0 7.111111 8.732444 8.732444 0 0 1-2.56 2.901333 11.235556 11.235556 0 0 1-7.964444 1.848889z m-71.480889 39.992889H164.636444a11.292444 11.292444 0 0 1-7.907555-1.905778 8.675556 8.675556 0 0 1-2.531556-2.901334 7.509333 7.509333 0 0 1 0-7.082666 8.704 8.704 0 0 1 2.56-2.872889 11.292444 11.292444 0 0 1 7.879111-1.905778h719.530667a11.292444 11.292444 0 0 1 7.879111 1.905778 8.675556 8.675556 0 0 1 2.56 2.872889 7.480889 7.480889 0 0 1 0 7.111111 8.647111 8.647111 0 0 1-2.56 2.844444 11.292444 11.292444 0 0 1-7.879111 1.905778z" fill="#7EDBBC" p-id="157981"></path></svg>