<svg t="1699276186565" class="icon" viewBox="0 0 1024 1024" version="1.1" xmlns="http://www.w3.org/2000/svg" p-id="13865" width="48" height="48"><path d="M0.00002 512L512.00002 0 1024.040975 512 512.00002 1024z" fill="#DD3333" p-id="13866"></path><path d="M0.24575 511.897612l114.387554-114.387553 114.408031 114.387553L114.633304 626.264688zM795.3273 511.959045l114.387554-114.387554 114.387553 114.387554-114.387553 114.387553z" fill="#FFDA71" p-id="13867"></path><path d="M61.391693 512L511.856677 61.535016 962.321661 512 511.856677 962.464984z" fill="#ED4A4A" p-id="13868"></path><path d="M471.147322 485.993521c-11.672199 10.853098-35.630924 32.354517-47.712674 42.593289a433.91913 433.91913 0 0 1 45.66492 87.234331l-21.706196 13.924729-6.757589-1.228652h-117.74587V593.910171h98.292205A327.640683 327.640683 0 0 0 307.32698 464.08255a136.994761 136.994761 0 0 0 18.83934-36.654801A363.066832 363.066832 0 0 1 376.541075 471.044915v-150.91949h38.088229v174.468664A581.357437 581.357437 0 0 0 453.127084 450.567372l18.429789 25.596928v-156.038875h36.040475v18.634564h144.776227v-17.610687h37.269128v185.936088H471.147322z m-55.289365 158.905731a515.010199 515.010199 0 0 1-32.968844 58.975323l-30.511539-13.515178a487.775067 487.775067 0 0 0 32.149742-61.432628z m53.446386 42.183738v-33.173619h222.181338v33.378394z m23.344399-56.518018v-100.74951h178.154621v100.74951z m68.190217-155.8341v-36.654801h-53.446386v36.654801z m-53.446386-66.552013h53.446386v-38.08823h-53.446386zM634.967664 560.736552h-107.5071v39.112106H634.967664z m17.201135-122.865257H596.060332v36.654802h56.108467z m-56.108467-67.780666v37.883454h56.108467v-37.883454z" fill="#FFDA71" p-id="13869"></path></svg>