<svg t="1699276300195" class="icon" viewBox="0 0 1024 1024" version="1.1" xmlns="http://www.w3.org/2000/svg" p-id="20320" width="48" height="48"><path d="M512 127.9s-44.2 324.2 0 368.3c44.2-44.1 0-368.3 0-368.3zM599.5 769.1c-23.8-12.1-49.7-15.6-67.1-16.4-12.1-0.5-20.4 0.2-20.4 0.2s-8.2-0.7-20.4-0.2c-17.4 0.8-43.3 4.3-67.1 16.4-0.2 0.1-0.3 0.2-0.5 0.3 0.2 0.6 13.6 42.6 88 42.6 74.3 0 87.8-42.1 88-42.6-0.2-0.1-0.3-0.2-0.5-0.3z" fill="#FF9A98" p-id="20321"></path><path d="M512 52c-187.2 0-339.6 159.8-339.6 356.2 0 57.5 5.8 120.1 10.7 161.8 1.7 19.7 4.2 38.8 7.3 56l2.2 15.5 0.8 0.3C233.7 836.9 363.2 972 512 972c152.3 0 284.4-141.5 321.5-345.1 3.3-18.1 5.8-37.3 7.4-56.3 4.9-42.3 10.7-104.9 10.7-162.5C851.6 211.8 699.2 52 512 52zM236.9 306.9c21.2 40.8 64.2 107.5 118.2 107.5 77.9 0 60.2 85.1-8.3 55-60.3-26.5-72-79.7-124.4-96.2 2.5-23 7.5-45.1 14.5-66.3zM424 517.5s-29.3 40.1-105-10.4c0 0.1 101.9-30.4 105 10.4z m197.9 374.3c-34 20.7-71.2 32.2-109.9 32.2s-75.9-11.5-109.9-32.2c-29.1-69.9-8.8-105 22-122.4 0.2-0.1 0.3-0.2 0.5-0.3 23.8-12.1 49.7-15.6 67.1-16.4 12.1-0.5 20.4 0.2 20.4 0.2s8.2-0.7 20.4-0.2c17.4 0.8 43.3 4.3 67.1 16.4 0.2 0.1 0.3 0.2 0.5 0.3 30.6 17.4 50.9 52.4 21.8 122.4z m171.2-325.9c-1.5 18.2-3.9 35.9-6.9 52.5l-0.1 0.7c-13.5 74.1-40.7 138.7-76.9 189.3 5.5-77.8-59.1-93.3-74.6-149-15.9-57.4-59.5-74.7-67.8-65.1-8.3 9.7 33.9 53.3 22.1 80.3-11.8 27-27.1 10.6-35.3-4.8-11.1-20.8-19.4 21.5-41.6 21.5-22.2 0-30.5-42.2-41.6-21.5-8.2 15.4-23.5 31.8-35.3 4.8-11.8-27 30.5-70.6 22.1-80.3-8.3-9.7-51.9 7.6-67.8 65.1-15.4 55.6-80 71.2-74.6 148.9-36.3-50.7-63.5-115.5-77.1-189.9-3-16.7-5.3-34.3-6.9-53.2-2.4-21-5.1-47.2-7.1-75.2 25.6 46.6 74.5 95.7 166.7 95.7 55 0 56.1-52.9 56.1-104.8s3.1-121.5-29.1-121.5-32.2 42.6-64.4 21.8c-29.8-19.2-49.9-47.7-53.5-183.4 53.2-60 128.7-97.8 212.4-97.8s159.2 37.8 212.4 97.8c-3.6 135.7-23.7 164.2-53.5 183.4-32.2 20.8-32.2-21.8-64.4-21.8s-29.1 69.6-29.1 121.5c0 51.9 1 104.8 56.1 104.8 92.3 0 141.1-49.1 166.7-95.7-1.9 28.1-4.5 54.5-7 75.9z m-88.4-58.7C629.2 557.7 600 517.5 600 517.5c3.1-40.8 104.7-10.3 104.7-10.3z m-27.6-37.8c-68.5 30.1-86.2-55-8.3-55 54.1 0 97-66.7 118.2-107.5 7 21.2 12 43.3 14.5 66.3-52.3 16.6-64 69.7-124.4 96.2z" fill="#F6554D" p-id="20322"></path></svg>