<svg t="1699279031040" class="icon" viewBox="0 0 1024 1024" version="1.1" xmlns="http://www.w3.org/2000/svg" p-id="119973" width="48" height="48"><path d="M513.3 932.4c-100.7 0-187.2-61.5-224.6-149.4 19.4 57.8 60.4 105.6 113.2 133.7 19.9 30.1 61.5 50.7 109.6 50.7 47.8 0 89.1-20.4 109.2-50.1 44.5-23.4 80.7-60.7 102.8-106.1-42.3 72.6-120.6 121.2-210.2 121.2z" fill="#A80014" p-id="119974"></path><path d="M588.9 74.5c-0.4-0.1-0.8-0.2-1.2-0.2 0.4 0.1 0.8 0.2 1.2 0.2zM599 123.3c0.2-0.4 0.3-0.8 0.5-1.2-0.2 0.4-0.4 0.8-0.5 1.2z" fill="#231815" p-id="119975"></path><path d="M609.5 462.8c-18.7-48.7-29.1-102.7-29.1-159.6 0-74.5 17.8-144 48.7-203-27.9-17.4-55.7-24.4-91.7-24.4-25.7 0-60.2 7.5-83.6 14.5 26.6 55.9 42.7 120.4 41.8 189.1-1.4 99.7-75.4 182.7-82.7 206.2 21.4 19.4 96.6 0 127.1 0 25.8 0 49.7-8.4 69.5-22.8z" fill="#CC0019" p-id="119976"></path><path d="M686 547.3c-2.7-2.8-5.4-5.6-8-8.4-3.1-3.3-6.1-6.7-9-10.1-16.7-19.2-31.4-40.1-44-62.3l-1.8-3.3c-25.7 18.3-58.7 29.3-94.6 29.3-43.6 0-82.7-16.1-109.9-41.9-2.2 3.6-4.4 7.2-6.7 10.8-15.4 23.9-33.4 46-53.7 66-0.8 0.7-1.5 1.3-2.3 2-4 3.5-7.8 7.2-11.5 11-42 42.8-68 101.7-68 166.6 0 26.6 4.4 52.1 12.4 76 37.4 87.9 123.8 149.4 224.6 149.4 89.6 0 167.9-48.7 210.4-121.2 15.3-31.4 23.9-66.8 23.9-104.1-0.2-61.6-23.5-117.7-61.8-159.8z" fill="#CC0019" p-id="119977"></path><path d="M623.2 463.3c-4.3-7.7-8.3-15.5-12-23.5-24 14.4-53.2 22.8-84.7 22.8-37.1 0-71.1-11.7-97.1-31.1-3.4 6.5-8.9 16.6-12.6 22.9 26 28.3 68.2 38.2 111.8 38.2 35.9 0 68.9-11 94.6-29.3z" fill="#FFBE92" p-id="119978"></path><path d="M627.4 75.7m-10 0a10 10 0 1 0 20 0 10 10 0 1 0-20 0Z" fill="#231815" p-id="119979"></path><path d="M671.3 612.2c2.3 0 4.6-0.2 6.9 0.1 1.9 1.7 3.2 4.2 5.6 5.4 2 1 4 1.7 6.1 2.6-1.4-5.9-4.5-11.4-4.8-17.5 3.3 2.7 4.3 7 6.1 10.7 0.2-6.9-1.2-13.7-0.5-20.6 4.5 8.8 3.7 19 6.1 28.4 0.8-3.2 1-7.1 4-9.2 0.3 5.8-0.3 11.8 2 17.3 0.5-3.1 0.9-6.3 1.4-9.4 2.7 4.6 2.4 10 3.5 15.1 1 5 1.2 10.1 1.3 15.2-0.1 4.2 2.7 7.7 3.2 11.8-7.3-1-10.9-7.8-16-12.2 0.8 5.7 4.3 10.5 7.8 14.8 2.8 4.1 5 8.7 8.2 12.6-0.7-2.1-1.5-4.1-2.2-6.2 4.4 2.4 7.2 6.6 10.5 10.2-1-3.7-2.7-7.1-4.6-10.3l0.3 2.9c-5.7-4.1-10.9-8.9-14.9-14.7 5.1 1.9 9.3 5.5 13.2 9.3-1-3.9-2.3-7.7-2.8-11.7-0.6-4.5 0-9.1 0.3-13.6 0-1.5 0.8-2.7 1.4-4 0.1-3.1 0.2-6.1 0.5-9.2 4.5 6.4 2.5 14.5 3.7 21.7 1.5-2.9 1.4-6.5 3.4-9.1-1.8-7-2.4-14.5-6.1-20.9-2.2-3.9-2.6-8.4-2.3-12.8 1.6 3.3 1.9 7 3.2 10.4 2.5 6.5 5.1 13.1 5.9 20 1.3 0.5 2.6 1 3.9 1.6-0.4-1.3-0.8-2.5-1.3-3.7 1.3 0.3 2.6 0.6 3.9 0.8l-2.1 2.7c0.8 0.8 3.4 2.1 2.2 3.5-1 0.7-2.2 1-3.3 1.1 0.4-2 0-3.7-2.1-4.5 0.6 2.4-0.5 4.3-1.9 6.1l2.4-0.8c1.5 0.7 3 1.5 4.6 2 0.1-0.5 0.4-1.5 0.6-1.9 0.2 0.1 0.5 0.4 0.7 0.5 0.9 3.7 2 7.4 3.8 10.9-1.9-0.9-3.8-1.7-5.7-2.5-0.3 1.4-0.6 2.7-0.9 4.1 0.4-0.6 1.2-1.9 1.6-2.5 1.7 0.6 3.4 1.2 5.2 1.4 4.1 7.2 9.4 14.1 10.8 22.5-0.7 0-2 0.1-2.7 0.2 0.8 1.6 2.1 2.2 3.9 2 0 2 0.1 4 0 6-5.4-3.8-8.5-9.9-12.4-15-4.7-6.3-8.1-13.3-12.1-20-0.3 2.1-0.5 4.1-0.8 6.2 0.8-0.8 1.5-1.6 2.3-2.4 2.4 3.9 0.2 8.6 0.6 12.9 0.8-2.6 1.1-5.5 2.5-7.8 1.5 6.1-0.2 12.6 1.2 18.7 0.7-1.9 1.1-4 2.4-5.6 1.6 5.7 1.1 11.7 2 17.6 0.3-2.8 0.6-5.6 1-8.3 3.3 3.6 2.5 8.9 3.5 13.3 0.7 7.5 8.3 11.4 10.3 18.4-2.9-1.7-4-5-6.2-7.4-3.9-2.4-8.3-3.9-11.9-6.8 3.2 4.4-0.3 9.9-3.6 13 0.2-3.5 0.5-7.1 0.7-10.6l-0.9-0.1c-0.6 5.4-3.4 10.2-5.9 14.9-0.5 0.2-1.4 0.7-1.9 0.9-0.4 2.1-0.9 4.1-1.9 5.9-0.4-2.4-0.7-4.8-1.1-7.1-1.6 4.9-1.6 10.4-4.9 14.7-0.3-9.5 1.1-19.1 4.4-28.1-4 4.5-5.8 10.6-10.5 14.6 0.5-4.5 2.2-8.7 3.5-13-0.8 0.4-1.7 0.7-2.5 1.1-0.4 6.3-3.1 12.1-5 18.1 2.2-0.6 4.6-1.8 6.9-0.9 2.3 1.1 2.9 4.2 2.1 6.4-1.7 5.4-7.5 7.7-12 10.4 1.5 1.4 2.6 3.2 2.9 5.3-1.8 1-3.8 1.9-5.5 3.2-1.5 1.3-1.6 4.2-4 4.2-1.2-0.2-2.4-0.5-3.6-0.7 1.7 1.1 3.7 1.3 5.6 1.7 1.1-1.8 2.1-3.6 3.2-5.3 2.7 0.8 0.6 4.2 0.5 6-2.6 1.2-5.6 2.1-8.2 0.5-3.2-1.6-3.3-5.5-3.6-8.6-1.9-0.3-3.9-0.9-5.9-0.5-3.3 0.7-6.5-0.7-9.7-0.9-0.2 2.6-0.1 5.2 0 7.8-2.7-3.1-4.8-6.8-7.9-9.6-6.5-4.5-13.9-7.6-21.4-10.2 1.4 2 2.8 4.2 3.9 6.4-6-2.2-11.6-5.4-17.1-8.6-4-2.3-8.5 0.3-11.9 2.5 0 0.2 0.1 0.7 0.1 0.9 3.3 0.9 5.4 3.5 6.4 6.7-1.9-1.2-3.6-2.9-5.5-4.1-2.4-1-5.1-0.6-7.6-0.3 6 2.2 11.8 4.9 17.7 7.2-6.9 2-12.3-5.1-19.2-3.9-7.3-0.3-12.4 5.3-17.3 9.8 4.5 0 6.8 4 9.4 7-2.7 0.1-5.4 0.7-8.2 0.7-3.2-0.7-6.2-2.6-9.6-1.9-2.5 0.4-3.5 3-5.5 4.3-2 1.3-4.5 2-5.9 4.2-3.7 5.6-6.7 11.8-11.5 16.6-5.6 5.9-8.7 14.6-6.5 22.6 1.9 0.4 3.8-0.4 5.4-1.4 3.5-2.5 8.1-4.9 7.9-9.9-3.2-1.2-6.6-2.5-8.4-5.7 0.9-1.9 1.5-3.9 2.9-5.5 1.6-0.9 3.5-1.2 5.3-1.6-0.1 1.9-1.8 2.9-3 4-1.7 1.2-0.9 3.6-1.3 5.3 0.8-1.9 1.1-4.2 2.8-5.6 1.1 0.2 2.1 0.5 3.2 0.8-0.9-1.3-2.7-3.2-0.2-4 2.1 1 4.8 2.8 4.1 5.5-0.6 2.7-2.6 4.9-4 7.3 3.3-1.5 6.4-3.7 8.7-6.5 0.6-2.2-0.2-4.8 1.5-6.5-0.2-0.2-0.7-0.7-1-0.9 0.4-0.2 1.3-0.5 1.7-0.6 1.4 1 2.9 1.9 4.2 2.9 2.9-2.4 5.6-5 8.6-7.2-0.4 1.6-0.3 3.2 0.3 4.7-1.6 0.2-3.3 0.1-4.9 0.7-2.2 2.4-4.4 4.8-6.9 6.8l3.3 1.8c-0.5 1.3-0.9 2.7-1.4 4-1.9-0.5-3.7-1.1-5.6-1.7-3.3 2.1-6.5 4.8-7.6 8.7 9.8-0.2 18.6-4.9 28.2-6.3-0.4-2.4-1.1-4.9-0.3-7.2 0.3-2.7 3.6-2.5 5.5-3.5 1.6-3.5 4.7-5.8 8.2-7.2 3.8-2.7 8-5.5 9.8-9.9 4.6-2.1 6.2-7.5 10.5-9.9-0.9 1.8-1.7 3.7-1.8 5.7-0.4 0.3-1.3 0.8-1.7 1.1-0.1 0.6-0.4 1.7-0.6 2.3-3.4 2.1-6.2 5-8.5 8.2 0.4 0.5 1.2 1.4 1.6 1.8-1.5 0.9-2.9 1.8-4.4 2.7 0.9 1.2 1.9 2.3 2.8 3.5 1.7 0.5 3.3 1.1 5 1.6 0.7-2.4 0.8-5.3 3.2-6.8-0.1 1.3-0.3 2.5-0.5 3.8 2.6-1.5 4.9 0.1 7 1.6-0.4-1.3-0.8-2.5-1.3-3.7-1.4-0.8-2.9-1.3-4.4-2.1 0.7-0.2 2.2-0.7 2.9-0.9 3-3.1 6.3-5.9 9.2-9 0.4 0.2 1.3 0.6 1.7 0.8-2.2 2.1-4.1 4.6-4.5 7.7 3 1.5 5.9 3.3 9 4.7 1 0.6 2.1-0.5 2.9-1.1 4.5-3.8 5.4-10.6 10.6-13.8-1.9 5-5.2 9.3-7.2 14.3 4.1-0.1 8.7 0.5 12.2-2 1.6-3.2-2.1-6.7-0.3-9.9 0.9-2.6 3.9-2.5 6.1-2.7-1.6 1.6-3.3 2.9-5 4.2 2 0.5 4 1.1 6 1.7 0-1.7 0.1-3.5 0.1-5.2 3.2 1.5 2.8 6.3 0.4 8.3-1.7 1.4-3.6 2.4-5.4 3.6 3.8 0.1 7.6-0.6 11.2-1.8 2.4-0.7 4.8-1.9 7.3-1.3-2.4 1.6-5.2 2.4-7.9 3.2-0.5 1.4-0.5 3-1.5 4.1-1.5-0.8-2.4-2.3-3.5-3.5-6.7 1.8-13.6 2.3-20.4 3.4 3.8 3.9 7.2 9.4 13.3 9.3-1.4 1.5-3.3 2.2-5.3 2.2-1 1.6-2.1 3.3-3.1 4.9-0.7-0.2-2.2-0.5-2.9-0.7-0.2-0.6-0.7-1.7-1-2.3-3.9 3.3-9.2 3.9-14.1 4.3 0.7-1.3 1.3-2.6 2-3.8 1.1 0.2 2.1 0.4 3.2 0.6-1.9-1.7-4.2-1.6-6.3-0.4 0.2 0.4 0.7 1.2 0.9 1.6-0.6 0.5-1.9 1.4-2.5 1.8 1 0.1 2.9 0.3 3.8 0.4-1.5 1.3-2.9 3.1-5.1 3.1-1.7 0.1-3-1.1-4.4-1.7 0-0.5 0.1-1.6 0.1-2.1-3.3-0.8-5.2-3.7-7.5-5.9-0.8 2.1-1.2 4.4-2.1 6.5-1.2 1.2-2.7 2.1-4 3.2 3.1 2.3 7.1 2.3 10.6 3.5l-0.8 1.3c-3.8 0.1-7.7 0.1-10.9 2.5-3.6-2.1-7.5-3.3-11.6-3.7l0.1-0.7c2.2-0.3 4.4-0.3 6.5-1.1 0.6-1 1-2.1 1.4-3.2-3.9 0.1-8.1 0.2-10.6-3.3-6.3 0.5-12.4 2.4-18.3 4.7 2.4 1.8 5.2 3.6 6.1 6.6-2.6-0.8-4.5-2.9-6.7-4.4-1.5 0-2.9 0.5-4.4 0.8 3 1.3 6.5 1.7 9 4.1-4.9-0.9-9.5-2.7-14.5-3 0.1-0.5 0.4-1.6 0.5-2.1h-0.6c1.2 3.3-3.7 1.9-3.8 4.3 1.8 1 3.6 1.9 5.4 2.9-4.6 2.1-9.6-0.5-14.4 1.1-4.1 1.3-7.9-1.2-12-1.2-3.6-0.1-7.3 0.7-10.9 0-1.9-1.1-3.4-2.8-5-4.3-1.9-0.2-4.5 0.7-5.8-1.2-2-3 0.1-6.9-1.1-10.2-1.2-1.9-3-3.4-4.5-5 2.5-1.5 5-3.2 7.4-4.9 2.5 2.4 5.1 5.3 8.8 5.5 2.6 0.1 4.2 2.4 6.2 3.8-0.3-1.7 0.2-3.6-1-5-1.7-2.8-5.1 0-7.4 0.4-2.2-2.5-4-5.5-6.9-7.2-2.3 1-3.6 3.3-5.8 4.4-3.5 0.4-6.9-1.8-8.9-4.6-1.6-3.1-0.2-6.6 0.4-9.7 3.2-1.5 6.5-3.1 8.8-5.8-3.5 1.1-7.4 2.3-9.8 5.3-2.5 3.9-1.4 9.2 1 12.9 2.8 3.8 7.1 6.2 9.9 10 1.9 3.1 1.4 7.1 0.3 10.4-1.6 1.7-4.4 0.4-5.8-1-3-3.1-1.9-7.8-1.8-11.6-2.7-1.5-5.5-2.9-7.5-5.3-3.9-5.7-4.8-12.7-7-19.1-0.6 1-1.3 2-1.7 3.1 0.4 2.5 2.1 4.6 2.7 7.1 0.6 2.1 0.6 4.5 2 6.3 2.6 3.7 6.7 5.9 9.7 9.2-0.7 3.8-0.5 7.8 0.3 11.6-3.2-0.9-5.3-3.5-6.1-6.6-1.1-4.8-5.9-6.9-8.4-10.8-1.5-2-2-4.5-3-6.8-2.5-0.1-1.6 4.2-1.8 6 2.2 4.6 7.8 6 11 9.7 1.2 2.1 1.4 4.7 1.9 7.1-2.3 0.7-4.5 2-6.9 1.8-2.4-0.9-4.6-2.6-7.2-2.7-3.9-0.1-7.9-2.1-9.5-5.7-0.7 0.9-1.4 1.8-2.2 2.7-1.1-2.8-0.9-6.1-2.5-8.7-2.1-2.6-4.9-4.7-7.7-6.5 0.7 1.6 0.7 3.8 2.4 4.7 2.1 1.5 6 2.8 5 6.1-0.8 2.4-3.5 2-5.4 1.5-4.4-1.4-9.1 1.7-13.3-0.8-2.6-1.1-2.7-4.1-2.9-6.4-4.6-4.5-9.5-8.7-14.2-13.2 1.3 6 7.6 8.3 10.5 13.1-4-2.2-7.5-5.1-10.9-8-4.9-4.4-10.7-7.9-15.5-12.4-3.5-3.2-5.7-7.7-10.1-9.8 1.1 5.5 2.7 11.1 5.5 16.1 4.7 4.5 10.4 8 16.3 10.9 4.1 2 6.3 6.1 8.6 9.8 5.6-1.3 10 2.5 15 4.2 2.4 1.1 4.9-0.1 7-1.2 3.7 4.6 9.6 5.3 15.1 6 6.4 0.8 11.7 4.9 16 9.4 10.6-4.1 21.7 0.9 32.5-0.5 2-0.4 3.6-1.9 5.3-3 0.3 0.6 1 1.8 1.4 2.4 7.6 2.8 16 1.9 23.7 4.5 2.5 0.8 4.1 3.1 5.9 4.9 2.3-2.2 4.7-4.7 8-5 10-1 20.2 1.3 30.1-0.8 2.2-0.3 3.3-2.4 4.5-3.9 1.5 0.7 2.9 1.8 4.6 1.8 6.3 0.4 12.7 0 18.9-1.3 4.6-0.9 8.9 1.8 11.9 5 8-7.3 19.5-4 29.3-5.8 3-0.2 4.9-2.7 6.7-4.8-4.6 0.1-9.3 0.4-13.9 0.5-5.5 0-10.5 2.9-16 3.1-8.1 0.6-16.2 1.7-24.3 0.6 5.6-1.6 11.5-2.3 17-4.3 2.4-1 4.9-1.6 7.5-1.9 3.3-0.3 5.3-3.9 8.7-4.2 3.3-0.9 5.9 1.8 8.5 3.3 2.3-2.7 4.6-6.5 8.7-6.2 3.3-0.6 5.4 2.3 7.4 4.4 4.9-1.3 6.6-7.2 11.7-8 3.3-1 6.4 0.6 9.7 1 3.4-1.9 5.4-5.3 8.2-7.8 2.9-0.1 5.8-0.1 8.8 0 1.1 1 2 2.3 3.3 3 5.6-1.8 9.3-6.8 14-10 0.6 0 1.8-0.1 2.3-0.1 0.9 4-2.2 7.1-4.9 9.6-3 2.9-7.3 3.5-10.8 5.4 1 0.7 2.1 1.3 3.3 1.8 2.3-0.7 4.6-1.5 7-1.3 5.8-8 9.9-17.1 14.7-25.7 1-1.8 1.6-3.7 2.1-5.7-2 2.7-3.3 5.8-5.1 8.6-1.9 1.7-4.5 2.1-6.9 2.6 4.5-7.9 10.8-14.7 14.2-23.2-3 3.8-5.4 8.1-8.1 12.1-1.4-2-2.7 0.5-3.9 1.2 1.5-5.2 3.2-10.3 5.2-15.3 1.4-3.5-0.7-7-1.8-10.3-0.7 2-1.3 3.9-2 5.9 1.3 0.4 2.6 0.8 3.8 1.2-2.8 5.4-4.4 11.1-5.3 17-2.6 5.5-4 11.9-8.3 16.3 0.9-3.9 2.7-7.5 3.5-11.3-4.6 6.1-7.1 13.8-12.9 19.1 3.9-11.2 8.5-22.3 14.8-32.4-4.9 2.3-5.7 8.7-10.1 11.8 0.6-3.3 1.6-6.4 2.9-9.5-1.4 0.4-2.9 0.8-4.3 1.2 0.4 6.4-2.2 13.2-7.5 17 0.8-3.5 2.5-6.8 3.1-10.3-3.5 3.9-5.2 9.1-9.6 12.3 1.7-5 4.1-9.8 5.7-14.9l-6.6 2.1c5-5.8 12.3-8.6 18.8-12.2-4.3 1.4-8.6 3.1-13.2 3.7 1.9-1.5 3.9-2.9 5.8-4.4-3 0.4-6 1-9.1 1.5 4.1-4.4 9.7-8.1 16-7.5 0.9 1.3 1.7 2.6 2.6 4 2.1-1.5 1.7-4.1 1.6-6.3-1.9-1.2-3.5-3.5-6.1-3.1-4.2 0.3-8.4-1.2-11.6-4 3.4-0.7 6.9-1.1 10.4-1.5-4.9-3.3-10.3-6.6-12.9-12.2 4.9 0.5 8.8 3.5 12.8 6.1 0.4-1.3 0.8-2.7 1.2-4 3.1 3.9 3.7 9 5.5 13.5 0.2-0.8 0.7-2.4 0.9-3.2 2 4.7 1.9 10.1 4.2 14.7 1.2-5.3-1.6-10.2-2.2-15.3-0.6-5.2-1.6-10.3-2.1-15.4 3.7 3.4 4.5 8.6 6.4 13.1 0.8-3.4 0.9-6.9-0.2-10.3 3.5-1.1 7.2-0.9 10.8-0.4-1.9-6.3-4.6-12.3-6.5-18.6 1.9 1.9 3.5 4.2 5 6.5-1-7.7-4.9-14.6-6.6-22.1 2.4 2.8 3.7 6.3 5.5 9.5 0.3-2.9-1-6.1 0.9-8.8-0.2-0.5-0.7-1.5-0.9-2-0.8 0.5-1.6 1.1-2.5 1.6-1.2-4.3-1.4-9.5 2-12.9-4-9.7-8.8-19.1-12.8-28.8-9-18.7-18.6-37.2-30.6-54.2-0.6 0.4-1.8 1.1-2.4 1.5-2.3-1.9-4.1-4.3-5.2-7-2.6 2.2-5.7 1-8.3-0.6-1.7 0.6-3.5 2.7-5.4 1.4-3-1.6-4.8-4.9-7.8-6.6 0.2 9.5-2.8 18.7-5.6 27.9" fill="#FFBE92" p-id="119980"></path><path d="M502 713.9c-2.4-7.3-4.9-14.6-5.1-22.4-2.4 1.4-3.7 4-6.1 5.3-1.5 1-2.9-0.6-4.3-1-2 1.3-4.5 2.3-6.6 0.6-0.9 2.2-2.3 4.1-4.1 5.7-0.5-0.3-1.5-0.9-2-1.1-9.4 13.7-16.8 28.7-23.8 43.8-3.1 7.8-6.8 15.4-9.9 23.2 2.8 2.6 2.7 6.8 1.8 10.3-0.7-0.4-1.3-0.8-2-1.2-0.2 0.4-0.5 1.2-0.7 1.6 1.5 2.1 0.6 4.6 0.8 7 1.4-2.6 2.4-5.4 4.3-7.7-1.2 6-4.3 11.6-5 17.7 1.2-1.8 2.4-3.7 3.9-5.3-1.4 5.1-3.5 9.9-4.9 15 2.9-0.5 5.8-0.7 8.6 0.1-0.8 2.7-0.6 5.5 0 8.3 1.4-3.6 2-7.7 4.9-10.5-0.4 4.1-1.1 8.2-1.5 12.3-0.4 4.1-2.6 8-1.6 12.2 1.8-3.7 1.7-8 3.2-11.8 0.2 0.6 0.6 1.9 0.8 2.6 1.4-3.6 1.8-7.7 4.2-10.9 0.3 1 0.7 2.1 1 3.2 3.2-2.1 6.3-4.5 10.2-5-2 4.5-6.2 7.2-10.1 9.9 2.8 0.3 5.6 0.6 8.4 1.1-2.5 2.3-5.8 3.5-9.2 3.3-2-0.2-3.3 1.6-4.8 2.6 0 1.8-0.3 3.9 1.4 5 0.7-1.1 1.4-2.1 2-3.2 5-0.6 9.5 2.3 12.9 5.8-2.4-0.4-4.8-0.8-7.3-1.1 1.5 1.2 3.1 2.3 4.7 3.4-3.7-0.4-7.1-1.7-10.6-2.8 5.3 2.8 11.1 4.9 15.2 9.5-1.8-0.5-3.5-1-5.3-1.6 1.3 4 3.3 7.9 4.7 11.9-3.5-2.4-5-6.6-7.8-9.7 0.5 2.8 1.9 5.4 2.6 8.2-4.2-3-6.4-8.4-6.2-13.5-1.2-0.3-2.3-0.6-3.5-0.9 1 2.4 1.9 4.9 2.4 7.5-3.5-2.4-4.3-7.5-8.2-9.3 5.2 8 9 16.8 12.3 25.7-4.7-4.2-6.8-10.2-10.5-15.1 0.6 3.1 2.2 5.9 2.9 9-3.5-3.5-4.7-8.6-6.8-13-0.9-4.7-2.2-9.3-4.5-13.5 1-0.3 2-0.7 3.1-1-0.5-1.6-1.1-3.1-1.7-4.7-0.8 2.6-2.5 5.5-1.3 8.3 1.7 4 3.1 8 4.3 12.1-1-0.5-2.1-2.6-3.1-0.9-2.2-3.2-4.2-6.6-6.6-9.6 2.8 6.7 8 12.1 11.6 18.4-1.9-0.4-4-0.7-5.5-2-1.5-2.2-2.6-4.7-4.2-6.8 0.4 1.6 1 3.1 1.8 4.5 4 6.8 7.3 14 12.1 20.3 1.9-0.2 3.8 0.4 5.6 0.9 0.9-0.4 1.8-0.9 2.6-1.5-2.9-1.5-6.3-1.9-8.7-4.2-2.1-1.9-4.7-4.4-4-7.6 0.5 0 1.4 0.1 1.9 0.1 3.8 2.5 6.8 6.5 11.3 7.8 1.1-0.6 1.8-1.6 2.6-2.5 2.3-0.2 4.7-0.2 7-0.2 2.3 2 4 4.7 6.7 6.1 2.6-0.3 5.1-1.7 7.7-0.9 4 0.6 5.5 5.3 9.4 6.2 1.6-1.7 3.2-4 5.9-3.6 3.2-0.3 5.1 2.7 7 4.8 2.1-1.3 4.1-3.5 6.8-2.8 2.7 0.2 4.3 3 7 3.2 2.1 0.2 4.1 0.7 6 1.4 4.4 1.6 9.1 2 13.7 3.2-6.4 1-13 0.2-19.4-0.2-4.4-0.1-8.4-2.3-12.9-2.3-3.7 0-7.4-0.2-11.1-0.2 1.5 1.6 3 3.6 5.4 3.7 7.8 1.3 17-1.5 23.5 4.3 2.4-2.6 5.7-4.8 9.4-4.2 5 0.9 10.1 1.2 15.1 0.8 1.4 0 2.5-0.9 3.6-1.5 1.1 1.2 1.9 2.9 3.7 3.1 8 1.6 16.1-0.4 24.1 0.3 2.7 0.1 4.6 2.2 6.5 3.9 1.4-1.5 2.6-3.3 4.6-4 6.1-2.2 12.8-1.6 18.9-3.9 0.3-0.5 0.8-1.5 1.1-1.9 1.4 0.8 2.7 2 4.3 2.3 8.7 0.9 17.5-3.2 26-0.1 3.4-3.7 7.6-7 12.7-7.7 4.3-0.6 9.1-1.3 12-5 1.8 0.8 3.7 1.7 5.6 0.8 3.9-1.5 7.4-4.6 11.9-3.6 1.8-3 3.5-6.3 6.8-8 4.7-2.4 9.2-5.2 12.9-8.9 2.2-4 3.3-8.5 4.2-12.9-3.5 1.7-5.2 5.4-8 7.9-3.8 3.7-8.4 6.5-12.3 10.1-2.7 2.4-5.5 4.7-8.6 6.6 2.3-3.9 7.2-5.8 8.2-10.6-3.7 3.6-7.6 7-11.1 10.7-0.2 1.9-0.2 4.3-2.2 5.2-3.3 2.1-7.1-0.3-10.6 0.8-1.5 0.4-3.7 0.7-4.4-1.1-0.8-2.6 2.3-3.7 3.9-4.9 1.4-0.7 1.4-2.5 1.9-3.8-2.2 1.5-4.4 3.2-6.1 5.3-1.2 2.1-1 4.7-1.9 7l-1.8-2.1c-1.3 2.9-4.5 4.5-7.5 4.7-2.1 0.1-3.8 1.5-5.8 2.2-1.9 0.1-3.7-0.9-5.6-1.4 0.3-1.9 0.4-4 1.4-5.7 2.5-3 7-4.2 8.6-7.9-0.2-1.4 0.5-4.9-1.5-4.8-0.7 1.8-1.1 3.8-2.3 5.5-2 3.1-5.8 4.9-6.6 8.7-0.6 2.6-2.2 4.6-4.8 5.4 0.6-3.1 0.7-6.2 0.1-9.2 2.4-2.7 5.7-4.5 7.7-7.5 1.1-1.5 1.1-3.4 1.5-5.1 0.4-2 1.7-3.7 2.1-5.7-0.4-0.9-0.9-1.7-1.4-2.5-1.7 5.2-2.3 10.8-5.3 15.4-1.6 1.9-3.9 3.1-6 4.4 0.1 3.1 1 6.8-1.3 9.3-1.1 1.1-3.3 2.2-4.6 0.8-0.9-2.6-1.4-5.8 0.1-8.4 2.2-3.1 5.6-5 7.8-8.1 1.8-3 2.6-7.2 0.6-10.3-2-2.4-5-3.3-7.9-4.1 1.9 2.1 4.6 3.4 7.1 4.6 0.5 2.5 1.7 5.3 0.5 7.8-1.5 2.3-4.2 4.1-7 3.8-1.8-0.8-2.9-2.7-4.7-3.5-2.3 1.4-3.7 3.8-5.4 5.8-1.9-0.2-4.6-2.5-5.9-0.2-0.9 1.1-0.5 2.7-0.7 4 1.6-1.1 2.8-3 4.9-3.1 3-0.2 5-2.5 7-4.5 1.9 1.4 3.9 2.7 6 3.9-1.2 1.3-2.6 2.5-3.6 4.1-0.9 2.6 0.9 5.7-0.7 8.1-1 1.6-3 0.9-4.6 1.1-1.3 1.2-2.4 2.6-3.9 3.5-2.9 0.7-5.8 0-8.7 0.2-3.2 0-6.3 2.1-9.6 1.1-3.8-1.2-7.8 0.9-11.5-0.7 1.4-0.8 2.9-1.5 4.2-2.4-0.2-1.9-4.1-0.7-3.1-3.4h-0.5c0.1 0.4 0.3 1.3 0.4 1.7-4 0.3-7.7 1.8-11.6 2.6 1.9-2 4.7-2.3 7.1-3.4-1.2-0.2-2.3-0.6-3.5-0.6-1.7 1.3-3.2 2.9-5.3 3.6 0.7-2.5 2.9-3.9 4.8-5.4-4.7-1.8-9.6-3.2-14.7-3.5-1.9 2.9-5.4 2.8-8.5 2.8 0.3 0.9 0.7 1.7 1.1 2.6 1.7 0.6 3.5 0.6 5.2 0.8l0.1 0.6c-3.3 0.4-6.4 1.4-9.2 3.1-2.6-1.9-5.7-1.9-8.7-1.9l-0.6-1.1c2.8-1 6-1.1 8.5-3-1.1-0.8-2.3-1.5-3.2-2.5-0.8-1.7-1.1-3.5-1.8-5.2-1.8 1.8-3.3 4.2-6 4.8 0 0.4 0.1 1.3 0.1 1.7-1.2 0.5-2.2 1.5-3.5 1.4-1.8 0.1-2.9-1.4-4.2-2.4 0.8-0.1 2.3-0.3 3-0.4-0.5-0.4-1.5-1.1-2-1.4 0.2-0.3 0.5-1 0.7-1.3-1.7-0.9-3.6-1-5 0.4 0.8-0.2 1.7-0.3 2.5-0.5 0.6 1 1.1 2 1.7 3-3.9-0.3-8.2-0.7-11.4-3.3-0.2 0.5-0.6 1.4-0.7 1.9-0.6 0.2-1.7 0.4-2.3 0.6-0.8-1.3-1.7-2.6-2.5-3.9-1.6 0-3.1-0.5-4.3-1.7 4.9 0.1 7.6-4.4 10.5-7.6-5.5-0.8-11-1-16.4-2.4-0.9 1-1.5 2.2-2.7 2.9-0.8-0.9-0.9-2.2-1.3-3.3-2.2-0.6-4.4-1.2-6.4-2.5 2-0.5 3.9 0.4 5.9 0.9 2.9 0.9 5.9 1.4 9 1.3-1.5-1-3-1.8-4.4-2.8-2-1.6-2.3-5.4 0.2-6.7 0.1 1.4 0.1 2.8 0.1 4.1 1.6-0.6 3.1-1 4.8-1.5-1.4-1-2.8-2.1-4.1-3.3 1.8 0.1 4.2 0 4.9 2 1.5 2.5-1.4 5.4-0.1 7.9 2.8 1.9 6.5 1.4 9.8 1.5-1.7-3.9-4.3-7.4-5.9-11.3 4.2 2.5 5 7.9 8.7 10.9 0.6 0.4 1.5 1.3 2.3 0.8 2.4-1.2 4.7-2.6 7.1-3.9-0.4-2.5-1.9-4.4-3.7-6.1 0.3-0.2 1-0.5 1.4-0.7 2.4 2.5 5.1 4.6 7.5 7.1 0.6 0.2 1.7 0.5 2.3 0.7-1.1 0.6-2.3 1.1-3.5 1.7-0.4 1-0.7 2-1 3 1.7-1.2 3.5-2.5 5.6-1.4-0.1-1-0.3-2-0.4-3 1.9 1.2 2 3.5 2.6 5.4 1.3-0.5 2.7-0.9 4-1.4 0.7-0.9 1.5-1.9 2.2-2.8-1.2-0.7-2.4-1.4-3.5-2.1 0.3-0.4 0.9-1.1 1.2-1.5-2-2.5-4.2-4.8-6.9-6.4-0.1-0.4-0.4-1.3-0.5-1.8-0.3-0.2-1-0.6-1.4-0.8-0.1-1.7-0.8-3.1-1.6-4.6 3.4 1.9 4.8 6.2 8.5 7.8 1.5 3.5 4.9 5.7 8 7.8 2.8 1.1 5.3 2.8 6.6 5.6 1.5 0.7 4.2 0.6 4.4 2.7 0.6 1.9 0.1 3.9-0.2 5.8 7.7 1 14.8 4.6 22.6 4.7-0.9-3.1-3.5-5.2-6.2-6.9-1.5 0.5-2.9 1-4.4 1.4-0.4-1.1-0.8-2.1-1.2-3.2 0.9-0.5 1.8-1 2.6-1.5-2.1-1.6-3.8-3.5-5.6-5.4-1.2-0.5-2.6-0.4-3.9-0.5 0.5-1.2 0.5-2.5 0.1-3.8 2.5 1.7 4.7 3.8 7 5.7 1.1-0.8 2.2-1.6 3.4-2.4 0.3 0.1 1 0.4 1.4 0.5-0.2 0.2-0.6 0.5-0.7 0.7 1.4 1.4 0.8 3.5 1.3 5.2 1.9 2.2 4.4 3.9 7 5.1-1.1-1.9-2.8-3.6-3.3-5.8-0.5-2.2 1.5-3.7 3.2-4.5 2 0.7 0.5 2.2-0.1 3.2 0.8-0.3 1.7-0.5 2.5-0.7 1.4 1.1 1.6 2.9 2.3 4.4-0.3-1.4 0.3-3.3-1.1-4.2-1-0.9-2.4-1.7-2.5-3.2 1.4 0.3 3 0.5 4.3 1.2 1.2 1.2 1.7 2.9 2.4 4.3-1.4 2.5-4.1 3.6-6.6 4.6-0.1 4 3.6 5.9 6.5 7.8 1.3 0.8 2.8 1.4 4.4 1 1.7-6.4-0.9-13.3-5.5-18-3.9-3.8-6.3-8.7-9.4-13.1-1.1-1.7-3.1-2.2-4.7-3.2s-2.5-3-4.4-3.3c-2.7-0.5-5.1 1-7.6 1.6-2.2 0-4.4-0.4-6.6-0.5 2-2.4 3.8-5.7 7.4-5.7-4-3.5-8.1-8-13.9-7.6-5.5-0.8-9.7 4.9-15.3 3.4 4.7-1.9 9.3-4.1 14.1-6-2-0.1-4.2-0.4-6.1 0.4-1.5 1-2.8 2.4-4.3 3.4 0.8-2.5 2.4-4.7 5-5.4 0-0.2 0-0.5 0.1-0.7-2.7-1.7-6.4-3.7-9.5-1.8-4.3 2.7-8.8 5.3-13.5 7.1 0.9-1.8 1.9-3.5 3.1-5.2-5.9 2.2-11.8 4.8-17 8.5-2.4 2.3-4 5.3-6.2 7.8 0.1-2.1 0.1-4.1-0.1-6.2-2.6 0.2-5.1 1.4-7.8 0.9-1.6-0.3-3.1 0.2-4.7 0.5-0.2 2.5-0.2 5.6-2.7 6.9-2.1 1.4-4.5 0.6-6.6-0.3 0-1.5-1.8-4.2 0.4-4.8 1 1.3 1.8 2.8 2.7 4.2 1.5-0.3 3.1-0.5 4.4-1.4-0.9 0.2-1.9 0.4-2.9 0.6-1.9 0-2-2.3-3.2-3.3-1.4-1-2.9-1.7-4.4-2.5 0.2-1.7 1-3.1 2.2-4.3-3.6-2.1-8.3-3.8-9.7-8.2-0.7-1.8-0.3-4.2 1.6-5.1 1.8-0.8 3.7 0.2 5.5 0.6-1.6-4.7-3.8-9.4-4.2-14.4-0.7-0.3-1.3-0.6-2-0.9 1.1 3.4 2.5 6.7 3 10.3-3.8-3.1-5.3-8-8.6-11.5 2.8 7.1 4 14.8 3.9 22.4-2.7-3.4-2.7-7.8-4.1-11.7-0.3 1.9-0.5 3.8-0.8 5.7-0.9-1.4-1.3-3.1-1.6-4.7-0.4-0.2-1.1-0.5-1.5-0.7-2.1-3.7-4.3-7.5-4.9-11.8l-0.7 0.1c0.2 2.8 0.4 5.7 0.7 8.5-2.7-2.5-5.6-6.8-3.1-10.4-2.8 2.4-6.3 3.6-9.4 5.6-1.7 1.9-2.5 4.6-4.8 6 1.5-5.6 7.5-8.9 8-14.8 0.7-3.6 0-7.8 2.6-10.7 0.4 2.2 0.6 4.4 0.9 6.6 0.7-4.7 0.2-9.5 1.4-14.1 1.1 1.3 1.5 2.9 2 4.5 1-5-0.4-10.1 0.7-15 1.2 1.9 1.4 4.1 2.1 6.2 0.3-3.4-1.5-7.2 0.3-10.3 0.6 0.6 1.2 1.2 1.8 1.9-0.3-1.6-0.5-3.3-0.8-4.9-3.1 5.4-5.8 11.1-9.4 16.1-3.1 4.2-5.4 9.1-9.7 12.2-0.1-1.6-0.1-3.2-0.1-4.8 1.4 0.1 2.5-0.4 3.1-1.7-0.5 0-1.6-0.1-2.2-0.1 1-6.7 5.1-12.4 8.3-18.2 1.4-0.2 2.8-0.7 4.2-1.2 0.3 0.5 1 1.5 1.3 2-0.3-1.1-0.5-2.2-0.8-3.3l-4.5 2.1c1.3-2.8 2.2-5.8 2.9-8.7 0.2-0.1 0.4-0.3 0.6-0.4 0.1 0.4 0.4 1.2 0.5 1.5 1.3-0.5 2.5-1.1 3.7-1.7 0.5 0.2 1.4 0.5 1.9 0.6-1.1-1.4-2-3-1.6-4.9-1.7 0.7-2 2-1.6 3.6-0.9-0.1-1.9-0.3-2.7-0.8-1-1.1 1.1-2.2 1.7-2.8-0.6-0.7-1.1-1.4-1.7-2.1 1-0.2 2.1-0.5 3.1-0.7-0.3 1-0.6 2-1 3 1-0.4 2-0.9 3.1-1.3 0.6-5.6 2.5-10.9 4.4-16.1 1-2.7 1.2-5.7 2.4-8.4 0.3 3.5 0.1 7.1-1.6 10.3-2.9 5.2-3.2 11.1-4.6 16.8 1.7 2.1 1.6 5 2.9 7.3 0.9-5.8-0.8-12.2 2.7-17.4 0.3 2.4 0.4 4.9 0.5 7.3 0.5 1 1.2 2 1.2 3.1 0.3 3.6 0.8 7.3 0.4 10.9-0.3 3.2-1.3 6.3-2.1 9.4 3-3.1 6.3-6 10.4-7.6-3.2 4.6-7.2 8.6-11.7 11.9l0.2-2.3c-1.5 2.6-2.8 5.4-3.6 8.3 2.6-2.9 4.8-6.3 8.3-8.3-0.5 1.7-1.1 3.3-1.7 4.9 2.5-3.2 4.2-6.8 6.4-10.2 2.8-3.5 5.5-7.3 6.1-11.9-4 3.6-6.8 9.1-12.6 9.9 0.4-3.3 2.6-6.1 2.4-9.5 0.1-4.1 0.1-8.1 0.9-12.2s0.5-8.4 2.6-12.1c0.5 2.5 0.8 5 1.2 7.5 1.8-4.4 1.2-9.2 1.4-13.9 2.4 1.6 2.6 4.7 3.3 7.3 1.8-7.5 1-15.7 4.5-22.8 0.6 5.5-0.4 11-0.1 16.5 1.4-3 2.1-6.4 4.7-8.6-0.1 4.9-2.5 9.3-3.6 14.1 1.6-0.7 3.3-1.3 4.8-2.1 1.9-1 2.9-3 4.4-4.4 1.4 0.8 3.2 1 5.1 0.9" fill="#FFBE92" p-id="119981"></path><path d="M693.4 540.5l-0.3-0.3c-2.5-2.5-5.1-5.2-7.8-8.2-2.8-3.1-5.8-6.4-8.8-9.8-58.6-67.7-90.8-153.6-90.8-242.1 0-51.5 10.8-102.1 31.6-148.9 0.1-0.2 0.2-0.5 0.3-0.7 0.3-0.9 0.6-1.8 0.7-2.8v-0.9c0-5.5-4.5-10-10-10-3.4 0-6.3 1.7-8.1 4.2-0.3 0.4-0.5 0.8-0.7 1.2-0.2 0.4-0.3 0.8-0.5 1.2-21.8 49.3-33.2 102.6-33.2 156.8 0 47.5 8.6 94 25.5 138.2 16.3 42.6 39.9 82 70.2 117 3.1 3.6 6.2 7.1 9.2 10.3 2.8 3.1 5.5 5.8 8.1 8.5 38 41.9 58.9 96.2 58.9 153 0 84.9-46.5 162.1-121.4 201.4l-2.2 1.2-1.4 2.1c-18.8 27.8-58.4 45.7-100.9 45.7-42.9 0-82.7-18.2-101.3-46.3l-1.4-2.1-2.2-1.2c-74.2-39.5-120.3-116.5-120.3-200.8 0-60.1 23.1-116.8 65.1-159.6 3.5-3.6 7.2-7.1 11-10.5l0.4-0.4c0.6-0.5 1.2-1.1 1.8-1.6l0.5-0.4C441 460 482.7 361.2 482.7 256.4c0-63.5-15.7-126.2-45.6-182.3 24.4-5 49.4-7.6 74.8-7.6 25.9 0 51.4 2.6 76 7.8 0.4 0.1 0.8 0.2 1.2 0.2 0.5 0.1 1 0.1 1.5 0.1 2.7 0 5.1-1 6.9-2.7 1.9-1.8 3.1-4.4 3.1-7.3 0-4.1-2.5-7.7-6.1-9.2-0.3-0.1-3.2-0.8-3.5-0.9-25.7-5.3-52.1-8-79.1-8-31.4 0-62.5 3.7-92.4 11-1.7 0.4-6.1 3-7.4 6.4-1.2 3.1 0.4 7 1.2 8.4 32.4 55.9 49.5 119.6 49.5 184.1 0 99.3-39.5 193-111.1 263.8-0.6 0.5-1.2 1-1.7 1.5l-0.4 0.4c-4.1 3.7-8.2 7.5-12 11.4-45.7 46.5-70.9 108.2-70.9 173.6 0 91 49.2 174 128.7 217.3 23 32.8 67.4 53.1 116.5 53.1 48.7 0 92.9-20 116.1-52.4 80.2-43.1 129.9-126.4 129.9-218-0.3-61.8-23.1-120.9-64.5-166.6z" fill="#231815" p-id="119982"></path></svg>