<svg t="1699279506859" class="icon" viewBox="0 0 1218 1024" version="1.1" xmlns="http://www.w3.org/2000/svg" p-id="150950" width="48" height="48"><path d="M137.97322483 614.57566719c6.38199125-18.47809138 16.7960155-45.02024761-0.98945592-34.25991453-2.47364039 1.65733831-6.38199125 0.98945593-3.04257707-8.41037596a137.03965696 137.03965696 0 0 1 23.84588914-43.65974642c15.11394077-18.79966379 46.00970467-31.56364629 19.78912085-49.47279986 1.01419235-4.03203299 6.72830123-9.74614187 12.36819968-16.44970552 3.68572416-4.69991651 8.55879453-11.42821661-2.02838471-29.06527062-4.03203299-10.06771427-9.05352192-52.39169593-4.03203299-84.10376078 2.47364039-26.19584739 4.03203299-39.30613987-2.00364943-49.47279986-4.94727965-4.94727965-29.38684302-11.55189874-14.61921223 39.80086841-7.54460217-6.55514624-32.72625721-28.02634183-21.14962204-81.77853895 6.03568128-13.95132985 18.13178141-39.57824057 55.40953656-30.07946297 8.55879453 4.55149795 23.67273529 9.57298688 30.74734536 48.38439936 0.98945593 0 4.52676153 6.95092793 6.53040981-9.3750966s2.47364039-69.26192071-50.36331122-54.61797092c2.00364829-3.01784064 28.19949568-37.35196445 74.55551033-4.82359751 4.03203299 3.80940515 16.62286051 25.97321955 8.06406599 54.19745166-2.47364039 3.5373056-5.54095389 9.07825835 3.01784064 8.06406713s76.06443008-21.17435847 57.93264981-74.55551033c-2.47364039-5.56569031-13.60501987-31.76153771-56.42372892-20.67962994 1.01419235-5.54095389 17.11758905-29.95578083 65.50198727-25.30533717 15.08920434 3.14152277 48.35966179 20.72910279 50.85803861 58.27895865-1.50892089 5.83778987-2.47364039 14.84184007 3.5373056 10.85927879s17.63705287-10.61191566 19.14597376-37.54985472c6.03568128 12.36819968 23.17800675 67.77773625-40.81506076 116.26108018 10.0924507 2.47364039 81.63012039 24.7364005 89.6694511 74.06078179-14.09974841-13.11029248-79.57699925-63.99306752-173.79794717-33.76518598-25.18165504 16.12813312-59.93629696 40.81505963-57.93264981 100.25662918 0.51946496 1.50892089 60.95048931 0 34.25991452-33.76518598-2.00364829-3.51256917-8.55879453-3.51256917 0.49472854-6.53040982s33.27045859-20.65489351 70.02874766-10.58717924c27.21003975 6.03568128 74.20920035 18.50282781 52.91115975-19.5912283 4.94727965 1.45944803 45.34182115-12.14557298 75.05023886 25.13218219-8.06406599-0.49472853-42.81870905-11.08190777-40.81506077 1.01419235s-0.98945593 23.67273529-38.26721109 17.63705288-104.78339072-19.66543758-80.61592803-8.064066c9.07825835 5.54095389 4.52676153 13.08555605-5.54095275 16.62286052s-43.31343645 15.60866816-56.42372893 28.71896064c-5.54095389 4.94727965-10.56244281 16.12813312 1.01419236 9.05352305s130.80608427-82.94114987 290.67743801-8.38563953c18.13178141 10.06771427 127.61508864 80.61592803 185.39931762 60.45576192 13.43186489-4.69991651 38.9598299-28.22423211 14.84184007-69.85559381a292.80476843 292.80476843 0 0 0-66.4914432-32.92414863c-23.52431673-8.06406599-130.97923811-36.95618162-151.13940423-94.71567644-8.73194951-33.59203101-28.89211563-104.46181717 44.3276288-153.36568036 10.76033422-3.85887801 10.90875278-6.06041771 20.48173966 3.51256917s43.33817287 30.27735325 31.24207275 14.64394867c-12.59082752-9.59772331-32.15732053-17.1670619-32.1573194-57.46265771 8.55879453 8.55879453 33.74044957 20.65489351 48.85438919 20.65489351s38.29194752 2.00364829 37.7724837 25.18165617c-2.47364039 4.94727965-5.61516317 15.13867719-20.72910393 5.56568918-4.94727965-4.52676153-3.36415061-8.83089522-3.95782372-16.69706979 0 0-14.44605725 0.98945593-10.06771427 20.33332109 1.50892089 6.65409195 17.76073501 20.87752135 48.28545251 11.84873587 0 0-2.47364039 8.50932167-5.4667446 8.18774812s-56.42372893 2.47364039-67.15932558-2.47364039-23.17800675-6.50567339-35.27410688-15.0892032c-4.94727965-4.55149795-16.77127907-8.92984093-11.08190777-1.87996729s34.25991453 45.68813113 86.30530048 47.370207c-2.34995826-0.34630997 8.41037597 3.36415061-0.32157355 6.38199125s-44.67393877 10.41402425-90.68364231-9.07825947c-1.3357659-0.66788238-12.36819968-3.68572416-4.03203299 4.03203299s50.11594695 42.42292622 120.56521386 23.17800789c5.39253533-1.01419235 6.06041771-0.61840953 5.39253533 5.73884416s-3.71045945 15.41077675-14.84184007 26.17111097c-3.68572416 1.01419235-11.42821661 11.42821661 2.47363925 7.04987477s33.91360455-8.70721309 55.40953657-27.53161329c2.47364039 3.68572416 4.37834297 0.66788238 6.0604177 17.78547142-0.34630997 3.04257707 0 12.56609109 7.71775716 5.44200819s17.31548046-14.84184007 19.78911972-33.64150387c4.77412466-2.34995826 22.75748864-1.36050233 22.75748864-1.36050232v4.37834296a130.1876736 130.1876736 0 0 0-15.31183218 0.32157242c-2.32522183 0-1.97891186-1.65733831-2.3252207 4.37834297s-4.03203299 33.91360455-45.02024874 43.33817287c-0.32157355-4.03203299 4.05676942-12.36819968 3.71046058-18.82440021 0.32157355-4.03203299 4.03203299-11.74979015-5.71410886-5.3677989s-42.05187982 28.89211563-89.05104043 15.46025074c5.3677989-3.36415061 31.56364629-10.0924507 41.30978816-25.20639261 1.68207474-1.3357659 6.80251051-8.70721309-1.80575687-6.70356366s-42.17556195 2.34995826-52.58958734 1.68207473c-2.47364039 0-4.94727965-0.27210069-4.94727965 7.24776506s-7.42092003 30.35156253 42.32398051 38.41562965c36.11514425 5.86252629 76.68284075 9.17720405 112.74851215 20.60542179-1.26155662 2.47364039-2.59732253 4.94727965-4.00729771 7.2972379-32.70152078-10.14192355-64.93305059-13.95132985-65.08146802-13.11029248 2.25101255 5.54095389 2.77047637 16.62286051 3.01784064 23.12853391s-6.30778197 4.57623438-7.81670286 1.80575801c0-11.84873586-2.77047637-17.31548046-8.55879452-24.43956339s-29.21368803-5.78831815-38.29194638-4.94728077-12.83819179 8.06406599-17.31548047 15.88076885-7.42092003-2.27574898-6.67882837-4.79886109c2.47364039-2.77047637 16.49917838-17.31548046 16.74654265-18.62650993-46.85074205-15.36130389-32.75099363-42.05187982-31.98416441-48.6317625 0.5936731-5.12043463 0-4.55149795-0.12368214-4.27939725-16.59812409-1.31102947-36.6593445-14.84184007-36.65934563-14.84184008-6.30778197-3.7599323-10.33981497 7.42092003-11.74979015 19.04702805a49.67069127 49.67069127 0 0 0 3.31467776 22.01539699c20.08595683 44.17921024 54.1974528 50.28910194 58.55105934 51.22908387 3.83414158 35.66988857 18.82440021 44.00605525 30.22788153 51.05593002 44.67393877 16.12813312 85.98372693-5.71410887 92.36571705-10.41402424s16.7960155-2.02838471 23.17800676 1.01419235c91.00521586 41.63136171 70.86978617 133.32919637 68.17351907 145.4252965s-8.73194951 7.04987363-8.73194951 7.04987363c-40.96347819-40.29559581-95.38355883-7.71775715-99.73716537-4.69991651s-1.01419235 3.36415061 0.66788352 3.01784178c35.94198926-16.44970553 61.1236443-4.94727965 73.88762681 0.34630884 39.57824057 23.84588914 31.56364629 65.82356082 32.15732053 71.8592421 68.17351907-43.31343645 54.74165305-140.37907001 53.40588715-148.41840072-31.24207389-68.86613789-37.624064-66.16987079-74.55550919-93.20675555a143.99058489 143.99058489 0 0 0-33.56729572-17.31547933c1.45944803-2.17680327 2.91889493-4.5020251 4.35360655-6.97566549a165.09073408 165.09073408 0 0 1 23.27695246 11.42821774c40.02349511 26.71531235 109.53278009 59.96103339 87.36896568 184.3851264 4.55149795 4.03203299 49.86858269 16.64759694 63.47360256-23.15327147 7.04987363-15.63340459 11.08190777-36.28829923 5.54095389-49.89331797s-15.60866816-28.19949568-34.2351781-26.69057593c-10.0924507 0.98945593-19.14597376-3.5373056-29.68368014-18.13178141s-18.65124523-55.43427299 4.03203299-78.09281478c0.49472853 7.54460217-1.87996615 57.93264867 18.20599069 39.2814023 2.94363136 11.08190777 5.46674461 28.22423211 31.662592 34.77937949 1.01419235 0.98945593 12.09610013 1.50892089 4.03203299-14.12448483-4.94727965-10.56244281-10.58717923-22.41117867-19.64070115-28.44685995s-13.11029248-10.8345435-8.83089522-19.91280185 8.06406599-36.78302663 55.92900039-36.01619854c-0.24736427 2.25101255 4.77412466 0.74209166 0 4.27939726s-39.80086727 34.63095979-16.62286051 32.50362937c0.74209166 7.79196643-0.24736427 36.51092707 11.32927089 47.34546944 2.27574898 4.94727965 6.15936341 12.59082752 7.42092004 0s-2.47364039-55.6568997 3.71046059-61.19785359 31.73680128-29.98051726 75.81706581-2.0283847c0.76682809 2.27574898 4.52676153 4.27939726-2.25101255 3.5373056s-32.15732053-3.28994133-42.05187982 4.27939726c-4.77412466 4.03203299-4.27939726 7.04987363 7.04987363 7.7919653 0.49472853 0.51946496 4.94727965 1.01419235-0.74209166 6.06041771s-20.16016611 21.66908701-20.65489351 39.57824056c1.23682019 6.80251051 1.50892089 16.37549739 11.82399943 8.8061588 7.2972379-7.04987363 16.87022478-17.63705287 20.40752924-27.2100409 1.01419235-3.51256917-2.00364829-15.85603243 17.63705402-10.83454236s49.10175459 13.11029248 46.99915946 59.71366912c-1.50892089-3.78466873-20.16016611-32.9983579-36.01619854-31.73680128-3.28994133 0.24736427-6.30778197-1.01419235-2.27574898 4.7741258a13.65449273 13.65449273 0 0 1 2.74574108 10.29034211c0 0.74209166-21.91645013-1.26155662-29.68368014 7.04987364s-17.88441714 9.05352192-13.11029248 43.31343758c2.77047637 7.07461006 10.0924507 19.78911971 33.24572217 16.64759694 4.94727965-2.77047637 10.0924507-1.78102045 20.40753039-16.37549739 1.50892089 9.89456043 10.58717923 31.21733746-30.72260893 57.93264981-4.52676153 2.00364829-6.55514624 1.01419235-11.32927203-6.30778197s-24.93429077-26.93794019-40.04823154-23.17800789c0.24736427 5.29358962 21.32277703 66.34302464-33.09730361 138.89488669-5.3677989 5.3677989-14.09974841 32.92414862 24.19219911 32.92414861-10.0924507 8.73194951-21.32277703 14.84184007-48.9533349 7.42092005-4.79886109 6.06041771-46.43022279 29.55999801-67.92615481-10.73559781 6.7035648-2.02838471 15.831296 0.19789141 17.31547933-12.09609898 1.06366521-8.75668594 2.7952128-26.59163022-24.73639936-28.22423324-28.54580565-1.65733831-122.37097074 11.27979805-128.10981604 95.28461312-0.42051925 6.08515413 2.47364039 18.92334592 4.94727964 22.93064363 7.42092003 12.02189085 20.35805753 26.88846734 39.10824847 34.95253333 11.55189874 2.69626709 45.78707683 10.73559779 55.21164515-42.99186404 3.33941419-2.00364829 56.22583751-13.43186489 85.53847126 22.2627601-8.31143026 0.66788238-47.59283371 1.01419235-47.59283371 1.01419237s-1.68207474 5.71410887 0.66788352 9.39983189c-2.69626709 0.66788238-36.60987165-4.94727965-51.94644025 32.15732053a54.69218019 54.69218019 0 0 0 60.10945195-19.4922826s1.01419235-4.03203299 7.04987363-3.68572416c9.15246763 0.49472853 64.48779491 4.35360654 66.4914432 56.74530133-1.68207474-1.3357659-29.21368803-30.22788039-47.34546944-23.49957915-0.34630997 3.36415061-3.01784064 7.71775715-0.66788238 9.74614072-8.41037597-2.34995826-51.40223886-14.12448483-62.1378378 4.69991651 6.03568128 3.36415061 35.94198926 14.09974841 57.09161245 5.71410888 6.03568128-1.01419235 9.05352192-3.36415061 16.7960155 5.3677989s32.89941219 44.3276288 5.3677989 77.9196598c0-4.37834297-10.41402425-36.95618162-17.46389902-45.68813113-1.01419235-3.33941419-7.71775715-8.06406599-14.84184007 4.94727965-4.37834297 0.34630997-5.3677989 1.01419235-6.72830123-2.69626709s-20.48173966-29.88157155-54.07376953-24.16746269c-1.01419235 2.00364829-7.12408291 8.73194951-1.53365732 13.75343843s20.87752135 28.62001493 51.25382144 22.26276011c2.00364829 0.66788238 1.21208377-2.34995826 1.65733832 3.33941418 0.66788238 8.11353885 2.7952128 52.14433166-22.83169678 71.53766856-1.3357659-6.03568128 3.36415061-51.37750243-8.73194952-49.34911773-10.73559779 1.65733831-11.40348018 7.42092003-16.10339669-2.47364038s-15.78182315-42.9918629-32.57783865-44.99551232-38.63825749-10.73559779-54.42008064 11.08190776c-3.36415061 4.94727965-7.04987363 26.19584739 4.94727964 53.75219712-6.06041771 0-47.37020587-13.77817486-39.30613873-76.93020387 7.04987363-0.32157355 38.63825749 3.71045945 48.70597177-28.8673792 0-2.02838471 2.34995826-1.36050233-4.94728078-4.37834298 0 0-57.09161131-15.11394077-93.35517412-60.95048931-12.59082752-12.09610013-54.42008064-71.56240498-24.73639936-112.87219427 15.60866816-10.56244281 47.34546944-23.67273529 58.94684103 14.12448483 1.01419235 9.57298688-4.55149795 24.7364005-20.65489351 24.7364005-8.55879453 0.49472853-17.63705287-9.07825835-11.08190777-17.14232548 5.54095389-4.94727965 18.13178141-6.03568128 8.55879453-11.57663516-3.5373056-1.50892089-12.59082752-5.54095389-27.21003976 4.52676153-4.52676153 5.54095389-6.55514624 16.12813312 7.5693386 29.21368803-3.04257707 2.47364039-14.12448483 15.63340459-0.51946496 28.71896064 3.5373056 2.77047637 9.89456043 6.55514624 9.89456042-1.75628401s-1.50892089-13.85238414 10.09245071-18.13178141 36.51092707-9.4987776 35.52147115-34.35886023c-1.01419235-14.84184007 0.66788238-44.3276288-44.0060564-43.98131883 0.66788238-2.34995826 3.36415061-9.74614187 14.44605838-16.12813312-0.66788238 0 3.01784064-4.69991651-4.03203413-2.34995825s-37.27775517 3.68572416-56.77003776 50.70962005c-1.68207474 1.3357659-3.68572416-0.32157355-4.03203299-4.032033s-5.71410887-8.06406599-7.04987478-0.66788238-11.08190777 60.45576192 38.29194752 108.84016014c-8.06406599-1.68207474-26.86373091-8.73194951-46.35601351-44.67393877-0.98945593-1.3357659 0.34630997 0.34630997-7.42092003-2.00364828s-34.92779691-17.46389902-32.57783865-49.02754532c2.47364039 0.66788238 18.79966379 21.14962205 23.4995803 10.06771541a40.76558791 40.76558791 0 0 0 0-12.76398251c-0.66788238-2.02838471-18.13178141 1.68207474-64.80936846-39.57824056-10.76033422-8.73194951-43.65974642-44.35236523-84.3016522-46.99915947 7.04987363-1.68207474 39.28140345-4.94727965 83.28745984 35.59567929 16.7960155 13.77817486 38.29194752 32.92414862 55.08796303 37.94563754 1.68207474 0.34630997 9.39983189 3.71045945 9.72140544-2.34995825s8.75668594-27.5316133 15.4602496-25.52796501c4.03203299 2.69626709 2.69626709 14.84184007 16.44970552 8.41037596 2.34995826-4.03203299 50.38804651-51.94644025 138.37542286-41.30978816 0-1.01419235-11.74979015-23.17800675-33.91360454-20.82804849-0.34630997 7.04987363 3.33941419 12.73924608-3.36415062 12.91240106s-58.27895865 7.74249358-73.21974442 19.66543758c-9.22667691 1.85522973-31.71206485 5.59042674-54.42008064-1.13787448s-154.80039197-101.66660437-301.56145323-70.82031333c-3.01784064 1.68207474-4.03203299 8.73194951 2.02838471 6.06041885s93.03360057-25.87427499 168.9248768 74.5555092c2.69626709 4.69991651-0.32157355 10.76033422 16.7960155 19.78912085s124.25093803 53.05957831 115.51898852 194.79915065c-2.67153067 20.8280485-17.31548046 135.03600867-192.10288356 156.53193955-46.99916061-0.66788238-172.61059982-19.49228373-221.66288042-178.69575395-11.3292709-36.18935353-50.90751147-157.76875975 34.25991338-282.71231773 2.69626709 4.69991651 58.62526862 74.03604537 108.9885787 82.1001125 1.01419235 0.51946496 9.07825835-0.98945593-2.00364828-6.03568128s-79.42858069-41.13663317-98.94559972-82.12484893c-2.00364829-2.67153067-6.38199125-12.76398251-11.08190776-4.94727964s-15.43551317 22.26276011-20.48173967 35.27410688c-4.69991651 9.39983189-15.11394077 23.84588914-22.83169678 30.22788039-4.03203299 3.36415061-12.36819968 9.22667691 0.32157355 8.73194951 1.68207474 1.01419235 3.71045945 1.68207474-0.98945593 14.1244837s-5.71410887 26.86373091-8.06406713 37.59932871-3.01784064 21.17435847-8.06406599 29.68368015-5.98620843 10.68612494 2.00364828 11.42821659c0 8.73194951 4.37834297 75.89127509 5.39253533 98.07982592 0.49472853 7.04987363 4.94727965 9.57298688 8.55879452 9.05352307-1.01419235 4.52676153-1.50892089 4.52676153 4.52676039 16.62286051s21.66908701 54.42008064 21.66908701 73.04658944c1.01419235 3.04257707 8.06406599 3.04257707 9.57298688-0.98945593 0.98945593 6.55514624 34.75464192 50.88277504 45.83654968 56.8937199 1.01419235 6.06041771 4.94727965 25.20639147 9.57298688 11.60137272 4.52676153 2.47364039 22.83169678 18.45335495 40.64190464 26.51742095 6.7035648 2.69626709 15.11394077 4.69991651 17.11758906 11.77452544 1.01419235 5.3677989 13.77817486 18.13178141 9.07825948 0 0.66788238-0.34630997 30.89576391 8.36090311 45.66339356 9.3750966s26.54215737 0.69261881 31.24207389 4.72465181 12.36819968 8.73194951 12.36819968 0c0-3.36415061 48.03808939-18.79966379 75.91601265-18.79966379 8.38563954 0 19.78911971-3.04257707 7.04987364-6.06041771 3.01784064-1.68207474 50.04173767-34.25991453 55.7558454-41.65609813 3.01784064-2.67153067 29.88157155-10.06771427 14.42132196-15.11394077 0.69261881-2.34995826 13.11029248-23.15327033 15.80655958-30.54945393a159.45083449 159.45083449 0 0 1 14.42132081-27.55634973c3.01784064-3.68572416 8.06406599-10.06771427 3.01784064-8.38563954-0.66788238-7.04987363 3.04257707-53.90061568 4.05676943-60.45576192s2.00364829-20.16016611-1.53365618-19.64070115c-3.51256917 0-14.09974841-35.27410688-19.6407023-45.34182229 3.5373056-3.04257707 5.54095389-4.94727965 9.07825949 1.50892088s0.29683712 32.77573006 18.1317814 23.6727353a63.89412181 63.89412181 0 0 1 3.53730447 44.84709262c-4.94727965 16.10339669-11.60137159 46.85074205-0.51946383 43.31343644 0.51946496 6.55514624-4.52676153 28.22423211-13.08555605 37.79722012s-26.71531235 34.75464192-9.57298688 31.21733632c0.49472853 2.02838471 4.52676153 3.04257707-2.47363926 10.09245184s-17.63705287 17.63705287-32.15732053 24.73639936-33.74044957 16.10339669-30.20314396 33.74044957c-4.55149795 6.06041771-38.81141134 17.14232547-60.45576192 20.16016611-15.63340459 1.50892089-30.74734535-3.01784064-27.21004089 12.59082866-3.5373056 2.47364039-33.24572217 8.31143026-62.21204594-1.50892088-10.58717923-4.27939726-26.44321166-15.11394077-32.9983579 3.78466872-1.75628402 2.25101255-18.13178141 9.05352192-42.32398052-17.63705287-11.08190777-11.84873586-27.45740402-33.4930853-35.27410688-20.16016611-4.52676153 2.77047637-22.26276011-6.28304555-37.10460018-36.26356281-3.78466873-7.56933859-17.14232547-42.81870905-23.94483484-24.93429077-2.25101255 2.25101255-11.3292709-1.78102045-24.7364005-46.85074205-4.52676153-17.31548046-9.89456043-67.53037198-20.13542968-46.35601352-0.39578283 1.01419235-6.30778197 7.6682843-8.83089408-4.94727963-1.08840163-15.95497813-2.47364039-54.91480803-2.4736404-70.69663232s-3.01784064-40.64190578-10.76033422-20.8280485c-3.01784064 4.03203299-4.35360654 10.76033422-5.3677989-11.08190777s7.17355577-44.35236523 14.22343054-65.1556773z m474.74099087-388.3614811c7.79196643 0 2.84468565-4.35360654 2.84468565-4.35360655a116.53318087 116.53318087 0 0 1-15.95497813-7.98985784c-4.03203299-2.25101255-12.83819179-0.74209166-14.34711154 0s-7.04987363 4.55149795-6.80251051 6.8025105c5.78831815 7.12408291 26.44321166 5.61516317 34.25991453 5.61516317z m288.40168789 156.58141241c-0.49472853-2.00364829 0-2.67153067 0-2.67153181-3.5373056-0.91524665-9.89456043-23.52431673-9.89455929-26.04742883-3.78466873 6.80251051-1.01419235 31.48943701 2.27574898 40.32033223s8.11353885-9.64719616 7.61881031-11.60137159z m60.70312619-67.25827243c-27.70476829 5.29358962-34.01255026 25.94848427-34.50727765 30.99470962s11.57663517-1.50892089 17.31547932-5.29358962c3.33941419-10.66138851 17.19179833-25.77532928 17.19179833-25.77532928z m88.92735829 59.83735239c2.00364829 1.58313017 22.65854293 6.10989056 38.01984683 17.95862641 0.98945593 0.76682809-17.31548046-28.62001493-36.26356281-26.3937388-2.10259399 0.66788238-3.78466873 6.82724693-1.75628402 8.43511239z m-10.8345435 128.80243484c17.88441714-1.26155662 27.95213255-32.15732053 27.95213255-32.15732053-12.09610013 6.80251051-28.19949568 4.03203299-29.21368803 4.94728079 0.49472853 1.97891186 1.01419235 25.67638357 1.26155548 27.18530331z m-30.74734535-169.79065059c4.55149795-7.81670286 25.20639147-9.32562261 25.2063926-9.32562261-14.37184797-5.26885319-38.29194752 3.28994133-44.52552021 6.85198336s15.03973149 4.45255225 19.31912761 2.44890282z m-96.47196047 264.08580779a34.18570525 34.18570525 0 0 1 16.44970667 32.89941219c-6.38199125 16.7960155-24.51377266 9.74614187-26.19584739 5.71410887-4.94727965-16.10339669 8.38563954-12.76398251 10.06771427-9.39983189-0.66788238 10.06771427 6.72830123 7.04987363 8.41037597 5.36779776 2.00364829-13.43186489-1.01419235-16.7960155-3.71045945-19.78911971-19.46754731-13.77817486-27.87792327 10.0924507-27.21004089 19.49228373 0.98945593 18.13178141 23.15327033 24.51377266 34.63096092 22.26276011 19.78911971-4.94727965 21.49593202-32.57783865 21.14962205-37.94563755 14.12448483-4.03203299 14.84184007-12.76398251 14.84184007-22.85643435s-6.38199125-4.03203299-7.71775716-1.68207474c-12.09610013 9.74614187-20.50647609 4.69991651-31.90995626-4.03203299-42.67029049-28.19949568-76.68284075 12.76398251-76.68283961 12.76398137 22.28749653-15.93024171 58.55105934-5.7388453 67.97562652-2.81994923z m-50.61067434 140.52748856s30.47524466-1.78102045 34.50727879 0c0.49472853-3.28994133-18.65124523-21.17435847-45.09445803-14.37184796 3.01784064 5.46674461 10.06771427 7.24776505 10.58717924 14.37184796z m40.79032434 46.08391396l35.52147 12.86292822c-7.04987363-22.93064249-41.06242389-28.71896064-43.58553713-27.45740402 2.52311325 3.95782371 8.06406599 14.52026653 8.06406713 14.52026652z m20.90225778 91.20310727c-0.49472853-28.71896064-8.03932957-39.30613987-12.59082752-47.8649344s-6.80251051-6.80251051-8.8061588-4.94727964c-0.24736427 1.78102045-3.41362347 17.63705287-3.41362346 17.63705286 5.49148103 0.07420928 21.792768 29.31263374 24.81060978 35.1009519z m-62.70677448 50.11594581c1.75628402-0.49472853 13.35765561-26.69057593 11.84873586-47.59283371l-16.12813312 11.08190778c0.66788238 5.21938034 5.78831815 28.1252864 4.27939726 36.43671779z m-145.72213248-85.76109909a67.28300771 67.28300771 0 0 0 15.75708672 54.6674449c-1.01419235-6.06041771 0.74209166-39.57824057 0.74209166-39.57824056-3.01784064-1.43471161-14.74289437-15.16341362-16.49917838-15.16341248zM164.34222722 282.21739575c16.12813312-6.03568128 20.16016611 0 24.19219911 4.94727965 13.60501987 16.10339669 5.54095389 41.80451669 3.51256917 54.91480803a365.10926507 365.10926507 0 0 0-3.51256917 55.90426397c0 25.70112 3.01784064 8.06406599 3.51256917 4.94728078 1.01419235-65.99671581 14.12448483-83.46061369 21.17435847-99.5887468s-10.0924507-3.01784064-10.09245184-3.01784064c-4.94727965-55.23638158-36.26356281-35.42252544-42.81870791-25.45375574s1.01419235 9.35035904 4.032033 7.34671075z m50.58593792-32.60257621C188.16338107 219.51062129 165.60378384 241.64969926 161.57175085 245.68173226s1.75628402 5.54095389 3.28994133 3.93308728c15.11394077-16.49917838 38.78667491-3.1662592 45.83654855 2.86942322s4.22992441-2.86942208 4.22992441-2.86942322z m162.64183125-62.11310022c-24.19219911-41.80451669-58.45211363-30.72260893-65.9967158-28.71896064 8.55879453 2.02838471 28.19949568 23.17800675 32.75099363 32.75099363 10.56244281 40.29559581-23.67273529 72.03239709-32.15732053 77.07862357s-1.50892089 8.06406599 3.5373056 5.54095275c71.01820473-53.90061568 29.68368014-101.27082155 20.16016612-107.80123136 10.06771427-4.55149795 32.15732053 17.61231645 37.77248256 21.14962205s3.93308729 0 3.93308842 0z m-95.33408597 143.5948032c63.47360256-28.71896064 125.93301277-6.06041771 125.93301276-6.06041885-4.52676153-11.08190777-53.40588829-21.66908701-59.36736028-24.73639936 16.12813312-10.56244281 28.19949568-34.25991453 31.73680128-45.34182229s-4.94727965-2.00364829-7.04987364 0c-14.61921223 27.70476829-33.24572217 38.29194752-46.35601465 43.8329014a106.71282973 106.71282973 0 0 0-44.82235619 29.21368804c-4.62570723 5.59042674-0.07420928 3.58677845-0.07420928 3.09205106z m-25.70112 5.54095274c13.60501987-20.16016611 43.33817287-36.28829923 43.33817287-36.2882981-3.98256014-9.54825045-32.75099363 9.07825835-37.30249159 11.6013716-8.68247666-38.21773824-40.83979605-12.61556395-42.81870791-7.04987478s-2.47364039 4.52676153 0 4.94728078c7.56933859-6.03568128 17.14232547-11.57663517 27.21003975-9.57298688s8.06406599 24.26640839 9.57298688 36.36250738z m176.32106041 242.41672078c-18.6265088-14.59447581-30.22788039-16.62286051-31.53891101-11.08190663s-6.97566435 5.54095389-12.78871893-1.50892089c-11.99715442-14.44605725-22.06486869-17.53810717-28.71896064-17.56284359a48.13703509 48.13703509 0 0 1-14.84184007-1.28629305 124.20146517 124.20146517 0 0 1-27.68003072-12.88766464c-14.84184007-10.06771427-11.3292709 2.47364039-6.80251051 5.54095389 17.14232547 12.09610013 106.81177543 40.81505963 118.90787556 44.94603947s3.46309632-6.25830912 3.46309632-6.25830912zM242.92977054 642.94831786c-10.56244281 8.06406599-24.16746269 2.47364039-28.19949681 0-29.68368014-25.20639147-11.08190777-102.77974243-11.08190664-102.77974244-43.75869213 100.75135773 20.55594894 124.94355683 27.18530333 125.43828537-19.64070115 34.25991453-3.01784064 56.89371989 2.02838471 61.46995427 15.60866816 9.57298688 12.59082752 20.16016611 13.60501988 27.21003976 39.28140345 136.05020103 149.60574805 123.43463595 171.76956245 121.40625123 93.70148409-20.65489351 101.27082155-93.70148409 101.76555008-110.32434347 7.2972379-91.92046251-74.55551033-135.53073607-86.57740004-140.55222613s-14.09974841-3.5373056-17.11758905 0c-53.2327333 20.30858467-84.62322461 71.53766855-93.20675555 80.34382735s-1.50892089 14.84184007 2.02838471 14.84184006c57.63581269 4.30413369 64.98252345-35.76883427 66.4914432-41.30978816s2.02838471-5.54095389 2.02838585-6.5551451c44.82235733-8.55879453 66.4914432 20.65489351 70.52347619 25.18165504-14.09974841-8.55879453-43.33817287-3.01784064-44.84709376 0 1.01419235 6.55514624-2.00364829 8.06406599-2.47363925 7.81670173-14.09974841-0.74209166-31.73680128 15.88076885-36.26356281 20.40753038s-1.50892089 3.01784064-0.49472853 4.94727965c14.09974841-0.51946496 47.34546944-7.56933859 52.88642332-12.09609899 48.35966179-5.54095389 52.88642333 51.37750243 51.94644025 59.36736028-15.11394077-29.21368803-34.25991453-33.24572217-35.76883428-30.22788153 0 6.55514624-7.56933859 7.56933859-9.57298688 7.04987478-7.56933859-7.54460217-35.27410688-6.03568128-48.87912675-2.00364829s-4.52676153 8.55879453 1.01419235 9.57298688c23.67273529 6.55514624 55.40953657 3.51256917 61.46995428 3.51256804 27.70476829 30.74734535 9.05352192 70.54821262 3.01784064 74.58024675-3.01784064-47.8649344-19.64070115-47.37020587-24.19219911-45.34182115s-6.03568128 0.98945593-9.05352192-1.01419236c-27.21003975-17.14232547-50.88277504-9.57298688-50.83330219-9.57298688 16.2023424 22.65854293 42.76923619 26.69057593 53.85114283 29.68368015 9.07825835 37.77248256-14.61921223 52.88642333-20.65489465 55.90426395 2.47364039-4.52676153-0.49472853-31.73680128 0-35.24937045a21.1990949 21.1990949 0 0 1-16.96916935-6.72830123c-28.19949568-27.5316133-56.42372893-19.46754731-65.82356082-18.79966378s-1.3357659 7.42092003-1.3357659 10.7355978c8.73194951 18.13178141 25.52796501 29.55999801 34.92779691 32.92414862-52.39169593 5.3677989-66.4914432-28.89211563-73.88762681-41.65609813 39.57824057-14.05027555 40.29559581-36.93144519 40.2955958-40.29559581-45.19340259-11.30453447-56.89371989-20.63015822-62.75624732-27.40793116-1.78102045-2.07785757-1.80575687-6.85198336-0.56893781-7.42092004 16.62286051-8.63300381 28.81790635-14.37184797 34.45780593-8.73194838 10.73559779 14.84184007 8.03932957-1.36050233 8.03932957-7.42092003 0-19.49228373-16.10339669-12.36819968-16.44970553-17.81020899-5.3677989-56.74530133 25.52796501-55.40953657 36.95618161-59.09525959s10.73559779-6.06041771 15.43551318-10.93348921c13.43186489-16.64759694-1.68207474-15.26235933-2.67153067-13.25870991-1.68207474 10.06771427-23.84588914 13.43186489-24.53850908 13.25870991-22.48538795 5.86252629-35.24937045 22.26276011-35.694625 33.76518713s-3.93308729 6.7035648-4.94728078 5.36779776c-30.74734535-15.95497813-31.73680128 20.65489351-30.74734535 25.03323762 2.02838471 15.11394077 14.09974841 13.11029248 16.79601664 12.36819968 12.36819968-4.94727965 8.73194951-13.43186489 8.73194837-17.78547144-7.04987363-11.42821661-8.38563954-1.01419235-7.71775601 3.68572302 0.66788238 8.06406599-7.42092003 3.85887801-9.3998319 1.33576591-3.5373056-9.57298688 2.47364039-19.14597376 14.5944758-17.61231645 22.26276011 5.54095389 13.60501987 22.26276011 12.36819968 31.73680128-49.47279986 43.31343645-43.21449074-25.20639147-40.69137749-34.25991453 36.26356281-66.51617963 104.78339072-75.07497415 117.37421824-76.0891665-38.63825749-10.51296995-97.58509853 35.32357973-108.17227776 43.38764573z m172.28902628 46.85074204c5.54095389-1.50892089 34.77937835 0 34.77937835 0-4.94727965-9.57298688-34.77937835-14.61921223-45.34182116-15.11394076s7.04987363 12.09610013 10.56244281 15.11394076zM452.49655198 739.42027831c0 1.75628402 13.11029248 5.78831815 25.70112 16.37549739 0 0-15.60866816-32.15732053-31.24207388-32.75099477-2.00364829 3.01784064 5.54095389 14.61921223 5.54095388 16.37549738z m-8.13827527 55.16217231c7.07461006 3.04257707 14.12448483 16.62286051 15.63340459 23.17800676 4.67518009-14.84184007-6.55514624-46.35601351-6.55514624-46.35601352-1.80575687-5.76358173-11.55189874 16.64759694-9.07825835 23.17800676z m-34.63096092 36.78302663c2.02838471 5.54095389 4.03203299 21.66908701 4.94728078 24.7364005 8.58353095-6.53040981 6.55514624-38.29194752 6.5551451-38.29194752-4.9967525 11.55189874-12.04662727 9.02878549-11.50242588 13.55554702z m-96.7193236-13.60501987c-2.00364829-1.50892089-12.59082752 0.76682809-15.11394076 7.56933859 0 2.00364829 16.62286051 21.14962205 38.78667492 20.65489351-0.04947285 0-23.72220814-18.65124523-23.72220701-28.2242321z m-98.0303542-346.30960128c19.44281088 28.89211563 44.30289237 70.20190379 134.98653582 106.98493042 49.6954277 21.99065941 166.57491854 64.95778702 174.63898454 144.5595227 2.67153067 21.1990949 29.68368014 132.68605042-110.17592605 160.242399-28.19949568 1.3357659-142.38271943 6.7035648-175.30686805-128.97558983-2.69626709-8.73194951-11.42821661-26.86373091-8.73194838 11.08190776-4.69991651-0.66788238-19.78911971-14.84184007-17.81020899-31.90995626-0.98945593-3.36415061-4.94727965-12.76398251-7.42092003 1.68207474-0.9647195 18.77492736 32.15732053 130.45977429 131.79554019 162.8149851a255.35385827 255.35385827 0 0 0 30.94523677 5.68937245c48.68123534 3.88361443 143.05060181 2.47364039 172.98164622-101.27082155 0.66788238-5.3677989 36.06567139-123.2614821-105.00601856-194.50231467-28.17475925-13.82764771-70.67189475-27.01214834-110.25013533-49.17596274-10.41402425-5.81305458-37.84669184-24.09325341-43.26396359-28.0016054-32.15732053-23.30168889-93.80042866-84.82111602-39.87507769-181.36728576 0 0 19.46754731-51.74854883-20.16016611-35.3235786-9.44930475 14.39658439-43.65974642 71.51293213-7.39618361 157.49665906z m463.23856498-116.43423517c-0.9647195 0.34630997-22.13907797 2.86942208-24.14272626-10.85927993-0.54420025-3.58677845 29.68368014 3.28994133 29.68368014 3.28994134 5.21938034 2.2015397 0.54420025 5.31832605-5.59042674 7.59407501z m48.90386318 7.42092004c-70.72136761 41.58188885-94.71567645-1.18734734-101.02345842-16.40023381-3.78466873-9.10299477 13.35765561-11.84873586 16.62286052-2.81994923 23.17800675 39.77613085 43.33817287 18.42861853 51.94644025 11.13138062 6.82724693-5.83778987 25.30533717 1.60786546 32.55310336 4.94727965 1.75628402 0.69261881 0.84103737 2.49837682-0.14841856 3.06731349z m-230.0485211-164.79389696c8.31143026-18.37914567-12.59082752-25.94848427-13.60501988-26.9379402 37.77248256-42.57134478 90.41154275-28.96632491 90.41154162-28.96632491 8.58353095 3.51256917 1.78102045 6.03568128-5.78831701 7.42092004s-23.42537102 12.71450965-25.67638357 12.36820081c-2.47364039-0.74209166-21.66908701-0.49472853-29.68368015-0.24736426s-6.15936341 9.07825835 8.75668594 8.45984882c8.06406599-0.32157355 4.60097081 4.94727965 3.58677731 6.67882837a94.36936647 94.36936647 0 0 0-26.96267548 57.61107513c-5.54095389 3.73519587-11.57663517 8.85563165-21.39698631 20.45700324s15.11394077-2.47364039 19.64070229-0.24736427c0 5.29358962 4.27939726 43.06607218 4.94727965 49.07701817s4.52676153 3.06731349 6.03568128 3.06731349c-2.47364039 8.55879453-1.01419235 39.28140345 0 42.8929172 2.02838471 0.56893667 6.55514624-12.17030941 11.08190777-15.70761387 4.55149795 19.14597376 45.34182115 40.81505963 48.87912675 46.45495921 1.16261091 16.07866027 15.11394077 27.60582258 21.14962205 29.13947989-1.01419235-3.5373056-2.00364829-8.06406599-2.00364942-20.16016611 4.03203299 1.01419235 67.50563555 22.65854293 74.0360465 25.18165504-1.50892089 17.63705287 10.58717923 28.22423211 16.27655054 29.21368918-2.47364039-4.52676153-1.65733831-17.61231645 0-25.18165619 42.05187982 9.07825835 57.78423011 44.3276288 57.28950272 48.87912677-28.22423211-45.86128611-44.84709376-4.94727965-43.33817287 0-31.73680128-8.58353095-54.91480803-49.89331911-57.41318485-53.40588715-28.22423211-15.63340459-29.68368014 7.54460217-27.70476828 10.58717923s-1.01419235 4.94727965-2.47363926 4.00729657c-21.66908701-1.50892089-43.33817287-25.18165504-49.96752839-36.26356281-12.17030941-23.67273529-29.68368014-29.21368803-32.15732053-25.13218218a8.88036807 8.88036807 0 0 1-10.58717924 3.98256013c-17.95862642-9.57298688-18.6265088-48.87912675-19.64070116-73.07132586s-24.16746269-18.13178141-31.24207388-16.72180622c-12.56609109-35.84304355 31.01944605-76.38600363 37.57459228-83.51008654z m139.29066837 294.73420629c-4.03203299 4.94727965-47.69177941-23.84588914-51.72381241-25.18165504-4.94727965-3.71045945-60.13418837-43.33817287-68.51982791-48.87912676s-5.71410887-6.20883627-2.47364039-10.24086926c18.47809138-14.84184007 56.10215538 29.38684302 56.10215538 29.38684302 4.94727965 7.56933859 21.14962205 30.22788039 25.8000657 29.68368015 22.80696035 5.54095389 15.50972245-11.08190777 17.51337074-17.14232548 14.61921223-7.42092003 53.90061568 22.68327936 63.62202112 35.76883541 26.36900238 18.65124523 46.33127709 7.22302862 46.33127822 7.22302863-12.88766464 15.4602496-50.51172864 10.98296206-59.58998812 10.76033422-12.36819968 0.98945593-14.84184007-20.8280485-21.47119559-31.90995627s-8.41037597-1.01419235-6.72830123 4.35360654 4.18045155 11.05717134 1.16261092 16.10339556z m455.66922639-209.0720529c6.13462699-15.11394077-3.28994133-20.65489351-5.961472-22.68327936-13.45660131-9.39983189-22.85643321 10.76033422-36.23882639 23.52431672s-44.03079168 6.38199125-54.74165305 0c-9.02878549-9.74614187-54.12324352-29.68368014-61.42048142-32.92414862 15.43551317-4.37834297 50.95698432 12.76398251 70.10295694 21.49593201 25.87427499 9.74614187 34.63095979-13.43186489 35.27410688-20.16016611 2.00364829-23.84588914-36.26356281-26.86373091-39.57823943-28.54580565 45.6633947-22.26276011 57.09161131 19.14597376 57.09161131 19.14597376 1.01419235 2.86942208 3.68572416 3.36415061 6.70356366 2.34995712 21.84224085-7.04987363 31.58838272 2.34995826 34.95253334 6.87671979 12.71450965 21.27330418-1.80575687 32.45415651-6.15936342 30.84629106z m-615.19427016 113.78743978c15.41077675 10.78507065 23.37589817 14.0008027 27.21003976 14.84184007 2.27574898 0.54420025 3.48783275 1.73154759 3.5373056 2.32522183 0.86577379 8.9051045-21.52066845-4.40307939-34.63095979-14.17395768-14.24816697-10.56244281-0.81630094-5.51621746 3.90835086-3.1662592z m304.6040303-158.04086044c0-1.50892089-19.14597376-0.74209166-22.90590606-0.4947274-4.62570723 2.22627613-21.42172274 6.30778197-48.87912676 8.06406599-40.54296007 2.77047637-39.03403918-31.24207389-36.51092594-42.81870791s33.74044957-26.19584739 34.75464192-28.9663249c-2.47364039 3.51256917-23.94483485 3.01784064-32.9983579 2.47364038 1.26155662-33.24572217-25.70112-47.84019797-32.9983579-52.11959523-58.6994779-38.29194752-89.91681422-31.48943701-113.61428594-30.99470962-30.22788039-4.94727965-31.46470059 21.66908701-31.73680128 31.73680128-29.95578083-29.68368014-11.08190777-46.85074205 9.89456042-56.8937199 33.51782173-14.84184007 103.27446983 6.28304555 111.85800079 8.31143027 7.79196643-22.93064249 52.88642333-9.57298688 57.68528555-6.06041771-47.8649344 25.94848427 3.7599323 49.12649102 17.31548046 51.40223886 25.45375573 0.49472853 18.13178141-22.93064249 17.31547932-27.72950471-13.85238414-32.9983579-59.71367026-51.13013931-79.35437141-59.68893269-33.4930853-12.59082752-41.55715243 8.31143026-44.3276288 14.09974841-31.24207389-27.95213255-8.80615879-38.78667491 4.52676153-44.52552022 41.06242389-14.61921223 114.3563776 43.83290141 114.3563776 43.83290027 16.12813312-17.63705287 52.39169593-4.94727965 58.94684103 0-22.90590606 3.58677845-27.21003975 8.26195741-28.57054208 13.43186603a66.29355179 66.29355179 0 0 0-1.01419236 16.05392269c4.25466083 15.16341362 25.47849216 26.76478521 34.63095979 28.94158848 50.36331008 2.02838471 53.03484189 21.12488562 49.472801 29.68368015-0.89051022 2.15206685-5.961472 5.39253533-6.53040982 7.42092004-1.11313806 3.85887801 0 9.89456043 3.36415062 12.36819968s11.40348018 1.95417543 17.31547932 1.0636652a33.76518599 33.76518599 0 0 0 9.67193258-4.89780678c5.83778987-4.94727965 12.36819968-8.45984882 16.94443407-12.5660911-0.49472853-24.19219911 14.61921223-24.19219911 21.669087-25.70112a30.62366322 30.62366322 0 0 1 28.71896064 22.65854294c31.73680128-1.50892089 13.60501987 22.68327936 13.60501988 31.24207274 4.94727965 4.52676153 22.26276011-32.15732053 25.67638357-37.27775516 2.02838471 4.03203299 1.50892089 14.09974841 2.02838471 21.14962204s13.60501987-7.04987363 18.13178027-6.03568128c0 12.09610013 0.32157355 9.57298688-6.03568128 19.6407023-10.61191566 10.19139641 7.42092003 7.86617571 14.4955301 6.57988152 1.3357659-0.24736427 1.31102947 0.86577379 0.7420928 1.53365731-10.88401635 12.54135467-3.06731349 17.1670619-1.13787449 18.60177238 15.11394077 3.51256917 42.29924409-0.51946496 50.36331008-1.50891975 48.87912675-18.15651783 28.22423211-67.53037198 28.22423324-67.53037199-32.75099363-65.50198727-141.56641735-30.15367225-155.17143836-26.71531235-60.45576192 9.07825835-72.52712562-13.60501987-78.09281479-24.19219911-10.56244281-44.3276288 28.22423211-49.86858269 49.47279986-53.40588828 40.81505963 2.02838471 39.80086727 19.14597376 42.81870904 32.15732053-10.06771427 33.24572217-51.94644025 13.08555605-60.43102549 8.06406599 41.30978816 13.08555605 42.81870905-1.50892089 47.84019797-4.03203299 8.55879453-30.25261682-26.69057593-27.70476829-36.2635628-28.22423325-56.89371989 16.12813312-30.22788039 43.83290141-24.19219912 52.39169593 14.61921223 16.64759694 77.07862243 2.47364039 100.77609416-4.00729657 64.98252345-9.57298688 82.10011136 2.47364039 92.16782677 8.55879453 56.42372893 35.24937045 39.80086727 80.09646307 34.25991339 91.17837084-36.75829021 51.94644025-88.33368519 30.74734535-108.84016015 24.36535409s-19.78911971-1.36050233-20.82804849 0.98945594c-9.39983189 24.86008263-17.78547143 27.21003975-16.77128022 22.26276011s0-6.35725483-4.94727964-20.1354297-15.4602496-7.04987363-16.12813312-4.69991651c-4.94727965 8.83089522-10.06771427 12.36819968-11.08190664 17.11758904-1.01419235 20.8280485-14.84184007 27.55634973-17.78547142 25.20639147a34.63095979 34.63095979 0 0 0-3.71046059-13.45660131c-2.69626709 2.34995826-14.84184007-0.66788238-18.47809024-3.01784064 10.90875278-1.92943901 14.44605725-15.78182315 14.44605724-18.13178141-18.47809138 9.39983189-37.27775517 8.73194951-41.30978816 10.06771428 5.3677989 1.36050233 35.15042475 24.61271837 44.00605525 32.15732054 15.2376229 6.38199125 23.07906105-4.45255225 30.64839965-11.94768157 2.84468565-2.84468565 1.16261091 19.12123733 1.97891299 21.34751346 2.12733042 5.88726272 24.39009053-8.92984093 1.26155549-36.09040783-2.12733042-2.47364039 0.19789141-6.77777408 1.95417657-6.43146411 16.7960155 9.72140544 14.52026653 33.12204003 13.852383 53.60377971-4.35360654 46.67758706-35.59567929 46.99916061-43.31343644 45.0202476 20.8280485-21.17435847 3.01784064-20.16016611 3.01784178-18.82440021-23.84588914 39.97402226-78.24123335 20.48173966-81.95169394 17.46389789 53.40588829-11.74979015 25.87427499-46.33127709 21.49593202-51.37750244-17.46389902-14.09974841-20.48173966-3.36415061-20.82804964 0.32157355-1.95417543 31.61311915-9.89456043 53.95008853-19.12123733 70.0287488-4.94727965-2.00364829-10.04297899-3.78466873-15.21288533-5.41727175 18.47809138-37.25301874 19.39333803-85.66215339 19.39333688-86.84950073z m144.33689486-24.93429078c3.51256917 4.55149795 7.04987363-6.80251051 7.81670286-12.36819968s-3.5373056-3.26520491-6.30778197-3.01784064c-3.7599323 0.49472853-1.48418446 15.21288647-1.48418447 15.21288534z m-43.41238215 15.88076886a21.61961415 21.61961415 0 0 1 0.64314595-7.00040078c0.27210069-1.08840163-0.44525568-2.96836779-1.70681116-2.79521394-2.32522183 0.34630997-5.61516317 1.55839374-5.49148103 5.54095388 0.42051925 8.80615879 7.00040078 13.38239203 6.57988267 4.08150585z m11.08190777-55.26111801c1.75628402 8.9051045 5.49148103 6.7035648 6.20883626 5.71410886 0.91524665-2.47364039 0-4.94727965 5.3677989-4.94728077 8.73194951-4.69991651 10.76033422-20.13542969 9.74614187-22.83169678-7.42092003-11.37874375-12.56609109 9.4987776-14.37184911 18.75019093-0.49472853 2.47364039-2.32522183 2.12733042-3.11678634 1.23682019a32.40468366 32.40468366 0 0 0-17.4391626-10.58717923c-20.06122041-3.09204992-14.02553913 9.00404907-8.48458524 11.00769849 9.35035904-0.54420025 19.31912875-0.54420025 22.11434268 1.48418332z m-63.20150301 18.55230065c-1.13787449-1.31102947-2.96836779-3.61151488-4.67517895-5.63989958-0.56893667-0.69261881 0.12368213-1.55839374 0.98945593-1.38523877 32.65204793 6.30778197 37.84669184 2.15206685 44.52552021-1.6573383 6.55514624-5.41727175-0.49472853-6.67882837-2.47364039-6.67882837-15.85603243 3.5373056-25.99795598-12.81345536-25.99795598-12.81345536-7.81670286-2.67153067 3.51256917 10.76033422 4.27939726 13.77817486s-2.47364039 3.26520491-7.19829333 2.32522183c-12.49188181 0-32.60257507-6.10989056-34.11149483-6.10989056 1.50892089 9.57298688 11.57663517 16.12813312 18.37914453 20.90225777s7.89091214-0.93998307 6.28304555-2.72100352z m84.69743389 64.58674063c-7.17355577 6.7035648-21.05067634 8.92984093-21.05067634 8.92983979s0-8.92984093-3.46309632-14.32237512c-5.49148103 3.36415061-24.51377266 0-24.51377152 0v16.99390691s-21.07541277 2.47364039-22.41117867 1.83049331c47.12284274 28.19949568 71.53766855-13.43186489 71.53766855-13.43186489z m-78.16702408 8.92983979h17.46389903s2.47364039-39.15772131-14.56974052-26.39373882c0.46999211 14.09974841 2.81994923 18.13178141-2.89415851 17.78547144a65.72461511 65.72461511 0 0 0 0.09894571 8.60826738z m-28.79316992-28.96632378a114.67795115 114.67795115 0 0 0 16.87022479 16.49917839c2.12733042 1.95417543 8.97931378 7.14881934 11.84873585-0.49472853 0.98945593-4.45255225 1.70681117-4.52676153-2.86942208-9.74614074 0 0-19.46754731-24.51377266-28.19949568-17.14232547-1.65733831 2.69626709-3.33941419 3.28994133 2.34995712 10.88401635z m-2.34995712-84.77164316s-17.11758905-28.19949568-56.74530246-27.5316133c1.3357659 5.3677989-0.66788238 8.73194951-8.73194952 8.064066s-38.9598299-1.36050233-26.54215736 4.03203299c6.06041771 0 18.15651783 4.03203299 9.07825948 5.3677989s-26.54215737 2.47364039-26.54215737 10.06771541c6.06041771 1.01419235 48.38439822-3.68572416 54.76638947 9.42456832 6.7035648 10.73559779 19.14597376 19.46754731 33.91360456 9.72140544 1.3357659-1.68207474 4.35360654-6.38199125-0.66788238-4.35360655s-15.85603243 7.89091214-26.54215738-7.0746112a25.45375573 25.45375573 0 0 1-1.31102947-5.21938033c-0.34630997-2.17680327-2.47364039-4.42781582-12.36819968-4.57623324-3.01784064-0.5936731-7.42092003-5.29358962-0.98945593-5.6398996s19.12123733-2.69626709 19.46754617 1.33576591-4.35360654 12.09610013 6.72830123 18.1317814c4.47728867 0.86577379 8.9051045 2.47364039 14.66868508-5.86252743a33.04783075 33.04783075 0 0 1 4.57623438-5.24411676c2.47364039-0.71735523 5.46674461-1.73154759 7.7919653 2.22627612 2.74573995 4.87307037 17.53810717 11.25506162 9.47404231-2.86942208z m-8.38564067 49.15122631c4.94727965 0 3.85887801-6.06041771-2.47363925-9.07825835-4.69991651-2.47364039-22.51012437-8.38563954-48.35966294-11.67558086s-30.22788039 5.961472-33.592031 9.89455928c-4.69991651 16.12813312 2.02838471 19.14597376 6.72830122 22.78222507 13.43186489 4.32887011 12.36819968-6.65409195 12.36819968-8.33616669-4.94727965-6.06041771-1.01419235-10.06771427 1.36050234-11.08190776 6.7035648-2.47364039 8.55879453 4.03203299 7.24776504 10.06771541-1.21208377 5.61516317-10.95822563 15.78182315-19.02229162 20.77857565-15.11394077 10.04297899 2.34995826 9.1277312 9.42456832 7.42092003a46.55390493 46.55390493 0 0 0 34.63095978-38.29194752c1.13787449-5.02148893 26.98741305 7.07461006 31.68732843 7.51986574z m-14.09974727 8.06406713c-14.84184007-2.27574898-18.10704498-0.12368213-19.6407023 1.929439-0.74209166 0.98945593 0.84103737 9.89456043 3.19099563 9.8945593s13.08555605 0 16.44970667-1.90470258c4.69991651-8.08880242 0.09894571-10.01824256 0.0989457-10.01824142z m-9.12773234-51.94644025a4.60097081 4.60097081 0 1 1 4.60097081-4.60097081 4.57623438 4.57623438 0 0 1-4.60097081 4.55149795z m-22.11434154 203.03637162c-17.78547143 14.42132082-16.7960155-3.04257707-10.7355978-7.56933859a83.58429582 83.58429582 0 0 0 16.72180736-20.63015709c4.94727965 1.55839374 9.89456043 3.24046848 14.84184007 5.09569821a113.78744093 113.78744093 0 0 1-20.82804963 23.05432462zM229.81947806 347.5957009s-30.72260893 25.62691072-6.03568128 121.77729763c-4.03203299-7.54460217-37.27775517-78.68648903-5.54095388-133.57656064 5.54095389-5.39253533 17.61231645-8.28669383 11.57663516 11.79926301z m280.73340473 270.19569834c-5.91199915-7.42092003-39.40508558-21.69382343-44.00605525-24.7364005 4.47728867-20.13542969 26.76478521 3.5373056 33.81465884 10.09245184s13.60501987 12.09610013 20.11069327 14.09974728c12.54135467 1.01419235 28.24896853 33.24572217 28.24896853 33.24572216 1.23682019 2.39943111-34.25991453-26.69057593-38.16826539-32.70152078z" p-id="150951" fill="#36ab60"></path></svg>