<svg t="1699277984756" class="icon" viewBox="0 0 1024 1024" version="1.1" xmlns="http://www.w3.org/2000/svg" p-id="75071" width="48" height="48"><path d="M386.78 747.03c-0.26-6-2.3-12.89-4.96-20.05-0.1 40.72 1.57 96.99 7.46 169.71 0.89-21.08 0.99-63.73-2.5-149.66z" fill="#ABD0CA" p-id="75072"></path><path d="M472.8 138.84c-1.15 0.68-2.3 1.41-3.5 2.19h-0.05c-1.15-1.1-2.3-2.09-3.45-2.98l7 0.79zM518.84 81.83c-4.12 5.79-6.16 11.69-7.2 15.97-1.77 7.31-3.81 13.26-6.42 18.43-0.31-17.38-11.95-27.98-23.39-33.51 2.92-0.1 5.9-0.21 8.82-0.31 9.09-0.37 19.11-0.73 28.19-0.58z" fill="#D6D7D0" p-id="75073"></path><path d="M465.81 138.06c1.15 0.89 2.3 1.88 3.45 2.98h0.05c1.2-0.78 2.35-1.51 3.5-2.19l-7-0.79z" fill="#020202" p-id="75074"></path><path d="M472.8 138.84c-1.15 0.68-2.3 1.41-3.5 2.19h-0.05c-1.15-1.1-2.3-2.09-3.45-2.98l7 0.79zM620.32 245.48l-0.47 1.77h-0.21c0.27-0.72 0.48-1.35 0.68-1.77zM633.64 242.14a6.808 6.808 0 0 0-2.98-1.98c1.15 0.37 2.19 1.1 2.98 1.98z" fill="#ABD0CA" p-id="75075"></path><path d="M630.66 240.16c1.2 0.42 2.19 1.1 2.98 1.98-0.79-0.88-1.83-1.61-2.98-1.98z" fill="#020202" p-id="75076"></path><path d="M755.06 416.44c-30.43-65.98-51.31-225.77-51.52-227.39-0.05-0.21-0.05-0.37-0.1-0.52-15.71-78.51-81.64-84.2-90.26-84.57-31.74-6.53-43.8-21.09-48.18-29.18-4.75-8.87-15.03-12.79-24.38-9.29a35.49 35.49 0 0 0-4.54 1.98c-12.58-1.98-28.61-1.41-46.04-0.73-8.04 0.31-16.34 0.63-23.96 0.63-2.82 0-5.48 0.31-8.04 0.94a10.978 10.978 0 0 0-7.93-3.39h-0.1c-4.12 0.05-7.78 2.4-9.55 6.11-9.66 20.52-45.99 30.75-59.2 32.99-0.37 0.05-0.78 0.16-1.15 0.31-67.24 22.39-68.02 85.09-68.02 85.71 0 76.01-56.38 230.68-56.95 232.19-0.73 2.09-0.57 4.44 0.42 6.37 1.04 1.98 2.87 3.39 5.06 3.97 19.94 4.96 37.9 7 53.92 7 35.81 0 62.02-10.13 79.03-20.05-4.49 23.13-9.87 42.02-13.83 54.39-16.44 51.52-23.18 102.89-19.94 152.69 1.15 17.91 3.03 36.02 5.59 53.82 0.31 2.14 0.78 4.39 1.36 6.58-1.46 42.07-1.25 115.47 8.04 224.1 0.05 0.99 0.31 1.93 0.78 2.82 0.68 1.36 3.18 5.48 9.71 8.25 0.16 0.99 0.52 1.98 1.1 2.87 0.94 1.46 2.3 2.56 3.81 3.24 41.66 24.33 84.3 32.21 122.15 32.21 68.23 0 120.9-25.68 124.29-27.41a7.748 7.748 0 0 0 4.28-7.67c-0.05-0.57-4.91-58.94 10.44-212.56 15.66-156.5-14.72-249.94-16.18-254.27-4.59-11.54-8.2-23.18-10.81-34.71 62.38 24.01 123.35 4.23 126.07 3.29a7.724 7.724 0 0 0 4.75-4.28c0.87-2.1 0.81-4.4-0.12-6.44zM490.66 82.41c9.08-0.37 19.11-0.73 28.19-0.57-4.12 5.79-6.16 11.69-7.2 15.97-1.77 7.31-3.81 13.26-6.42 18.43-0.31-17.38-11.95-27.98-23.39-33.51 2.92-0.11 5.89-0.22 8.82-0.32zM380.15 285.73c-4.23 45.05 6.84 99.86 10.75 117.04-19.94 13.1-58.52 29.18-118.08 16.55 12.01-33.83 54.92-160 54.92-229.27 0-2.09 0.99-51.78 56.74-70.68 4.33-0.78 27.72-5.43 47.09-17.54 3.5-2.19 6.79-4.59 9.87-7.31h0.05c3.39-2.98 6.47-6.21 9.03-9.81 1.04 1.15 2.19 2.19 3.45 3.18 2.77 2.24 6.06 3.97 9.66 5.17 0.37 0.16 0.73 0.26 1.15 0.31 0.99 0.16 24.8 4.54 24.8 23.6 0 3.39 0 8.04 0.89 12.37-4.65 2.19-10.7 5.32-17.64 9.5-1.15 0.68-2.3 1.41-3.5 2.19h-0.05c-1.15-1.1-2.3-2.09-3.45-2.98-6.32-4.96-11.95-7.26-12.48-7.47-2.4-0.99-5.01-0.68-7.05 0.63-1.36 0.84-2.45 2.09-3.13 3.71-1.25 3.13-0.37 6.63 2.04 8.72 0.68 0.63 1.41 1.1 2.3 1.46 0.37 0.16 4.18 1.72 8.46 5.06-0.99 0.68-1.98 1.46-2.98 2.24-6.11 4.65-12.42 10.07-18.69 16.18-8.04-8.04-16.81-11.64-17.49-11.9a7.805 7.805 0 0 0-10.18 4.33c-1.62 3.97 0.31 8.56 4.33 10.18 0.47 0.21 6.94 2.92 12.63 8.82-21.19 24.38-39.46 58.05-43.59 103.25-0.12 0.85-0.01 1.69 0.15 2.47z m20.41 83.99c-4.44-26.99-8.51-64.68-3.55-93.6l1.62 6.79c4.33 30.18 4.28 59.83 1.93 86.81zM389.28 896.7c-5.9-72.72-7.57-128.99-7.46-169.71 2.66 7.15 4.7 14.04 4.96 20.05 3.49 85.92 3.39 128.57 2.5 149.66zM625.8 407.62c6.37-24.69 26.57-111.71 9.55-162.45-0.31-1.1-0.89-2.14-1.72-3.03a6.808 6.808 0 0 0-2.98-1.98c-0.47-0.16-0.89-0.31-1.36-0.42-1.25-0.21-2.56-0.16-3.76 0.26-0.31 0.1-0.68 0.21-0.99 0.37-0.78 0.37-1.51 0.89-2.14 1.51-0.21 0.21-0.42 0.42-0.57 0.68-0.37 0.42-0.63 0.83-0.84 1.31-0.16 0.21-0.26 0.47-0.37 0.73 0 0.05-0.05 0.05-0.05 0.1-0.05 0.16-0.16 0.42-0.26 0.78l-0.47 1.77h-0.21c-2.24 6.47-7.99 24.07-12.48 48.55 0 0.1-0.05 0.26-0.05 0.37-2.77 15.19-5.01 32.99-5.59 52.46-0.31 8.04-0.26 16.34 0.1 24.85 1.25 28.66 6.53 59.72 18.84 90.46 0.31 0.94 30.59 94.48 15.29 247.33-13.05 130.56-11.75 192.1-10.81 209.9-21.98 9.5-117.92 45.83-210.32 2.3-3.97-1.88-7.88-3.86-11.8-6 0.05-0.16 0.05-0.31 0.1-0.47 0.37-2.14 0.73-4.75 1.04-7.88 2.14-20.93 2.35-65.67-1.62-162.71-0.47-12.69-6.21-26.2-11.69-39.31-3.18-7.57-6.26-14.88-8.2-21.51-0.73-2.56-1.31-5.01-1.62-7.36-1.51-10.6-2.77-21.25-3.76-31.95-0.05-0.05-0.05-0.05 0-0.1-0.37-3.24-0.68-6.53-0.89-9.76-0.31-3.6-0.57-7.2-0.84-10.81-3.08-47.82 3.39-97.25 19.26-146.95 7.31-22.81 19.16-66.92 22.34-119.33 0.63-9.87 0.89-20.05 0.73-30.49-0.16-15.92-1.25-32.31-3.65-48.86-1.77-12.48-4.28-25-7.67-37.53-0.21-0.78-0.42-1.51-0.63-2.3-0.05-0.16-0.1-0.31-0.16-0.47 6.63-17.85 15.76-32.89 25.84-45.41 0.42 1.93 0.68 4.02 0.68 6.21 0 4.33 3.5 7.83 7.83 7.83s7.83-3.5 7.83-7.83c0-7.57-1.77-14.04-4.49-19.47 7.52-7.57 15.19-13.94 22.45-19.21 1.77 3.55 2.92 7.73 2.92 12.58 0 4.33 3.5 7.83 7.83 7.83s7.83-3.5 7.83-7.83c0-7.36-1.67-13.68-4.23-19-0.37-0.84-0.78-1.62-1.2-2.35 2.98-1.77 5.79-3.34 8.35-4.7h0.05c5.48-2.98 9.97-5.06 13.15-6.42 0.94-0.42 1.72-0.73 2.4-0.99 6.42-0.73 11.17-7.93 15.35-15.76 3.6-6.68 6.42-14.46 8.67-23.7 1.31-5.53 4.49-12.53 11.9-17.59 2.09-1.41 4.49-2.66 7.31-3.71 1.93-0.73 4.07 0.16 5.12 2.04 0.84 1.57 1.93 3.34 3.29 5.27 1.93 2.82 4.49 5.85 7.73 8.98 9.24 8.87 24.33 18.17 48.5 22.97 0.47 0.1 0.99 0.16 1.51 0.16 2.51 0 61.55 1.2 75.8 71.72 1.2 9.45 20.1 152.22 49.12 223.21-18.58 4.44-65.56 12.22-111.29-6.89z m-8.29-34.71c-1.2-29.29 1.88-56.06 5.85-77.1l2.82-10.75c1.24 29.38-3.77 62.95-8.67 87.85z" fill="#020202" p-id="75077"></path><path d="M490.45 129.34c-4.65 2.19-10.7 5.32-17.64 9.5l-6.99-0.78c-6.32-4.96-11.95-7.26-12.48-7.47-2.4-0.99-5.01-0.68-7.05 0.63-1.36 0.84-2.45 2.09-3.13 3.71-1.25 3.13-0.37 6.63 2.04 8.72 0.68 0.63 1.41 1.1 2.3 1.46 0.37 0.16 4.18 1.72 8.46 5.06-0.99 0.68-1.98 1.46-2.98 2.24-6.11 4.65-12.42 10.07-18.69 16.18-8.04-8.04-16.81-11.64-17.49-11.9a7.805 7.805 0 0 0-10.18 4.33c-1.62 3.97 0.31 8.56 4.33 10.18 0.47 0.21 6.94 2.92 12.63 8.82-21.19 24.38-39.46 58.05-43.59 103.25-0.1 0.84 0 1.67 0.16 2.45-4.23 45.05 6.84 99.86 10.75 117.04-19.94 13.1-58.52 29.18-118.08 16.55 12.01-33.83 54.92-160 54.92-229.27 0-2.09 0.99-51.78 56.74-70.68 4.33-0.78 27.72-5.43 47.09-17.54 3.5-2.19 6.79-4.59 9.87-7.31h0.05c3.39-2.98 6.47-6.21 9.03-9.81 1.04 1.15 2.19 2.19 3.45 3.18 2.77 2.24 6.06 3.97 9.66 5.17 0.37 0.16 0.73 0.26 1.15 0.31 0.99 0.16 24.8 4.54 24.8 23.6-0.02 3.4-0.02 8.04 0.87 12.38z" fill="#ABD0CA" p-id="75078"></path><path d="M625.8 407.62c6.37-24.69 26.57-111.71 9.55-162.45-0.31-1.1-0.89-2.14-1.72-3.03-0.78-0.89-1.83-1.62-2.98-1.98-0.47-0.16-0.89-0.31-1.36-0.42-1.25-0.21-2.56-0.16-3.76 0.26-0.31 0.1-0.68 0.21-0.99 0.37-0.78 0.37-1.51 0.89-2.14 1.51-0.21 0.21-0.42 0.42-0.57 0.68-0.37 0.42-0.63 0.83-0.84 1.31-0.16 0.21-0.26 0.47-0.37 0.73 0 0.05-0.05 0.05-0.05 0.1-0.05 0.16-0.16 0.42-0.26 0.78-0.21 0.42-0.42 1.04-0.68 1.77-2.24 6.47-7.99 24.07-12.48 48.55 0 0.1-0.05 0.26-0.05 0.37-2.77 15.19-5.01 32.99-5.59 52.46-0.31 8.04-0.26 16.34 0.1 24.85 1.25 28.66 6.53 59.72 18.84 90.46 0.31 0.94 30.59 94.48 15.29 247.33-13.05 130.56-11.75 192.1-10.81 209.9-21.98 9.5-117.92 45.83-210.32 2.3-3.97-1.88-7.88-3.86-11.8-6 0.05-0.16 0.05-0.31 0.1-0.47 0.37-2.14 0.73-4.75 1.04-7.88 2.14-20.93 2.35-65.67-1.62-162.71-0.47-12.69-6.21-26.2-11.69-39.31-3.18-7.57-6.26-14.88-8.2-21.51-0.73-2.56-1.31-5.01-1.62-7.36-1.51-10.6-2.77-21.25-3.76-31.95v-0.1c-0.37-3.24-0.68-6.53-0.89-9.76-0.31-3.6-0.57-7.2-0.84-10.81-3.08-47.82 3.39-97.25 19.26-146.95 7.31-22.81 19.16-66.92 22.34-119.33 0.63-9.87 0.89-20.05 0.73-30.49-0.16-15.92-1.25-32.31-3.65-48.86-1.77-12.48-4.28-25-7.67-37.53-0.21-0.78-0.42-1.51-0.63-2.3-0.05-0.16-0.1-0.31-0.16-0.47 6.63-17.85 15.76-32.89 25.84-45.41 0.42 1.93 0.68 4.02 0.68 6.21 0 4.33 3.5 7.83 7.83 7.83s7.83-3.5 7.83-7.83c0-7.57-1.77-14.04-4.49-19.47 7.52-7.57 15.19-13.94 22.45-19.21 1.77 3.55 2.92 7.73 2.92 12.58 0 4.33 3.5 7.83 7.83 7.83s7.83-3.5 7.83-7.83c0-7.36-1.67-13.68-4.23-19-0.37-0.84-0.78-1.62-1.2-2.35 2.98-1.77 5.79-3.34 8.35-4.7h0.05c5.48-2.98 9.97-5.06 13.15-6.42 0.94-0.42 1.72-0.73 2.4-0.99 6.42-0.73 11.17-7.93 15.35-15.76 3.6-6.68 6.42-14.46 8.67-23.7 1.31-5.53 4.49-12.53 11.9-17.59 2.09-1.41 4.49-2.66 7.31-3.71 1.93-0.73 4.07 0.16 5.12 2.04 0.84 1.57 1.93 3.34 3.29 5.27 1.93 2.82 4.49 5.85 7.73 8.98 9.24 8.87 24.33 18.17 48.5 22.97 0.47 0.1 0.99 0.16 1.51 0.16 2.51 0 61.55 1.2 75.8 71.72 1.2 9.45 20.1 152.22 49.12 223.21-18.58 4.44-65.56 12.22-111.29-6.89z" fill="#ABD0CA" p-id="75079"></path><path d="M620.32 245.48l-0.47 1.77h-0.21c0.27-0.72 0.48-1.35 0.68-1.77z" fill="#020202" p-id="75080"></path></svg>