<svg t="1699277404982" class="icon" viewBox="0 0 1024 1024" version="1.1" xmlns="http://www.w3.org/2000/svg" p-id="72414" width="48" height="48"><path d="M542.129 404.101c-2.264 16.015-7.052 44.958-26.975 44.958L524.146 512c27.958 7.832 36.949 25.816 26.975 53.949 59.642 10.104 109.774 29.777 143.865 80.926 38.465 0 33.469 44.957 71.934 44.957 9.678 19.371 26.326 26.491 44.958 40.463 20.526 15.393 27.903 34.266 35.966 58.445-41.73 0 26.741 55.385 31.677 64.66 15.936 29.945 49.248 53.931 49.248 83.701 0 39.706-55.733 28.056-89.916 31.471-28.155-37.845 4.234-63.017-24.667-92.23-21.61-21.844-67.7 22.628-110.207-6.677-29.354-35.227-66.433-54.679-89.916-89.916-38.964-8.993-77.928-17.982-116.891-26.976-0.05 33.817 5.629 67.381 17.983 98.908-48.16 0-57.714-59.74-116.891-44.958 0-46.656-65.326-17.983-80.925-17.983 24.968 53.55 60.945 90.114 62.941 152.857-59.944 2.994-119.888 5.997-179.832 8.991 10.19-34.787 42.011-30.317 62.941-53.949-80.053-46.112-125.658-163.585-125.882-251.765 68.737-22.893 134.863-40.444 206.807-53.95-9.878-38.397-34.97-44.483-39.563-88.117-4.796-45.558-9.593-91.115-14.387-136.673-35.213-0.65-64.229-2.552-80.925-35.967-32.969 11.989-44.958 2.997-35.966-26.975-11.115 0-28.637-9.188-35.966-17.983 0-24.945-29.44-33.427-39.933-65.605-13.809-42.348 36.653-33.451 66.907-33.302 12.682 14.45 44.958 8.553 44.958 26.975 16.01-5.362 25.001 0.633 26.975 17.983 35.967 2.995 71.933 5.997 107.899 8.992-13.042-52.209-69.381-136.409 16.088-168.129 84.482-31.353 100.627 35.19 94.808 99.195-3.246 35.692-11.988 46-11.988 86.917 17.983 1.997 35.967 3.995 53.95 5.995 54.351 6.041 11.979-22.702 44.958-50.953 59.033-19.661 61.854-97.478 53.95-152.858 30.876 0 17.535 20.269 26.975 44.958 18.018-13.405 19.255-26.525 26.975-44.958 50.938 14.44 11.833 36.095 71.933-8.991 0 74.125-113.005 116.48-87.614 184.944 23.763 64.073 5.165 58.673-11.293 116.275-13.037 45.623-41.708 37.634-80.926 49.454-4.008 28.353 17.948-5.41 0 0z" fill="#515151" p-id="72415"></path></svg>