<svg t="1699253078817" class="icon" viewBox="0 0 1024 1024" version="1.1" xmlns="http://www.w3.org/2000/svg" p-id="1510" width="48" height="48"><path d="M514.514 207.385c2.084-20.143 3.289-40.464 3.647-60.961 0.342-20.484 4.69-41.162 13.027-62.004 6.252-4.852 13.888-9.72 22.925-14.59 9.02-4.851 17.357-7.636 25.01-8.336 23.609 10.42 37.515 23.447 41.682 39.077 4.169 15.631 4.169 33.184 0 52.626-0.7 12.504 1.205 22.583 5.732 30.219 4.51 7.652 14.41 10.078 29.699 7.294 20.142-5.551 41.683-4.33 64.609 3.648 22.925 7.995 38.198 24.847 45.85 50.54 0.684 6.953 3.647 10.6 8.856 10.942 5.212 0.359 11.284 0.879 18.238 1.563 12.503-4.852 24.65-7.637 36.471-8.337a3414.066 3414.066 0 0 1 40.64-2.085c17.359 4.168 27.097 11.3 29.179 21.363 2.084 10.079-6.254 18.236-25.01 24.488-11.82-0.684-22.762 0.18-32.825 2.605-10.078 2.443-20.678 5.732-31.783 9.9-16.672 0-34.567 2.263-53.667 6.773-19.117 4.527-35.265 16.153-48.455 34.91-4.868 6.952-6.252 12.34-4.166 16.15 2.083 3.828 6.934 6.09 14.588 6.775h27.092c15.274 2.784 23.968 9.035 26.052 18.756 2.083 9.736-3.826 19.457-17.716 29.178-18.755 3.484-36.309 5.91-52.624 7.295-16.33 1.4-33.525 4.526-51.583 9.379-11.82 2.084-19.457 9.037-22.925 20.84-3.484 11.821-1.4 20.842 6.252 27.094l39.597-6.252c13.89 0 23.09 4.168 27.615 12.505 4.511 8.335-0.52 17.372-15.108 27.093l-60.44 20.842c-12.504 6.953-18.757 14.768-18.757 23.446 0 8.695 6.937 11.985 20.842 9.9l35.431-6.25c24.31-6.936 47.576-13.37 69.817-19.28 22.226-5.894 44.809-9.198 67.736-9.898 14.589 2.083 23.786 7.994 27.615 17.714 3.81 9.737-1.92 17.032-17.195 21.884-30.578 3.484-59.92 9.559-88.054 18.235-28.137 8.695-57.835 16.511-89.097 23.448-16.672 2.083-29.016 7.472-36.994 16.151-7.994 8.694-18.594 18.594-31.78 29.7-4.17 6.25-5.392 10.599-3.65 13.024 1.728 2.443 5.733 3.649 11.986 3.649 24.31-5.552 47.755-10.242 70.337-14.07 22.567-3.808 46.373-7.455 71.381-10.94 38.899 0 66.336 12.162 82.324 36.47 15.974 24.328 21.184 54.547 15.632 90.66l-22.926 58.357c-9.036 17.355-17.372 33.866-25.01 49.496-7.654 15.634-16.672 32.47-27.093 50.54-8.336 4.17-15.467 6.073-21.362 5.732-5.912-0.358-11.982 1.204-18.235 4.69-6.254 2.768-11.301 4.85-15.112 6.252-3.827 1.385-7.815 0.683-11.983-2.085l-10.42-8.338c-25.01-9.734-50.899-14.423-77.633-14.064-26.752 0.34-52.983 5.028-78.677 14.064l-20.84 8.338c-27.795 11.105-51.584 8.68-71.383-7.294-19.798-15.989-40.476-38.556-62.002-67.734-13.204-27.794-15.808-58.876-7.815-93.264 7.979-34.387 28.658-59.559 62.003-75.55 11.105-5.55 22.746-12.324 34.91-20.32 12.145-7.978 23.446-17.194 33.865-27.614l-8.336-2.084c-27.795 8.337-53.845 16.15-78.155 23.446-24.325 7.295-51.06 14.768-80.239 22.405-13.904 6.252-31.261 12.163-52.103 17.715-20.841 5.569-35.43 2.444-43.766-9.379 0-9.718 6.252-19.098 18.757-28.134 12.505-9.023 23.61-14.23 33.345-15.632 34.031-1.385 67.214-6.937 99.518-16.672 32.304-9.721 66.513-20.843 102.643-33.348 7.637-4.85 11.283-9.378 10.942-13.546-0.358-4.169-4.69-7.977-13.026-11.463-15.29-4.168-30.4-4.51-45.33-1.042-14.948 3.483-30.4 6.61-46.372 9.378-18.074 2.784-29.178-2.247-33.346-15.109-4.169-12.847 3.467-22.405 22.925-28.657 20.14-0.684 39.077-3.288 56.792-7.817 17.716-4.51 37.677-10.24 59.919-17.192 4.168-2.768 7.637-6.595 10.421-11.463 2.768-4.852 4.169-8.679 4.169-11.464 0.683-11.104-0.18-18.92-2.606-23.445-2.443-4.511-8.515-5.032-18.236-1.564-14.589 6.253-29.357 11.643-44.288 16.153-14.946 4.526-29.356 7.473-43.244 8.856-15.29-4.168-24.147-11.104-26.573-20.841-2.443-9.72 4.33-18.758 20.32-27.093 18.758-1.384 35.95-3.99 51.582-7.816 15.63-3.81 33.167-9.541 52.624-17.194 9.02-2.767 14.93-7.636 17.714-14.588 2.769-6.937 3.81-13.889 3.127-20.842 0.684-9.72-1.22-14.589-5.731-14.589-4.528 0-9.557 0.7-15.11 2.084a2888.065 2888.065 0 0 0-46.371 11.985c-14.248 3.826-30.058 11.642-47.415 23.446-33.346 13.205-64.445 23.967-93.266 32.305-28.834 8.336-58.875 19.115-90.137 32.303a106.515 106.515 0 0 1-14.59 3.126c-4.867 0.7-9.036 1.043-12.504 1.043-15.989-0.684-29.178-4.17-39.598-10.42-10.42-6.253-14.588-18.058-12.504-35.431 5.552-14.59 14.589-27.256 27.094-38.036 12.505-10.762 25.694-12.668 39.598-5.731 7.637 3.485 15.63 4.868 23.969 4.168 8.335-0.683 17.014-2.084 26.05-4.168 43.767-9.02 85.27-19.62 124.527-31.783a45208.477 45208.477 0 0 0 125.569-39.078c9.72-5.552 14.589-11.984 14.589-19.279 0-7.294-4.868-10.583-14.59-9.9-13.905 0-26.751-0.862-38.556-2.604-11.821-1.726-23.283-1.563-34.388 0.523-9.038 0-16.853-1.564-23.446-4.69-6.611-3.127-14.068-7.817-22.405-14.068-9.036-4.169-13.025-9.02-11.982-14.589 1.041-5.553 5.73-10.421 14.067-14.59 13.889-8.337 27.093-13.89 39.6-16.674 12.503-2.768 26.391-4.167 41.681-4.167 9.022-0.684 19.441-2.77 31.262-6.253 11.8-3.468 20.835-10.421 27.089-20.84z m193.823 477.264c-43.082 7.653-83.723 17.03-121.922 28.136-38.211 11.122-80.236 30.919-126.088 59.398-18.073 12.506-26.93 22.406-26.573 29.7 0.342 7.293 4.33 18.936 11.984 34.908 1.384 5.552 3.126 12.326 5.21 20.32 2.084 7.978 6.594 13.712 13.547 17.197 6.936 2.081 14.067-0.362 21.361-7.296a1372.443 1372.443 0 0 0 22.404-21.883c4.17-8.338 4.332-13.19 0.522-14.588-3.826-1.386-8.857-3.472-15.109-6.254-7.653-4.85-14.246-10.242-19.799-16.151-5.568-5.893-2.442-10.242 9.38-13.026 22.224-9.022 45.491-17.357 69.818-25.009 24.308-7.637 48.275-9.022 71.902-4.17 9.02 5.569 14.75 11.122 17.193 16.672 2.427 5.57-1.22 11.123-10.942 16.674-15.99 8.338-31.262 17.893-45.851 28.657-14.588 10.764-29.879 22.746-45.85 35.95-4.168 3.47-6.43 6.416-6.773 8.858-0.36 2.426 1.905 4.33 6.773 5.731 13.19-4.165 26.217-7.651 39.077-10.42 12.847-2.787 26.215-7.653 40.12-14.589 2.084-2.785 2.77-6.432 2.084-10.943-0.7-4.527 0.685-8.515 4.169-11.981 4.168-2.77 9.72-4.171 16.672-4.171 6.937 0 13.19 0.7 18.758 2.084 11.803 1.402 20.318 0.88 25.53-1.563 5.21-2.424 11.282-10.24 18.238-23.445 6.25-16.673 13.708-39.761 22.402-69.3 8.678-29.517 2.605-46.012-18.237-49.496z m-208.412-4.17c-6.252 0.703-13.204 4.17-20.84 10.423-7.654 6.252-9.037 11.822-4.168 16.673 7.636-0.684 16.493-3.81 26.573-9.378 10.06-5.553 9.54-11.464-1.565-17.717zM679.16 240.73c-13.206-2.084-24.49-0.521-33.867 4.69-9.379 5.21-14.068 15.468-14.068 30.742 9.023 14.588 20.483 16.151 34.39 4.69 13.888-11.464 18.395-24.833 13.545-40.122z" fill="#2C2C2C" p-id="1511"></path></svg>