<svg t="1699276844936" class="icon" viewBox="0 0 1024 1024" version="1.1" xmlns="http://www.w3.org/2000/svg" p-id="51589" width="48" height="48"><path d="M447.668706 290.093176a67.403294 67.403294 0 1 0 67.403294-67.403294 67.403294 67.403294 0 0 0-67.403294 67.403294z" fill="#FF6F00" p-id="51590"></path><path d="M1013.820235 511.638588a492.604235 492.604235 0 1 0-492.483764 480.677647 486.701176 486.701176 0 0 0 492.483764-480.677647z m-571.813647 225.099294a69.210353 69.210353 0 1 1 69.210353 67.824942 70.053647 70.053647 0 0 1-49.031529-19.877648 66.740706 66.740706 0 0 1-20.178824-48.188235z m73.065412 226.424471a225.28 225.28 0 0 0 0-450.499765 225.460706 225.460706 0 1 1 0-450.740706 450.620235 450.620235 0 0 1 0 901.300706z" fill="#FF6F00" p-id="51591"></path></svg>