<svg t="1699276712986" class="icon" viewBox="0 0 1032 1024" version="1.1" xmlns="http://www.w3.org/2000/svg" p-id="47352" width="48" height="48"><path d="M162.761447 28.62937c73.311901 106.8238 216.606708 358.791849 216.606707 358.791849H153.662189S33.966269 166.597782 7.778163 121.915251C-34.759015 50.008926 108.535792-49.713015 162.761447 28.62937z" fill="#1237CE" p-id="47353"></path><path d="M221.943607 1023.999334h618.305623a7.39777 7.39777 0 0 0 5.104462-12.132343c-19.604091-20.417845-69.16915-66.579931-160.161723-61.919335a123.320827 123.320827 0 0 1-14.79554 0c-42.4632-2.959108-208.395183-6.43606-310.706343 0a290.362476 290.362476 0 0 0-145.884026 47.789594 14.351674 14.351674 0 0 0 8.137547 26.262084z" fill="#1237CE" opacity=".5" p-id="47354"></path><path d="M343.710903 948.024235l175.105217 22.193311a299.831621 299.831621 0 0 0 36.471007 2.293308h17.976581a217.716373 217.716373 0 0 0 59.182161-8.285502c17.162827-4.882528 37.432717-6.510038 52.45019-9.839034 303.308573-129.830865 347.695194-524.13201 347.695193-524.13201H12.142848c15.461339 372.625679 268.98292 493.653197 331.568055 517.769927zM330.468894 798.959168A336.154672 336.154672 0 0 1 432.040277 679.115293a491.581822 491.581822 0 0 1 139.891833-69.391083c4.142751-1.183643 2.367286-7.39777-1.775465-7.39777a413.017503 413.017503 0 0 0-113.555771 41.871378A337.856159 337.856159 0 0 0 355.103469 735.338346c18.494425-107.119711 66.579931-146.623803 124.282537-162.750942 71.684392-19.826024 134.49146-5.400372 194.783286-34.177698 36.471006-17.310782 35.287363 13.759852 34.695542 18.568403-9.099257 71.832347-47.345728 139.521944-127.981423 171.776221-87.885509 35.361341-175.105218-29.59108-237.838308 72.424169a3.107063 3.107063 0 0 1-2.441264 1.183644H332.910158a2.58922 2.58922 0 0 1-2.441264-3.402975z" fill="#1237CE" p-id="47355"></path></svg>