<svg t="1699281573988" class="icon" viewBox="0 0 1024 1024" version="1.1" xmlns="http://www.w3.org/2000/svg" p-id="156693" width="48" height="48"><path d="M116.992 151.04H162.56v642.176H116.992zM939.52 192.384h52.864v650.496H939.52zM847.36 192.384h52.864v650.496H847.36zM755.2 192.384h52.864v650.496H755.2zM663.04 192.384h52.864v650.496H663.04zM570.88 192.384h52.864v650.496H570.88zM478.72 192.384h52.864v650.496H478.72zM386.56 192.384h52.864v650.496H386.56zM294.4 192.384h52.864v650.496H294.4zM255.104 842.88L202.24 801.664V146.816l52.864 45.568zM16.896 842.88l52.864-41.216V146.816l-52.864 45.568z" fill="#55AEFF" p-id="156694"></path><path d="M1008.512 828.16h-1.28V206.976h0.128c8.192 0 14.72-6.656 14.72-14.72s-6.656-14.72-14.72-14.72h-0.128V113.28c0-15.616-12.672-28.416-28.416-28.416H952.32c-15.616 0-28.416 12.672-28.416 28.416v64.256h-8.448V113.28c0-15.616-12.672-28.416-28.416-28.416h-26.496c-15.616 0-28.416 12.672-28.416 28.416v64.256h-8.448V113.28c0-15.616-12.672-28.416-28.416-28.416h-26.496c-15.616 0-28.416 12.672-28.416 28.416v64.256h-8.448V113.28c0-15.616-12.672-28.416-28.416-28.416H677.12c-15.616 0-28.416 12.672-28.416 28.416v64.256h-8.448V113.28c0-15.616-12.672-28.416-28.416-28.416h-26.496c-15.616 0-28.416 12.672-28.416 28.416v64.256h-8.448V113.28c0-15.616-12.672-28.416-28.416-28.416h-26.496c-15.616 0-28.416 12.672-28.416 28.416v64.256h-8.448V113.28c0-15.616-12.672-28.416-28.416-28.416H401.92c-15.616 0-28.416 12.672-28.416 28.416v64.256h-8.448V113.28c0-15.616-12.672-28.416-28.416-28.416h-26.496c-15.616 0-28.416 12.672-28.416 28.416v64.256H270.08l0.128-65.28c0-12.8-8.832-27.136-21.12-34.304l-26.752-15.488c-8.704-4.992-17.92-5.504-25.216-1.28-6.784 3.84-10.624 11.008-10.624 19.584l-0.128 55.424h-9.216V71.168c0-15.616-12.672-28.416-28.416-28.416H122.368c-15.616 0-28.416 12.672-28.416 28.416v65.152H84.48V80.896c0-8.576-3.968-15.744-10.624-19.584-7.296-4.224-16.512-3.712-25.216 1.28L21.888 78.08C9.6 85.12 0.768 99.584 0.768 112.256l1.408 787.328V911.616c0 12.8 8.832 27.136 21.12 34.304L49.92 961.408c4.736 2.816 9.728 4.096 14.336 4.096 3.84 0 7.552-0.896 10.88-2.816 6.784-3.968 10.624-11.008 10.624-19.584l0.128-73.984c0-0.512 0-1.024-0.128-1.664v-51.072h8.192v136.448c0 15.616 12.672 28.416 28.416 28.416h26.496c15.616 0 28.416-12.672 28.416-28.416V816.384h8.064l-0.128 52.608V873.344l0.128 69.632c0 8.576 3.968 15.744 10.752 19.584 3.328 1.92 7.04 2.816 10.88 2.816 4.608 0 9.6-1.408 14.336-4.096l26.752-15.488c12.16-7.04 21.12-21.504 21.12-34.176v-13.824c0-0.512 0-1.152-0.128-1.664l0.128-38.528h12.8v55.424c0 15.616 12.672 28.416 28.416 28.416h26.496c15.616 0 28.416-12.672 28.416-28.416V857.6h8.448v55.424c0 15.616 12.672 28.416 28.416 28.416h26.496c15.616 0 28.416-12.672 28.416-28.416V857.6h8.448v55.424c0 15.616 12.672 28.416 28.416 28.416h26.496c15.616 0 28.416-12.672 28.416-28.416V857.6h8.448v55.424c0 15.616 12.672 28.416 28.416 28.416h26.496c15.616 0 28.416-12.672 28.416-28.416V857.6h8.448v55.424c0 15.616 12.672 28.416 28.416 28.416H704c15.616 0 28.416-12.672 28.416-28.416V857.6h8.448v55.424c0 15.616 12.672 28.416 28.416 28.416h26.496c15.616 0 28.416-12.672 28.416-28.416V857.6h8.448v55.424c0 15.616 12.672 28.416 28.416 28.416H887.04c15.616 0 28.416-12.672 28.416-28.416V857.6h8.448v55.424c0 15.616 12.672 28.416 28.416 28.416h26.496c15.616 0 28.416-12.672 28.416-28.416V857.6h1.28c8.192 0 14.72-6.656 14.72-14.72s-6.656-14.72-14.72-14.72z m-30.848 0h-24.32V206.976h24.32V828.16z m-24.32-713.728h24.32v63.232h-24.32V114.432z m-91.648 0h24.32v63.232h-24.32V114.432z m24.32 92.544V828.16h-24.32V206.976h24.32z m-116.096-92.544h24.32v63.232h-24.32V114.432z m24.32 92.544V828.16h-24.32V206.976h24.32z m-115.968-92.544h24.32v63.232h-24.32V114.432z m24.32 92.544V828.16h-24.32V206.976h24.32z m-116.096-92.544h24.32v63.232h-24.32V114.432z m24.32 92.544V828.16h-24.32V206.976h24.32z m-115.968-92.544h24.32v63.232h-24.32V114.432z m24.192 92.544V828.16h-24.32V206.976h24.32z m-115.968-92.544h24.32v63.232h-24.32V114.432z m24.32 92.544V828.16h-24.32V206.976h24.32z m-115.968-92.544h24.32v63.232h-24.32V114.432z m24.192 92.544V828.16h-24.32V206.976h24.32z m-120.832 664.192l0.128-40.96 24.704 19.584-0.128 42.88-18.432-10.624c-3.456-2.048-6.272-6.912-6.4-8.704l0.128-2.176z m0.128-78.464l1.024-611.328L240.64 200.96l-1.024 611.328-24.704-19.584z m19.584-689.152c3.456 2.048 6.272 6.912 6.4 8.704l-0.128 51.2-24.704-19.584 0.128-50.944 18.304 10.624zM123.52 72.32h24.32v64h-24.32v-64z m24.32 93.44v621.184h-24.32V165.76h24.32zM56.448 873.344c-0.128 1.792-2.816 6.656-6.4 8.704l-18.432 10.624-0.128-44.416L56.32 830.464l0.128 42.88z m-0.128-79.104l-24.832 17.792-1.024-614.4 24.832-17.792 1.024 614.4zM36.608 103.552L55.04 92.928l0.128 50.56L30.336 161.28l-0.128-49.024c0.128-1.792 2.944-6.656 6.4-8.704z m3.584 818.176l16.128-9.344v18.688l-16.128-9.344zM85.76 786.944l-1.024-621.184h9.344v621.184H85.76z m37.76 164.736v-52.352h24.32v52.352h-24.32z m24.32-81.792h-24.32v-53.504h24.32v53.504z m29.44-82.944V165.76h9.216l-1.024 621.184h-8.192z m37.632 144.128v-18.688l16.128 9.344-16.128 9.344z m54.144-102.912l1.024-621.184h11.648V828.16h-12.672z m66.56 83.84h-24.32V857.6h24.32v54.4z m29.568-83.84V206.976h8.448V828.16h-8.448z m62.208 83.84h-24.32V857.6h24.32v54.4z m29.44-83.84V206.976h8.448V828.16h-8.448z m62.208 83.84h-24.32V857.6h24.32v54.4z m29.568-83.84V206.976h8.448V828.16h-8.448z m62.208 83.84h-24.32V857.6h24.32v54.4z m29.44-83.84V206.976h8.448V828.16h-8.448z m62.336 83.84h-24.32V857.6h24.32v54.4z m29.44-83.84V206.976h8.448V828.16h-8.448z m62.208 83.84h-24.32V857.6h24.32v54.4z m29.44-83.84V206.976h8.448V828.16h-8.448z m62.336 83.84h-24.32V857.6h24.32v54.4z m29.44-83.84V206.976h8.448V828.16h-8.448z m62.208 83.84h-24.32V857.6h24.32v54.4z" fill="#002C5B" p-id="156695"></path></svg>